{
.appVersion = "3260";
.formatVersion = 3;
DisplayStrings = (
syegburg
);
axes = (
{
name = Weight;
tag = wght;
}
);
classes = (
{
code = "A B D E F H I J K L M N O P Q R S U Z Aacute Abreve Acircumflex Adieresis Agrave Amacron Aogonek Aring Atilde Dcaron Dcroat Eacute Ecaron Ecircumflex Edieresis Edotaccent Egrave Emacron Eogonek Etilde Hbar Hcircumflex IJ Iacute Icircumflex Idieresis Idotaccent Igrave Imacron Itilde Nacute Ncaron Ncommaaccent Ntilde Racute Rcaron Rcommaaccent Sacute Scaron Scedilla Scircumflex Scommaaccent Oacute Ocircumflex Odieresis Ograve Ohungarumlaut Omacron Oslash Otilde Uacute Ucircumflex Udieresis Ugrave Uhungarumlaut Umacron Uogonek Uring Utilde Zacute Zcaron Zdotaccent Jacute Jcircumflex
";
name = left_ortho;
},
{
code = "W V Y T T_T Wacute Wcircumflex Wdieresis Wgrave Yacute Ycircumflex Ydieresis Ygrave Ytilde Tcaron Tcedilla Tcommaaccent
";
name = right_overhang;
},
{
code = "W V Y T T_T Wacute Wcircumflex Wdieresis Wgrave Yacute Ycircumflex Ydieresis Ygrave Ytilde Tcaron Tcedilla Tcommaaccent";
name = left_overhang;
},
{
code = "A H I J M N O Q U Z Aacute Abreve Acircumflex Adieresis Agrave Amacron Aogonek Aring Atilde Hbar Hcircumflex Iacute Icircumflex Idieresis Idotaccent Igrave Imacron Itilde Jacute Nacute Ncaron Ncommaaccent Ntilde Oacute Ocircumflex Odieresis Ograve Ohungarumlaut Omacron Oslash Otilde Uacute Ucircumflex Udieresis Ugrave Uhungarumlaut Umacron Uogonek Uring Utilde Zacute Zcaron Zdotaccent
";
name = right_ortho;
},
{
code = "t ";
name = trigger_special_h;
}
);
customParameters = (
{
name = "Use Typo Metrics";
value = 1;
}
);
date = "2024-04-19 11:50:45 +0000";
familyName = Brokken;
featurePrefixes = (
{
automatic = 1;
code = "languagesystem DFLT dflt;

languagesystem latn dflt;
languagesystem latn AZE;
languagesystem latn CRT;
languagesystem latn KAZ;
languagesystem latn TAT;
languagesystem latn TRK;
languagesystem latn ROM;
languagesystem latn MOL;
languagesystem latn NLD;
";
name = Languagesystems;
}
);

glyphs = (
{
glyphname = A;
kernLeft = A;
kernRight = A;
lastChange = "2024-05-20 13:11:06 +0000";
layers = (
{
anchors = (
{
name = bottom;
pos = (496,17);
},
{
name = ogonek;
pos = (560,8);
},
{
name = top;
pos = (354,714);
}
);
hints = (
{
horizontal = 1;
origin = (3,9);
target = down;
type = TopGhost;
},
{
place = (90.5,139.5);
type = Stem;
},
{
place = (409,168);
type = Stem;
},
{
origin = (0,5);
target = (0,1,1,0);
type = Stem;
},
{
place = (403.5,173.5);
type = Stem;
}
);
layerId = m01;
shapes = (
{
closed = 1;
nodes = (
(232,19,l),
(232,500,l),
(399,660,l),
(179,699,l),
(84,622,l),
(97,123,l),
(51,71,l),
(68,0,l),
(212,0,l)
);
},
{
closed = 1;
nodes = (
(386,217,l),
(456,302,l),
(441,360,l),
(63,249,l),
(44,162,l),
(78,151,l)
);
},
{
closed = 1;
nodes = (
(568,700,l),
(282,700,l),
(195,520,l),
(283,568,l),
(529,568,l),
(594,684,l)
);
},
{
closed = 1;
nodes = (
(594,684,l),
(436,520,l),
(431,457,l),
(438,163,l),
(448,14,l),
(496,0,l),
(612,24,l),
(597,516,l),
(628,582,l),
(628,662,l)
);
},
{
closed = 1;
nodes = (
(627,80,l),
(608,126,l),
(456,154,l),
(413,48,l),
(430,0,l),
(617,0,l)
);
},
{
closed = 1;
nodes = (
(66,487,l),
(118,472,l),
(84,622,l),
(55,601,l)
);
}
);
width = 657;
},
{
anchors = (
{
name = bottom;
pos = (496,17);
},
{
name = ogonek;
pos = (560,8);
},
{
name = top;
pos = (354,714);
}
);
hints = (
{
horizontal = 1;
origin = (3,9);
target = down;
type = TopGhost;
},
{
place = (90.5,139.5);
type = Stem;
},
{
place = (409,168);
type = Stem;
},
{
origin = (0,5);
target = (0,1,1,0);
type = Stem;
},
{
place = (403.5,173.5);
type = Stem;
}
);
layerId = m002;
shapes = (
{
closed = 1;
nodes = (
(232,19,l),
(232,500,l),
(399,660,l),
(179,699,l),
(84,622,l),
(97,123,l),
(51,71,l),
(68,0,l),
(212,0,l)
);
},
{
closed = 1;
nodes = (
(386,217,l),
(456,302,l),
(441,360,l),
(63,249,l),
(44,162,l),
(78,151,l)
);
},
{
closed = 1;
nodes = (
(568,700,l),
(282,700,l),
(195,520,l),
(283,568,l),
(529,568,l),
(594,684,l)
);
},
{
closed = 1;
nodes = (
(594,684,l),
(436,520,l),
(431,457,l),
(438,163,l),
(448,14,l),
(496,0,l),
(612,24,l),
(597,516,l),
(628,582,l),
(628,662,l)
);
},
{
closed = 1;
nodes = (
(627,80,l),
(608,126,l),
(456,154,l),
(413,48,l),
(430,0,l),
(617,0,l)
);
},
{
closed = 1;
nodes = (
(66,487,l),
(118,472,l),
(84,622,l),
(55,601,l)
);
}
);
width = 657;
}
);
metricLeft = B;
unicode = 65;
},
{
glyphname = AE;
kernLeft = A;
kernRight = E;
lastChange = "2024-05-20 13:11:06 +0000";
layers = (
{
anchors = (
{
name = bottom;
pos = (892,0);
},
{
name = ogonek;
pos = (1106,8);
},
{
name = top;
pos = (523,714);
},
{
name = topleft;
pos = (641,680);
}
);
hints = (
{
horizontal = 1;
origin = (3,9);
target = down;
type = TopGhost;
},
{
place = (90.5,139.5);
type = Stem;
},
{
place = (409,168);
type = Stem;
},
{
origin = (0,5);
target = (0,1,1,0);
type = Stem;
},
{
place = (403.5,173.5);
type = Stem;
}
);
layerId = m01;
shapes = (
{
closed = 1;
nodes = (
(231,19,l),
(231,500,l),
(398,660,l),
(178,699,l),
(83,622,l),
(96,123,l),
(50,71,l),
(67,0,l),
(211,0,l)
);
},
{
closed = 1;
nodes = (
(385,217,l),
(478,323,l),
(463,381,l),
(63,311,l),
(44,224,l),
(78,213,l)
);
},
{
closed = 1;
nodes = (
(567,700,l),
(281,700,l),
(194,520,l),
(282,568,l),
(528,568,l),
(593,684,l)
);
},
{
closed = 1;
nodes = (
(593,684,l),
(435,520,l),
(430,457,l),
(437,163,l),
(447,14,l),
(495,0,l),
(611,24,l),
(596,516,l),
(627,582,l),
(627,662,l)
);
},
{
closed = 1;
nodes = (
(626,80,l),
(607,126,l),
(455,154,l),
(412,48,l),
(429,0,l),
(616,0,l)
);
},
{
closed = 1;
nodes = (
(65,487,l),
(117,472,l),
(83,622,l),
(54,601,l)
);
},
{
closed = 1;
nodes = (
(457,0,l),
(895,0,l),
(918,163,l),
(720,111,l),
(628,117,l),
(604,117,l),
(604,222,l),
(595,494,l),
(518,552,l),
(667,644,l),
(437,639,l),
(447,178,l),
(452,43,l)
);
},
{
closed = 1;
nodes = (
(752,296,l),
(881,386,l),
(867,464,l),
(463,381,l),
(406,354,l),
(402,271,l)
);
},
{
closed = 1;
nodes = (
(808,538,l),
(928,613,l),
(912,702,l),
(583,661,l),
(500,532,l)
);
},
{
closed = 1;
nodes = (
(402,700,l),
(410,591,l),
(460,557,l),
(779,628,l),
(675,700,l)
);
},
{
closed = 1;
nodes = (
(720,111,l),
(850,92,l),
(918,163,l),
(889,188,l),
(734,164,l)
);
}
);
width = 958;
},
{
anchors = (
{
name = bottom;
pos = (892,0);
},
{
name = ogonek;
pos = (1106,8);
},
{
name = top;
pos = (523,714);
},
{
name = topleft;
pos = (641,680);
}
);
hints = (
{
horizontal = 1;
origin = (3,9);
target = down;
type = TopGhost;
},
{
place = (90.5,139.5);
type = Stem;
},
{
place = (409,168);
type = Stem;
},
{
origin = (0,5);
target = (0,1,1,0);
type = Stem;
},
{
place = (403.5,173.5);
type = Stem;
}
);
layerId = m002;
shapes = (
{
closed = 1;
nodes = (
(231,19,l),
(231,500,l),
(398,660,l),
(178,699,l),
(83,622,l),
(96,123,l),
(50,71,l),
(67,0,l),
(211,0,l)
);
},
{
closed = 1;
nodes = (
(385,217,l),
(478,323,l),
(463,381,l),
(63,311,l),
(44,224,l),
(78,213,l)
);
},
{
closed = 1;
nodes = (
(567,700,l),
(281,700,l),
(194,520,l),
(282,568,l),
(528,568,l),
(593,684,l)
);
},
{
closed = 1;
nodes = (
(593,684,l),
(435,520,l),
(430,457,l),
(437,163,l),
(447,14,l),
(495,0,l),
(611,24,l),
(596,516,l),
(627,582,l),
(627,662,l)
);
},
{
closed = 1;
nodes = (
(626,80,l),
(607,126,l),
(455,154,l),
(412,48,l),
(429,0,l),
(616,0,l)
);
},
{
closed = 1;
nodes = (
(65,487,l),
(117,472,l),
(83,622,l),
(54,601,l)
);
},
{
closed = 1;
nodes = (
(457,0,l),
(895,0,l),
(918,163,l),
(720,111,l),
(628,117,l),
(604,117,l),
(604,222,l),
(595,494,l),
(518,552,l),
(667,644,l),
(437,639,l),
(447,178,l),
(452,43,l)
);
},
{
closed = 1;
nodes = (
(752,296,l),
(881,386,l),
(867,464,l),
(463,381,l),
(406,354,l),
(402,271,l)
);
},
{
closed = 1;
nodes = (
(808,538,l),
(928,613,l),
(912,702,l),
(583,661,l),
(500,532,l)
);
},
{
closed = 1;
nodes = (
(402,700,l),
(410,591,l),
(460,557,l),
(779,628,l),
(675,700,l)
);
},
{
closed = 1;
nodes = (
(720,111,l),
(850,92,l),
(918,163,l),
(889,188,l),
(734,164,l)
);
}
);
width = 958;
}
);
metricLeft = A;
metricRight = E;
unicode = 198;
},
{
glyphname = B;
kernLeft = A;
lastChange = "2024-05-20 13:11:06 +0000";
layers = (
{
layerId = m01;
shapes = (
{
closed = 1;
nodes = (
(106,44,l),
(144,0,l),
(485,-1,l),
(585,25,l),
(638,263,l),
(583,363,l),
(474,356,l),
(608,426,l),
(648,584,l),
(596,700,l),
(417,700,l),
(378,675,l),
(339,700,l),
(106,622,l),
(114,353,l),
(92,348,l),
(51,244,l),
(78,205,l),
(118,219,l),
(118,203,l),
(86,65,l)
);
},
{
closed = 1;
nodes = (
(208,545,l),
(292,559,l),
(468,583,l),
(467,497,l),
(463,436,l),
(270,387,l),
(266,520,l)
);
},
{
closed = 1;
nodes = (
(428,329,l),
(439,334,l),
(532,141,l),
(190,135,l),
(277,187,l),
(274,269,l)
);
},
{
closed = 1;
nodes = (
(44,700,l),
(52,591,l),
(103,558,l),
(151,563,l),
(339,700,l)
);
},
{
closed = 1;
nodes = (
(508,124,l),
(563,136,l),
(523,203,l)
);
}
);
width = 656;
},
{
layerId = m002;
shapes = (
{
closed = 1;
nodes = (
(106,44,l),
(144,0,l),
(485,-1,l),
(585,25,l),
(638,263,l),
(583,363,l),
(474,356,l),
(608,426,l),
(648,584,l),
(596,700,l),
(417,700,l),
(378,675,l),
(339,700,l),
(106,622,l),
(114,353,l),
(92,348,l),
(51,244,l),
(78,205,l),
(118,219,l),
(118,203,l),
(86,65,l)
);
},
{
closed = 1;
nodes = (
(208,545,l),
(292,559,l),
(468,583,l),
(467,497,l),
(463,436,l),
(270,387,l),
(266,520,l)
);
},
{
closed = 1;
nodes = (
(428,329,l),
(439,334,l),
(532,141,l),
(190,135,l),
(277,187,l),
(274,269,l)
);
},
{
closed = 1;
nodes = (
(44,700,l),
(52,591,l),
(103,558,l),
(151,563,l),
(339,700,l)
);
},
{
closed = 1;
nodes = (
(508,124,l),
(563,136,l),
(523,203,l)
);
}
);
width = 656;
}
);
unicode = 66;
},
{
glyphname = C;
kernLeft = O;
lastChange = "2024-05-20 13:11:06 +0000";
layers = (
{
anchors = (
{
name = bottom;
pos = (310,0);
},
{
name = top;
pos = (310,714);
}
);
layerId = m01;
shapes = (
{
closed = 1;
nodes = (
(372,68,l),
(269,101,l),
(210,211,l),
(200,235,l),
(208,557,l),
(218,603,l),
(152,700,l),
(56,655,l),
(22,499,l),
(20,209,l),
(44,84,l),
(70,43,l)
);
},
{
closed = 1;
nodes = (
(152,0,l),
(220,30,l),
(352,0,l),
(531,1,l),
(550,179,l),
(513,231,l),
(385,177,l),
(375,123,l),
(347,78,l),
(70,43,l)
);
},
{
closed = 1;
nodes = (
(573,444,l),
(568,672,l),
(442,704,l),
(411,686,l),
(152,700,l),
(156,594,l),
(156,484,l),
(286,608,l),
(367,613,l),
(380,447,l),
(459,435,l)
);
}
);
width = 589;
},
{
anchors = (
{
name = bottom;
pos = (310,0);
},
{
name = top;
pos = (310,714);
}
);
layerId = m002;
shapes = (
{
closed = 1;
nodes = (
(372,68,l),
(269,101,l),
(210,211,l),
(200,235,l),
(208,557,l),
(218,603,l),
(152,700,l),
(56,655,l),
(22,499,l),
(20,209,l),
(44,84,l),
(70,43,l)
);
},
{
closed = 1;
nodes = (
(152,0,l),
(220,30,l),
(352,0,l),
(531,1,l),
(550,179,l),
(513,231,l),
(385,177,l),
(375,123,l),
(347,78,l),
(70,43,l)
);
},
{
closed = 1;
nodes = (
(573,444,l),
(568,672,l),
(442,704,l),
(411,686,l),
(152,700,l),
(156,594,l),
(156,484,l),
(286,608,l),
(367,613,l),
(380,447,l),
(459,435,l)
);
}
);
width = 589;
}
);
unicode = 67;
},
{
glyphname = D;
kernLeft = A;
kernRight = O;
lastChange = "2024-05-20 13:11:06 +0000";
layers = (
{
anchors = (
{
name = top;
pos = (304,714);
}
);
layerId = m01;
shapes = (
{
closed = 1;
nodes = (
(410,0,l),
(628,232,l),
(638,521,l),
(410,700,l),
(280,700,l),
(252,549,l),
(410,554,l),
(477,554,l),
(454,292,l),
(413,116,l),
(126,143,l),
(304,0,l)
);
},
{
closed = 1;
nodes = (
(121,128,l),
(263,184,l),
(253,597,l),
(222,554,l),
(110,491,l),
(110,189,l),
(97,39,l)
);
},
{
closed = 1;
nodes = (
(226,546,l),
(440,619,l),
(280,700,l),
(68,700,l),
(16,558,l),
(66,522,l)
);
},
{
closed = 1;
nodes = (
(77,149,l),
(47,98,l),
(83,0,l),
(304,0,l),
(361,47,l),
(298,120,l),
(126,143,l)
);
}
);
width = 668;
},
{
anchors = (
{
name = top;
pos = (304,714);
}
);
layerId = m002;
shapes = (
{
closed = 1;
nodes = (
(410,0,l),
(628,232,l),
(638,521,l),
(410,700,l),
(280,700,l),
(252,549,l),
(410,554,l),
(477,554,l),
(454,292,l),
(413,116,l),
(126,143,l),
(304,0,l)
);
},
{
closed = 1;
nodes = (
(121,128,l),
(263,184,l),
(253,597,l),
(222,554,l),
(110,491,l),
(110,189,l),
(97,39,l)
);
},
{
closed = 1;
nodes = (
(226,546,l),
(440,619,l),
(280,700,l),
(68,700,l),
(16,558,l),
(66,522,l)
);
},
{
closed = 1;
nodes = (
(77,149,l),
(47,98,l),
(83,0,l),
(304,0,l),
(361,47,l),
(298,120,l),
(126,143,l)
);
}
);
width = 668;
}
);
unicode = 68;
},
{
glyphname = Dcroat;
kernLeft = A;
kernRight = O;
lastChange = "2024-05-20 13:11:06 +0000";
layers = (
{
layerId = m01;
shapes = (
{
ref = D;
},
{
closed = 1;
nodes = (
(39,325,l),
(67,286,l),
(281,286,l),
(323,372,l),
(315,402,l),
(43,410,l)
);
}
);
width = 663;
},
{
layerId = m002;
shapes = (
{
ref = D;
},
{
closed = 1;
nodes = (
(39,325,l),
(67,286,l),
(281,286,l),
(323,372,l),
(315,402,l),
(43,410,l)
);
}
);
width = 663;
}
);
unicode = 272;
},
{
glyphname = Eth;
kernLeft = A;
kernRight = O;
lastChange = "2024-05-20 13:11:06 +0000";
layers = (
{
layerId = m01;
shapes = (
{
ref = D;
},
{
closed = 1;
nodes = (
(20,325,l),
(48,286,l),
(338,316,l),
(380,402,l),
(372,433,l),
(24,410,l)
);
}
);
width = 668;
},
{
layerId = m002;
shapes = (
{
ref = D;
},
{
closed = 1;
nodes = (
(20,325,l),
(48,286,l),
(338,316,l),
(380,402,l),
(372,433,l),
(24,410,l)
);
}
);
width = 668;
}
);
metricLeft = D;
metricRight = D;
unicode = 208;
},
{
glyphname = E;
kernLeft = A;
kernRight = E;
lastChange = "2024-05-20 13:11:06 +0000";
layers = (
{
anchors = (
{
name = bottom;
pos = (259,0);
},
{
name = ogonek;
pos = (473,8);
},
{
name = top;
pos = (305,738);
},
{
name = topleft;
pos = (8,680);
}
);
layerId = m01;
shapes = (
{
closed = 1;
nodes = (
(118,0,l),
(556,0,l),
(579,163,l),
(381,111,l),
(289,117,l),
(265,117,l),
(265,222,l),
(256,494,l),
(179,552,l),
(328,644,l),
(98,639,l),
(108,178,l),
(78,25,l)
);
},
{
closed = 1;
nodes = (
(413,296,l),
(542,386,l),
(528,464,l),
(124,381,l),
(67,354,l),
(63,271,l)
);
},
{
closed = 1;
nodes = (
(469,538,l),
(589,613,l),
(573,702,l),
(244,661,l),
(161,532,l)
);
},
{
closed = 1;
nodes = (
(44,700,l),
(52,591,l),
(121,557,l),
(440,628,l),
(336,700,l)
);
},
{
closed = 1;
nodes = (
(381,111,l),
(511,92,l),
(579,163,l),
(550,188,l),
(395,164,l)
);
}
);
width = 619;
},
{
anchors = (
{
name = bottom;
pos = (259,0);
},
{
name = ogonek;
pos = (473,8);
},
{
name = top;
pos = (305,738);
},
{
name = topleft;
pos = (8,680);
}
);
layerId = m002;
shapes = (
{
closed = 1;
nodes = (
(118,0,l),
(556,0,l),
(579,163,l),
(381,111,l),
(289,117,l),
(265,117,l),
(265,222,l),
(256,494,l),
(179,552,l),
(328,644,l),
(98,639,l),
(108,178,l),
(78,25,l)
);
},
{
closed = 1;
nodes = (
(413,296,l),
(542,386,l),
(528,464,l),
(124,381,l),
(67,354,l),
(63,271,l)
);
},
{
closed = 1;
nodes = (
(469,538,l),
(589,613,l),
(573,702,l),
(244,661,l),
(161,532,l)
);
},
{
closed = 1;
nodes = (
(44,700,l),
(52,591,l),
(121,557,l),
(440,628,l),
(336,700,l)
);
},
{
closed = 1;
nodes = (
(381,111,l),
(511,92,l),
(579,163,l),
(550,188,l),
(395,164,l)
);
}
);
width = 619;
}
);
metricLeft = B;
unicode = 69;
},
{
glyphname = Schwa;
kernLeft = O;
kernRight = O;
lastChange = "2024-05-20 13:11:06 +0000";
layers = (
{
layerId = m01;
shapes = (
{
closed = 1;
nodes = (
(354,700,l),
(272,660,l),
(356,538,l),
(392,502,l),
(438,257,l),
(420,163,l),
(310,59,l),
(525,35,l),
(586,538,l),
(524,643,l)
);
},
{
closed = 1;
nodes = (
(476,0,l),
(525,35,l),
(403,60,l),
(173,101,l),
(103,193,l),
(34,163,l),
(48,129,l),
(132,0,l)
);
},
{
closed = 1;
nodes = (
(88,649,l),
(53,419,l),
(139,375,l),
(287,564,l),
(191,653,l)
);
},
{
closed = 1;
nodes = (
(88,649,l),
(489,460,l),
(539,498,l),
(481,626,l),
(229,700,l),
(166,700,l)
);
},
{
closed = 1;
nodes = (
(53,419,l),
(56,348,l),
(81,298,l),
(449,312,l),
(482,338,l),
(449,375,l)
);
},
{
closed = 1;
nodes = (
(20,129,l),
(101,92,l),
(194,85,l),
(230,188,l),
(219,260,l),
(60,236,l)
);
}
);
width = 616;
},
{
layerId = m002;
shapes = (
{
closed = 1;
nodes = (
(354,700,l),
(272,660,l),
(356,538,l),
(392,502,l),
(438,257,l),
(420,163,l),
(310,59,l),
(525,35,l),
(586,538,l),
(524,643,l)
);
},
{
closed = 1;
nodes = (
(476,0,l),
(525,35,l),
(403,60,l),
(173,101,l),
(103,193,l),
(34,163,l),
(48,129,l),
(132,0,l)
);
},
{
closed = 1;
nodes = (
(88,649,l),
(53,419,l),
(139,375,l),
(287,564,l),
(191,653,l)
);
},
{
closed = 1;
nodes = (
(88,649,l),
(489,460,l),
(539,498,l),
(481,626,l),
(229,700,l),
(166,700,l)
);
},
{
closed = 1;
nodes = (
(53,419,l),
(56,348,l),
(81,298,l),
(449,312,l),
(482,338,l),
(449,375,l)
);
},
{
closed = 1;
nodes = (
(20,129,l),
(101,92,l),
(194,85,l),
(230,188,l),
(219,260,l),
(60,236,l)
);
}
);
width = 616;
}
);
metricLeft = O;
metricRight = D;
unicode = 399;
},
{
glyphname = F;
kernLeft = A;
lastChange = "2024-05-20 13:11:06 +0000";
layers = (
{
layerId = m01;
shapes = (
{
closed = 1;
nodes = (
(131,28,l),
(273,48,l),
(259,488,l),
(212,523,l),
(440,530,l),
(578,629,l),
(562,700,l),
(302,700,l),
(232,678,l),
(217,700,l),
(157,700,l),
(80,551,l),
(112,204,l),
(80,40,l)
);
},
{
closed = 1;
nodes = (
(321,0,l),
(319,75,l),
(242,148,l),
(80,40,l),
(116,0,l)
);
},
{
closed = 1;
nodes = (
(80,244,l),
(240,244,l),
(314,244,l),
(382,244,l),
(517,346,l),
(480,428,l),
(115,334,l),
(68,277,l)
);
},
{
closed = 1;
nodes = (
(259,562,l),
(259,639,l),
(157,700,l),
(62,642,l),
(44,551,l),
(120,540,l)
);
}
);
width = 578;
},
{
layerId = m002;
shapes = (
{
closed = 1;
nodes = (
(131,28,l),
(273,48,l),
(259,488,l),
(212,523,l),
(440,530,l),
(578,629,l),
(562,700,l),
(302,700,l),
(232,678,l),
(217,700,l),
(157,700,l),
(80,551,l),
(112,204,l),
(80,40,l)
);
},
{
closed = 1;
nodes = (
(321,0,l),
(319,75,l),
(242,148,l),
(80,40,l),
(116,0,l)
);
},
{
closed = 1;
nodes = (
(80,244,l),
(240,244,l),
(314,244,l),
(382,244,l),
(517,346,l),
(480,428,l),
(115,334,l),
(68,277,l)
);
},
{
closed = 1;
nodes = (
(259,562,l),
(259,639,l),
(157,700,l),
(62,642,l),
(44,551,l),
(120,540,l)
);
}
);
width = 578;
}
);
metricLeft = B;
unicode = 70;
},
{
glyphname = G;
kernLeft = O;
lastChange = "2024-05-20 13:11:06 +0000";
layers = (
{
anchors = (
{
name = bottom;
pos = (270,0);
},
{
name = top;
pos = (326,731);
}
);
layerId = m01;
shapes = (
{
closed = 1;
nodes = (
(121,31,l),
(195,84,l),
(206,145,l),
(195,517,l),
(168,562,l),
(237,580,l),
(300,663,l),
(171,700,l),
(23,622,l),
(20,84,l)
);
},
{
closed = 1;
nodes = (
(312,0,l),
(364,50,l),
(455,124,l),
(20,84,l),
(97,0,l)
);
},
{
closed = 1;
nodes = (
(524,0,l),
(567,162,l),
(465,290,l),
(407,278,l),
(394,104,l),
(329,34,l),
(445,0,l)
);
},
{
closed = 1;
nodes = (
(554,227,l),
(554,345,l),
(319,345,l),
(326,266,l),
(371,223,l)
);
},
{
closed = 1;
nodes = (
(554,583,l),
(451,600,l),
(407,574,l),
(358,527,l),
(385,452,l),
(524,410,l)
);
},
{
closed = 1;
nodes = (
(444,562,l),
(554,583,l),
(496,700,l),
(300,700,l),
(218,654,l),
(168,562,l)
);
}
);
width = 603;
},
{
anchors = (
{
name = bottom;
pos = (270,0);
},
{
name = top;
pos = (326,731);
}
);
layerId = m002;
shapes = (
{
closed = 1;
nodes = (
(121,31,l),
(195,84,l),
(206,145,l),
(195,517,l),
(168,562,l),
(237,580,l),
(300,663,l),
(171,700,l),
(23,622,l),
(20,84,l)
);
},
{
closed = 1;
nodes = (
(312,0,l),
(364,50,l),
(455,124,l),
(20,84,l),
(97,0,l)
);
},
{
closed = 1;
nodes = (
(524,0,l),
(567,162,l),
(465,290,l),
(407,278,l),
(394,104,l),
(329,34,l),
(445,0,l)
);
},
{
closed = 1;
nodes = (
(554,227,l),
(554,345,l),
(319,345,l),
(326,266,l),
(371,223,l)
);
},
{
closed = 1;
nodes = (
(554,583,l),
(451,600,l),
(407,574,l),
(358,527,l),
(385,452,l),
(524,410,l)
);
},
{
closed = 1;
nodes = (
(444,562,l),
(554,583,l),
(496,700,l),
(300,700,l),
(218,654,l),
(168,562,l)
);
}
);
width = 603;
}
);
metricLeft = O;
unicode = 71;
},
{
glyphname = H;
kernLeft = A;
kernRight = M;
lastChange = "2024-05-20 13:11:06 +0000";
layers = (
{
anchors = (
{
name = top;
pos = (356,694);
}
);
layerId = m01;
shapes = (
{
closed = 1;
nodes = (
(114,0,l),
(275,0,l),
(263,504,l),
(299,693,l),
(106,652,l),
(121,152,l),
(87,27,l)
);
},
{
closed = 1;
nodes = (
(240,244,l),
(259,390,l),
(164,384,l),
(66,352,l),
(71,199,l)
);
},
{
closed = 1;
nodes = (
(510,313,l),
(520,416,l),
(169,366,l),
(187,224,l)
);
},
{
closed = 1;
nodes = (
(240,544,l),
(299,693,l),
(143,713,l),
(44,681,l),
(49,528,l)
);
},
{
closed = 1;
nodes = (
(605,1,l),
(592,525,l),
(592,695,l),
(428,624,l),
(432,91,l),
(420,41,l),
(468,0,l)
);
},
{
closed = 1;
nodes = (
(408,652,l),
(448,556,l),
(572,548,l),
(628,597,l),
(624,696,l),
(428,692,l)
);
}
);
width = 628;
},
{
anchors = (
{
name = top;
pos = (356,694);
}
);
layerId = m002;
shapes = (
{
closed = 1;
nodes = (
(114,0,l),
(275,0,l),
(263,504,l),
(299,693,l),
(106,652,l),
(121,152,l),
(87,27,l)
);
},
{
closed = 1;
nodes = (
(240,244,l),
(259,390,l),
(164,384,l),
(66,352,l),
(71,199,l)
);
},
{
closed = 1;
nodes = (
(510,313,l),
(520,416,l),
(169,366,l),
(187,224,l)
);
},
{
closed = 1;
nodes = (
(240,544,l),
(299,693,l),
(143,713,l),
(44,681,l),
(49,528,l)
);
},
{
closed = 1;
nodes = (
(605,1,l),
(592,525,l),
(592,695,l),
(428,624,l),
(432,91,l),
(420,41,l),
(468,0,l)
);
},
{
closed = 1;
nodes = (
(408,652,l),
(448,556,l),
(572,548,l),
(628,597,l),
(624,696,l),
(428,692,l)
);
}
);
width = 628;
}
);
metricLeft = B;
unicode = 72;
},
{
glyphname = Hbar;
kernLeft = A;
kernRight = M;
lastChange = "2024-05-20 13:11:06 +0000";
layers = (
{
layerId = m01;
shapes = (
{
closed = 1;
nodes = (
(500,271,l),
(510,374,l),
(160,324,l),
(177,182,l)
);
},
{
closed = 1;
nodes = (
(596,0,l),
(582,495,l),
(578,685,l),
(539,700,l),
(411,700,l),
(422,91,l),
(410,41,l),
(459,0,l)
);
},
{
closed = 1;
nodes = (
(616,454,l),
(625,556,l),
(160,508,l),
(177,366,l)
);
},
{
closed = 1;
nodes = (
(219,372,l),
(237,518,l),
(143,511,l),
(44,479,l),
(49,326,l)
);
},
{
closed = 1;
nodes = (
(262,700,l),
(96,700,l),
(109,191,l),
(77,27,l),
(104,0,l),
(265,0,l),
(253,474,l),
(284,678,l)
);
}
);
width = 625;
},
{
layerId = m002;
shapes = (
{
closed = 1;
nodes = (
(500,271,l),
(510,374,l),
(160,324,l),
(177,182,l)
);
},
{
closed = 1;
nodes = (
(596,0,l),
(582,495,l),
(578,685,l),
(539,700,l),
(411,700,l),
(422,91,l),
(410,41,l),
(459,0,l)
);
},
{
closed = 1;
nodes = (
(616,454,l),
(625,556,l),
(160,508,l),
(177,366,l)
);
},
{
closed = 1;
nodes = (
(219,372,l),
(237,518,l),
(143,511,l),
(44,479,l),
(49,326,l)
);
},
{
closed = 1;
nodes = (
(262,700,l),
(96,700,l),
(109,191,l),
(77,27,l),
(104,0,l),
(265,0,l),
(253,474,l),
(284,678,l)
);
}
);
width = 625;
}
);
metricLeft = H;
metricRight = H;
unicode = 294;
},
{
glyphname = I;
kernLeft = A;
lastChange = "2024-05-20 13:11:06 +0000";
layers = (
{
anchors = (
{
name = bottom;
pos = (170,0);
},
{
name = ogonek;
pos = (312,8);
},
{
name = top;
pos = (179,726);
},
{
name = topleft;
pos = (7,680);
}
);
layerId = m01;
shapes = (
{
closed = 1;
nodes = (
(34,607,l),
(61,567,l),
(113,561,l),
(163,615,l),
(239,685,l),
(207,700,l),
(84,700,l),
(30,680,l)
);
},
{
closed = 1;
nodes = (
(87,0,l),
(235,14,l),
(236,488,l),
(288,672,l),
(267,703,l),
(78,646,l),
(77,164,l),
(46,28,l)
);
},
{
closed = 1;
nodes = (
(225,140,l),
(111,174,l),
(80,132,l),
(170,79,l),
(87,0,l),
(254,0,l),
(259,17,l),
(263,90,l)
);
}
);
width = 318;
},
{
anchors = (
{
name = bottom;
pos = (170,0);
},
{
name = ogonek;
pos = (312,8);
},
{
name = top;
pos = (179,726);
},
{
name = topleft;
pos = (7,680);
}
);
layerId = m002;
shapes = (
{
closed = 1;
nodes = (
(34,607,l),
(61,567,l),
(113,561,l),
(163,615,l),
(239,685,l),
(207,700,l),
(84,700,l),
(30,680,l)
);
},
{
closed = 1;
nodes = (
(87,0,l),
(235,14,l),
(236,488,l),
(288,672,l),
(267,703,l),
(78,646,l),
(77,164,l),
(46,28,l)
);
},
{
closed = 1;
nodes = (
(225,140,l),
(111,174,l),
(80,132,l),
(170,79,l),
(87,0,l),
(254,0,l),
(259,17,l),
(263,90,l)
);
}
);
width = 318;
}
);
unicode = 73;
},
{
glyphname = J;
kernLeft = J;
kernRight = M;
lastChange = "2024-05-20 13:11:06 +0000";
layers = (
{
anchors = (
{
name = bottom;
pos = (286,0);
},
{
name = top;
pos = (437,707);
}
);
layerId = m01;
shapes = (
{
closed = 1;
nodes = (
(487,40,l),
(508,585,l),
(547,631,l),
(552,663,l),
(527,700,l),
(319,700,l),
(298,628,l),
(331,555,l),
(328,422,l),
(319,44,l),
(360,0,l)
);
},
{
closed = 1;
nodes = (
(168,46,l),
(202,177,l),
(165,313,l),
(122,332,l),
(20,192,l),
(148,0,l)
);
},
{
closed = 1;
nodes = (
(482,58,l),
(400,242,l),
(138,58,l),
(148,0,l)
);
}
);
width = 573;
},
{
anchors = (
{
name = bottom;
pos = (286,0);
},
{
name = top;
pos = (437,707);
}
);
layerId = m002;
shapes = (
{
closed = 1;
nodes = (
(487,40,l),
(508,585,l),
(547,631,l),
(552,663,l),
(527,700,l),
(319,700,l),
(298,628,l),
(331,555,l),
(328,422,l),
(319,44,l),
(360,0,l)
);
},
{
closed = 1;
nodes = (
(168,46,l),
(202,177,l),
(165,313,l),
(122,332,l),
(20,192,l),
(148,0,l)
);
},
{
closed = 1;
nodes = (
(482,58,l),
(400,242,l),
(138,58,l),
(148,0,l)
);
}
);
width = 573;
}
);
unicode = 74;
},
{
glyphname = K;
kernLeft = A;
lastChange = "2024-05-20 13:11:06 +0000";
layers = (
{
anchors = (
{
name = bottom;
pos = (388,-2);
},
{
name = top;
pos = (374,695);
}
);
layerId = m01;
shapes = (
{
closed = 1;
nodes = (
(132,0,l),
(287,0,l),
(275,449,l),
(290,680,l),
(112,622,l),
(126,175,l),
(96,37,l)
);
},
{
closed = 1;
nodes = (
(565,21,l),
(489,96,l),
(525,177,l),
(442,297,l),
(357,302,l),
(228,266,l),
(265,212,l),
(360,191,l),
(447,0,l)
);
},
{
closed = 1;
nodes = (
(380,258,l),
(388,339,l),
(412,439,l),
(76,338,l),
(44,233,l),
(71,194,l)
);
},
{
closed = 1;
nodes = (
(639,563,l),
(645,671,l),
(533,702,l),
(469,671,l),
(247,310,l),
(348,266,l)
);
},
{
closed = 1;
nodes = (
(75,574,l),
(167,520,l),
(275,449,l),
(290,680,l),
(229,714,l),
(49,689,l)
);
},
{
closed = 1;
nodes = (
(447,0,l),
(579,0,l),
(615,-1,l),
(618,114,l),
(534,148,l),
(453,86,l)
);
}
);
width = 658;
},
{
anchors = (
{
name = bottom;
pos = (388,-2);
},
{
name = top;
pos = (374,695);
}
);
layerId = m002;
shapes = (
{
closed = 1;
nodes = (
(132,0,l),
(287,0,l),
(275,449,l),
(290,680,l),
(112,622,l),
(126,175,l),
(96,37,l)
);
},
{
closed = 1;
nodes = (
(565,21,l),
(489,96,l),
(525,177,l),
(442,297,l),
(357,302,l),
(228,266,l),
(265,212,l),
(360,191,l),
(447,0,l)
);
},
{
closed = 1;
nodes = (
(380,258,l),
(388,339,l),
(412,439,l),
(76,338,l),
(44,233,l),
(71,194,l)
);
},
{
closed = 1;
nodes = (
(639,563,l),
(645,671,l),
(533,702,l),
(469,671,l),
(247,310,l),
(348,266,l)
);
},
{
closed = 1;
nodes = (
(75,574,l),
(167,520,l),
(275,449,l),
(290,680,l),
(229,714,l),
(49,689,l)
);
},
{
closed = 1;
nodes = (
(447,0,l),
(579,0,l),
(615,-1,l),
(618,114,l),
(534,148,l),
(453,86,l)
);
}
);
width = 658;
}
);
metricLeft = B;
unicode = 75;
},
{
glyphname = L;
kernLeft = A;
kernRight = L;
lastChange = "2024-05-20 13:11:06 +0000";
layers = (
{
anchors = (
{
name = bottom;
pos = (274,0);
},
{
name = center;
pos = (274,340);
},
{
name = top;
pos = (161,699);
},
{
name = topright;
pos = (499,680);
}
);
layerId = m01;
shapes = (
{
closed = 1;
nodes = (
(86,0,l),
(439,0,l),
(515,135,l),
(480,148,l),
(263,140,l),
(200,120,l),
(237,168,l),
(238,518,l),
(298,662,l),
(273,688,l),
(81,622,l),
(94,201,l),
(60,28,l)
);
},
{
closed = 1;
nodes = (
(44,700,l),
(44,609,l),
(136,559,l),
(280,641,l),
(267,700,l)
);
},
{
closed = 1;
nodes = (
(466,216,l),
(360,197,l),
(331,135,l),
(415,124,l),
(515,135,l),
(496,201,l)
);
}
);
width = 515;
},
{
anchors = (
{
name = bottom;
pos = (274,0);
},
{
name = center;
pos = (274,340);
},
{
name = top;
pos = (161,699);
},
{
name = topright;
pos = (499,680);
}
);
layerId = m002;
shapes = (
{
closed = 1;
nodes = (
(86,0,l),
(439,0,l),
(515,135,l),
(480,148,l),
(263,140,l),
(200,120,l),
(237,168,l),
(238,518,l),
(298,662,l),
(273,688,l),
(81,622,l),
(94,201,l),
(60,28,l)
);
},
{
closed = 1;
nodes = (
(44,700,l),
(44,609,l),
(136,559,l),
(280,641,l),
(267,700,l)
);
},
{
closed = 1;
nodes = (
(466,216,l),
(360,197,l),
(331,135,l),
(415,124,l),
(515,135,l),
(496,201,l)
);
}
);
width = 515;
}
);
metricLeft = B;
unicode = 76;
},
{
glyphname = Lslash;
kernLeft = A;
kernRight = L;
lastChange = "2024-05-20 13:11:06 +0000";
layers = (
{
layerId = m01;
shapes = (
{
ref = L;
},
{
closed = 1;
nodes = (
(46,308,l),
(74,269,l),
(290,291,l),
(333,378,l),
(325,408,l),
(50,393,l)
);
}
);
width = 515;
},
{
layerId = m002;
shapes = (
{
ref = L;
},
{
closed = 1;
nodes = (
(46,308,l),
(74,269,l),
(290,291,l),
(333,378,l),
(325,408,l),
(50,393,l)
);
}
);
width = 515;
}
);
metricLeft = L;
metricRight = L;
unicode = 321;
},
{
glyphname = M;
kernLeft = A;
kernRight = A;
lastChange = "2024-05-20 13:11:06 +0000";
layers = (
{
layerId = m01;
shapes = (
{
closed = 1;
nodes = (
(519,44,l),
(609,546,l),
(832,648,l),
(670,717,l),
(513,661,l),
(391,0,l)
);
},
{
closed = 1;
nodes = (
(231,0,l),
(256,65,l),
(256,178,l),
(91,143,l),
(59,90,l),
(77,0,l)
);
},
{
closed = 1;
nodes = (
(264,42,l),
(256,553,l),
(295,539,l),
(323,668,l),
(278,720,l),
(79,630,l),
(92,178,l),
(83,81,l),
(120,33,l)
);
},
{
closed = 1;
nodes = (
(801,0,l),
(792,493,l),
(832,648,l),
(645,616,l),
(624,129,l),
(595,74,l),
(624,0,l)
);
},
{
closed = 1;
nodes = (
(47,534,l),
(114,474,l),
(132,421,l),
(201,653,l),
(278,720,l),
(44,660,l)
);
},
{
closed = 1;
nodes = (
(342,702,l),
(271,653,l),
(391,0,l),
(477,186,l),
(363,681,l)
);
}
);
width = 832;
},
{
layerId = m002;
shapes = (
{
closed = 1;
nodes = (
(519,44,l),
(609,546,l),
(832,648,l),
(670,717,l),
(513,661,l),
(391,0,l)
);
},
{
closed = 1;
nodes = (
(231,0,l),
(256,65,l),
(256,178,l),
(91,143,l),
(59,90,l),
(77,0,l)
);
},
{
closed = 1;
nodes = (
(264,42,l),
(256,553,l),
(295,539,l),
(323,668,l),
(278,720,l),
(79,630,l),
(92,178,l),
(83,81,l),
(120,33,l)
);
},
{
closed = 1;
nodes = (
(801,0,l),
(792,493,l),
(832,648,l),
(645,616,l),
(624,129,l),
(595,74,l),
(624,0,l)
);
},
{
closed = 1;
nodes = (
(47,534,l),
(114,474,l),
(132,421,l),
(201,653,l),
(278,720,l),
(44,660,l)
);
},
{
closed = 1;
nodes = (
(342,702,l),
(271,653,l),
(391,0,l),
(477,186,l),
(363,681,l)
);
}
);
width = 832;
}
);
metricLeft = B;
metricRight = H;
unicode = 77;
},
{
glyphname = N;
kernLeft = A;
kernRight = N;
lastChange = "2024-05-20 13:11:06 +0000";
layers = (
{
anchors = (
{
name = bottom;
pos = (357,0);
},
{
name = top;
pos = (418,712);
}
);
layerId = m01;
shapes = (
{
closed = 1;
nodes = (
(664,0,l),
(662,501,l),
(702,650,l),
(665,700,l),
(507,700,l),
(519,221,l),
(529,147,l),
(498,203,l),
(257,700,l),
(32,700,l),
(34,625,l),
(88,579,l),
(102,178,l),
(74,31,l),
(102,0,l),
(272,0,l),
(272,426,l),
(289,384,l),
(495,0,l)
);
}
);
width = 702;
},
{
anchors = (
{
name = bottom;
pos = (357,0);
},
{
name = top;
pos = (418,712);
}
);
layerId = m002;
shapes = (
{
closed = 1;
nodes = (
(664,0,l),
(662,501,l),
(702,650,l),
(665,700,l),
(507,700,l),
(519,221,l),
(529,147,l),
(498,203,l),
(257,700,l),
(32,700,l),
(34,625,l),
(88,579,l),
(102,178,l),
(74,31,l),
(102,0,l),
(272,0,l),
(272,426,l),
(289,384,l),
(495,0,l)
);
}
);
width = 702;
}
);
metricRight = H;
unicode = 78;
},
{
glyphname = O;
kernLeft = O;
kernRight = O;
lastChange = "2024-05-20 13:11:06 +0000";
layers = (
{
anchors = (
{
name = bottom;
pos = (253,0);
},
{
name = center;
pos = (253,311);
},
{
name = ogonek;
pos = (510,9);
},
{
name = top;
pos = (293,735);
},
{
name = topleft;
pos = (-50,622);
},
{
name = topright;
pos = (556,622);
}
);
layerId = m01;
shapes = (
{
closed = 1;
nodes = (
(143,119,l),
(210,186,l),
(203,545,l),
(269,612,l),
(131,648,l),
(82,631,l),
(20,596,l),
(27,495,l),
(44,41,l),
(69,15,l)
);
},
{
closed = 1;
nodes = (
(533,41,l),
(589,558,l),
(555,664,l),
(508,699,l),
(424,683,l),
(397,618,l),
(420,541,l),
(407,129,l),
(372,132,l),
(139,133,l),
(71,25,l),
(129,-1,l),
(419,0,l)
);
},
{
closed = 1;
nodes = (
(142,576,l),
(508,598,l),
(508,699,l),
(311,699,l),
(235,680,l),
(165,699,l),
(73,683,l),
(20,596,l),
(47,561,l)
);
}
);
width = 610;
},
{
anchors = (
{
name = bottom;
pos = (253,0);
},
{
name = center;
pos = (253,311);
},
{
name = ogonek;
pos = (510,9);
},
{
name = top;
pos = (293,735);
},
{
name = topleft;
pos = (-50,622);
},
{
name = topright;
pos = (556,622);
}
);
layerId = m002;
shapes = (
{
closed = 1;
nodes = (
(143,119,l),
(210,186,l),
(203,545,l),
(269,612,l),
(131,648,l),
(82,631,l),
(20,596,l),
(27,495,l),
(44,41,l),
(69,15,l)
);
},
{
closed = 1;
nodes = (
(533,41,l),
(589,558,l),
(555,664,l),
(508,699,l),
(424,683,l),
(397,618,l),
(420,541,l),
(407,129,l),
(372,132,l),
(139,133,l),
(71,25,l),
(129,-1,l),
(419,0,l)
);
},
{
closed = 1;
nodes = (
(142,576,l),
(508,598,l),
(508,699,l),
(311,699,l),
(235,680,l),
(165,699,l),
(73,683,l),
(20,596,l),
(47,561,l)
);
}
);
width = 610;
}
);
metricLeft = C;
unicode = 79;
},
{
glyphname = Oslash;
kernLeft = O;
kernRight = O;
lastChange = "2024-05-20 13:11:06 +0000";
layers = (
{
layerId = m01;
shapes = (
{
closed = 1;
nodes = (
(193,-49,l),
(509,664,l),
(538,712,l),
(517,744,l),
(430,744,l),
(406,692,l),
(67,-33,l),
(97,-64,l)
);
},
{
closed = 1;
nodes = (
(143,119,l),
(210,186,l),
(203,545,l),
(269,612,l),
(131,648,l),
(82,631,l),
(20,596,l),
(27,495,l),
(44,41,l),
(69,15,l)
);
},
{
closed = 1;
nodes = (
(533,41,l),
(589,558,l),
(555,664,l),
(508,699,l),
(424,688,l),
(407,129,l),
(372,132,l),
(139,133,l),
(71,25,l),
(129,-1,l),
(419,0,l)
);
},
{
closed = 1;
nodes = (
(142,576,l),
(508,598,l),
(508,699,l),
(165,699,l),
(73,683,l),
(20,596,l),
(47,561,l)
);
}
);
width = 610;
},
{
layerId = m002;
shapes = (
{
closed = 1;
nodes = (
(193,-49,l),
(509,664,l),
(538,712,l),
(517,744,l),
(430,744,l),
(406,692,l),
(67,-33,l),
(97,-64,l)
);
},
{
closed = 1;
nodes = (
(143,119,l),
(210,186,l),
(203,545,l),
(269,612,l),
(131,648,l),
(82,631,l),
(20,596,l),
(27,495,l),
(44,41,l),
(69,15,l)
);
},
{
closed = 1;
nodes = (
(533,41,l),
(589,558,l),
(555,664,l),
(508,699,l),
(424,688,l),
(407,129,l),
(372,132,l),
(139,133,l),
(71,25,l),
(129,-1,l),
(419,0,l)
);
},
{
closed = 1;
nodes = (
(142,576,l),
(508,598,l),
(508,699,l),
(165,699,l),
(73,683,l),
(20,596,l),
(47,561,l)
);
}
);
width = 610;
}
);
metricLeft = O;
metricRight = O;
unicode = 216;
},
{
glyphname = OE;
kernLeft = O;
kernRight = E;
lastChange = "2024-05-20 13:11:06 +0000";
layers = (
{
anchors = (
{
name = bottom;
pos = (255,0);
},
{
name = center;
pos = (255,311);
},
{
name = ogonek;
pos = (512,9);
},
{
name = top;
pos = (420,742);
},
{
name = topleft;
pos = (-48,622);
},
{
name = topright;
pos = (558,622);
}
);
layerId = m01;
shapes = (
{
closed = 1;
nodes = (
(143,119,l),
(210,186,l),
(203,545,l),
(269,612,l),
(131,648,l),
(82,631,l),
(20,596,l),
(27,495,l),
(44,41,l),
(69,15,l)
);
},
{
closed = 1;
nodes = (
(533,41,l),
(589,558,l),
(555,664,l),
(508,699,l),
(424,688,l),
(407,129,l),
(372,132,l),
(139,133,l),
(71,25,l),
(129,-1,l),
(419,0,l)
);
},
{
closed = 1;
nodes = (
(142,576,l),
(508,598,l),
(508,699,l),
(165,699,l),
(73,683,l),
(20,596,l),
(47,561,l)
);
},
{
closed = 1;
nodes = (
(543,0,l),
(868,0,l),
(891,163,l),
(693,111,l),
(601,117,l),
(577,117,l),
(577,222,l),
(568,494,l),
(491,552,l),
(640,644,l),
(410,639,l),
(420,178,l),
(493,67,l)
);
},
{
closed = 1;
nodes = (
(725,296,l),
(854,386,l),
(840,464,l),
(436,381,l),
(440,357,l),
(436,274,l)
);
},
{
closed = 1;
nodes = (
(781,538,l),
(901,613,l),
(885,702,l),
(619,700,l),
(556,661,l),
(473,532,l)
);
},
{
closed = 1;
nodes = (
(375,700,l),
(383,591,l),
(433,557,l),
(633,628,l),
(529,700,l)
);
},
{
closed = 1;
nodes = (
(693,111,l),
(823,92,l),
(891,163,l),
(862,188,l),
(707,164,l)
);
}
);
width = 931;
},
{
anchors = (
{
name = bottom;
pos = (255,0);
},
{
name = center;
pos = (255,311);
},
{
name = ogonek;
pos = (512,9);
},
{
name = top;
pos = (420,742);
},
{
name = topleft;
pos = (-48,622);
},
{
name = topright;
pos = (558,622);
}
);
layerId = m002;
shapes = (
{
closed = 1;
nodes = (
(143,119,l),
(210,186,l),
(203,545,l),
(269,612,l),
(131,648,l),
(82,631,l),
(20,596,l),
(27,495,l),
(44,41,l),
(69,15,l)
);
},
{
closed = 1;
nodes = (
(533,41,l),
(589,558,l),
(555,664,l),
(508,699,l),
(424,688,l),
(407,129,l),
(372,132,l),
(139,133,l),
(71,25,l),
(129,-1,l),
(419,0,l)
);
},
{
closed = 1;
nodes = (
(142,576,l),
(508,598,l),
(508,699,l),
(165,699,l),
(73,683,l),
(20,596,l),
(47,561,l)
);
},
{
closed = 1;
nodes = (
(543,0,l),
(868,0,l),
(891,163,l),
(693,111,l),
(601,117,l),
(577,117,l),
(577,222,l),
(568,494,l),
(491,552,l),
(640,644,l),
(410,639,l),
(420,178,l),
(493,67,l)
);
},
{
closed = 1;
nodes = (
(725,296,l),
(854,386,l),
(840,464,l),
(436,381,l),
(440,357,l),
(436,274,l)
);
},
{
closed = 1;
nodes = (
(781,538,l),
(901,613,l),
(885,702,l),
(619,700,l),
(556,661,l),
(473,532,l)
);
},
{
closed = 1;
nodes = (
(375,700,l),
(383,591,l),
(433,557,l),
(633,628,l),
(529,700,l)
);
},
{
closed = 1;
nodes = (
(693,111,l),
(823,92,l),
(891,163,l),
(862,188,l),
(707,164,l)
);
}
);
width = 931;
}
);
metricLeft = O;
metricRight = E;
unicode = 338;
},
{
glyphname = P;
kernLeft = A;
kernRight = P;
lastChange = "2024-05-20 13:11:06 +0000";
layers = (
{
layerId = m01;
shapes = (
{
closed = 1;
nodes = (
(80,17,l),
(266,35,l),
(255,520,l),
(174,534,l),
(392,647,l),
(336,700,l),
(102,700,l),
(103,198,l),
(69,41,l)
);
},
{
closed = 1;
nodes = (
(553,258,l),
(470,394,l),
(289,310,l),
(228,302,l),
(188,296,l),
(214,211,l)
);
},
{
closed = 1;
nodes = (
(622,583,l),
(482,597,l),
(423,341,l),
(553,258,l)
);
},
{
closed = 1;
nodes = (
(580,578,l),
(622,583,l),
(549,700,l),
(465,700,l),
(281,651,l),
(152,532,l)
);
},
{
closed = 1;
nodes = (
(317,0,l),
(317,98,l),
(232,148,l),
(80,17,l),
(120,0,l)
);
},
{
closed = 1;
nodes = (
(103,546,l),
(153,546,l),
(160,651,l),
(102,700,l),
(44,675,l),
(54,567,l)
);
}
);
width = 634;
},
{
layerId = m002;
shapes = (
{
closed = 1;
nodes = (
(80,17,l),
(266,35,l),
(255,520,l),
(174,534,l),
(392,647,l),
(336,700,l),
(102,700,l),
(103,198,l),
(69,41,l)
);
},
{
closed = 1;
nodes = (
(553,258,l),
(470,394,l),
(289,310,l),
(228,302,l),
(188,296,l),
(214,211,l)
);
},
{
closed = 1;
nodes = (
(622,583,l),
(482,597,l),
(423,341,l),
(553,258,l)
);
},
{
closed = 1;
nodes = (
(580,578,l),
(622,583,l),
(549,700,l),
(465,700,l),
(281,651,l),
(152,532,l)
);
},
{
closed = 1;
nodes = (
(317,0,l),
(317,98,l),
(232,148,l),
(80,17,l),
(120,0,l)
);
},
{
closed = 1;
nodes = (
(103,546,l),
(153,546,l),
(160,651,l),
(102,700,l),
(44,675,l),
(54,567,l)
);
}
);
width = 634;
}
);
metricLeft = B;
unicode = 80;
},
{
glyphname = Thorn;
kernLeft = A;
lastChange = "2024-05-20 13:11:06 +0000";
layers = (
{
layerId = m01;
shapes = (
{
closed = 1;
nodes = (
(34,607,l),
(61,567,l),
(113,561,l),
(163,615,l),
(254,668,l),
(282,703,l),
(94,704,l),
(30,680,l)
);
},
{
closed = 1;
nodes = (
(87,0,l),
(246,0,l),
(241,476,l),
(297,671,l),
(282,703,l),
(78,646,l),
(77,164,l),
(46,28,l)
);
},
{
closed = 1;
nodes = (
(240,121,l),
(111,174,l),
(80,132,l),
(170,32,l),
(246,0,l),
(273,6,l),
(279,43,l),
(283,94,l)
);
},
{
closed = 1;
nodes = (
(353,144,l),
(478,144,l),
(414,268,l),
(171,259,l),
(191,213,l)
);
},
{
closed = 1;
nodes = (
(566,457,l),
(426,470,l),
(389,308,l),
(329,227,l),
(478,144,l)
);
},
{
closed = 1;
nodes = (
(525,451,l),
(566,457,l),
(505,558,l),
(257,549,l),
(212,422,l)
);
}
);
width = 595;
},
{
layerId = m002;
shapes = (
{
closed = 1;
nodes = (
(34,607,l),
(61,567,l),
(113,561,l),
(163,615,l),
(254,668,l),
(282,703,l),
(94,704,l),
(30,680,l)
);
},
{
closed = 1;
nodes = (
(87,0,l),
(246,0,l),
(241,476,l),
(297,671,l),
(282,703,l),
(78,646,l),
(77,164,l),
(46,28,l)
);
},
{
closed = 1;
nodes = (
(240,121,l),
(111,174,l),
(80,132,l),
(170,32,l),
(246,0,l),
(273,6,l),
(279,43,l),
(283,94,l)
);
},
{
closed = 1;
nodes = (
(353,144,l),
(478,144,l),
(414,268,l),
(171,259,l),
(191,213,l)
);
},
{
closed = 1;
nodes = (
(566,457,l),
(426,470,l),
(389,308,l),
(329,227,l),
(478,144,l)
);
},
{
closed = 1;
nodes = (
(525,451,l),
(566,457,l),
(505,558,l),
(257,549,l),
(212,422,l)
);
}
);
width = 595;
}
);
metricLeft = I;
metricRight = A;
unicode = 222;
},
{
glyphname = Q;
kernLeft = O;
kernRight = O;
lastChange = "2024-05-20 13:11:06 +0000";
layers = (
{
layerId = m01;
shapes = (
{
closed = 1;
nodes = (
(170,532,l),
(357,662,l),
(188,700,l),
(20,622,l),
(32,168,l),
(37,97,l),
(192,55,l)
);
},
{
closed = 1;
nodes = (
(486,0,l),
(572,57,l),
(591,569,l),
(441,542,l),
(477,502,l),
(435,428,l),
(415,114,l),
(69,122,l),
(119,0,l)
);
},
{
closed = 1;
nodes = (
(532,-33,l),
(400,128,l),
(372,236,l),
(249,266,l),
(213,226,l),
(397,-61,l),
(496,-86,l)
);
},
{
closed = 1;
nodes = (
(279,535,l),
(564,544,l),
(591,569,l),
(518,699,l),
(307,700,l),
(213,580,l)
);
}
);
width = 612;
},
{
layerId = m002;
shapes = (
{
closed = 1;
nodes = (
(170,532,l),
(357,662,l),
(188,700,l),
(20,622,l),
(32,168,l),
(37,97,l),
(192,55,l)
);
},
{
closed = 1;
nodes = (
(486,0,l),
(572,57,l),
(591,569,l),
(441,542,l),
(477,502,l),
(435,428,l),
(415,114,l),
(69,122,l),
(119,0,l)
);
},
{
closed = 1;
nodes = (
(532,-33,l),
(400,128,l),
(372,236,l),
(249,266,l),
(213,226,l),
(397,-61,l),
(496,-86,l)
);
},
{
closed = 1;
nodes = (
(279,535,l),
(564,544,l),
(591,569,l),
(518,699,l),
(307,700,l),
(213,580,l)
);
}
);
width = 612;
}
);
metricLeft = O;
metricRight = O;
unicode = 81;
},
{
glyphname = R;
kernLeft = A;
lastChange = "2024-05-20 13:11:06 +0000";
layers = (
{
anchors = (
{
name = bottom;
pos = (321,0);
},
{
name = top;
pos = (354,700);
}
);
layerId = m01;
shapes = (
{
closed = 1;
nodes = (
(123,0,l),
(270,0,l),
(261,492,l),
(202,529,l),
(311,660,l),
(92,622,l),
(105,136,l),
(86,67,l)
);
},
{
closed = 1;
nodes = (
(563,-62,l),
(553,62,l),
(478,184,l),
(353,197,l),
(406,245,l),
(267,194,l),
(451,-93,l)
);
},
{
closed = 1;
nodes = (
(547,242,l),
(559,322,l),
(306,285,l),
(187,144,l)
);
},
{
closed = 1;
nodes = (
(637,592,l),
(569,652,l),
(479,618,l),
(433,296,l),
(547,242,l)
);
},
{
closed = 1;
nodes = (
(600,607,l),
(637,592,l),
(563,700,l),
(326,698,l),
(191,522,l)
);
},
{
closed = 1;
nodes = (
(70,536,l),
(139,460,l),
(232,444,l),
(126,558,l),
(322,662,l),
(174,700,l),
(44,651,l)
);
},
{
closed = 1;
nodes = (
(451,-93,l),
(570,-82,l),
(610,-52,l),
(608,26,l),
(595,42,l),
(501,42,l)
);
}
);
width = 637;
},
{
anchors = (
{
name = bottom;
pos = (321,0);
},
{
name = top;
pos = (354,700);
}
);
layerId = m002;
shapes = (
{
closed = 1;
nodes = (
(123,0,l),
(270,0,l),
(261,492,l),
(202,529,l),
(311,660,l),
(92,622,l),
(105,136,l),
(86,67,l)
);
},
{
closed = 1;
nodes = (
(563,-62,l),
(553,62,l),
(478,184,l),
(353,197,l),
(406,245,l),
(267,194,l),
(451,-93,l)
);
},
{
closed = 1;
nodes = (
(547,242,l),
(559,322,l),
(306,285,l),
(187,144,l)
);
},
{
closed = 1;
nodes = (
(637,592,l),
(569,652,l),
(479,618,l),
(433,296,l),
(547,242,l)
);
},
{
closed = 1;
nodes = (
(600,607,l),
(637,592,l),
(563,700,l),
(326,698,l),
(191,522,l)
);
},
{
closed = 1;
nodes = (
(70,536,l),
(139,460,l),
(232,444,l),
(126,558,l),
(322,662,l),
(174,700,l),
(44,651,l)
);
},
{
closed = 1;
nodes = (
(451,-93,l),
(570,-82,l),
(610,-52,l),
(608,26,l),
(595,42,l),
(501,42,l)
);
}
);
width = 637;
}
);
metricLeft = B;
unicode = 82;
},
{
glyphname = S;
kernLeft = S;
kernRight = S;
lastChange = "2024-05-20 13:11:06 +0000";
layers = (
{
anchors = (
{
name = bottom;
pos = (292,0);
},
{
name = top;
pos = (295,714);
}
);
layerId = m01;
shapes = (
{
closed = 1;
nodes = (
(173,377,l),
(212,417,l),
(198,667,l),
(179,673,l),
(59,625,l),
(28,335,l),
(154,331,l),
(217,331,l)
);
},
{
closed = 1;
nodes = (
(495,49,l),
(386,100,l),
(203,129,l),
(194,157,l),
(144,172,l),
(56,129,l),
(55,1,l),
(446,0,l)
);
},
{
closed = 1;
nodes = (
(495,49,l),
(513,366,l),
(374,335,l),
(374,261,l),
(352,219,l),
(338,56,l)
);
},
{
closed = 1;
nodes = (
(513,366,l),
(431,430,l),
(70,355,l),
(67,291,l),
(374,261,l),
(429,286,l)
);
},
{
closed = 1;
nodes = (
(493,493,l),
(559,649,l),
(454,700,l),
(193,698,l),
(146,700,l),
(111,622,l),
(175,561,l),
(348,590,l),
(389,456,l)
);
}
);
width = 579;
},
{
anchors = (
{
name = bottom;
pos = (292,0);
},
{
name = top;
pos = (295,714);
}
);
layerId = m002;
shapes = (
{
closed = 1;
nodes = (
(173,377,l),
(212,417,l),
(198,667,l),
(179,673,l),
(59,625,l),
(28,335,l),
(154,331,l),
(217,331,l)
);
},
{
closed = 1;
nodes = (
(495,49,l),
(386,100,l),
(203,129,l),
(194,157,l),
(144,172,l),
(56,129,l),
(55,1,l),
(446,0,l)
);
},
{
closed = 1;
nodes = (
(495,49,l),
(513,366,l),
(374,335,l),
(374,261,l),
(352,219,l),
(338,56,l)
);
},
{
closed = 1;
nodes = (
(513,366,l),
(431,430,l),
(70,355,l),
(67,291,l),
(374,261,l),
(429,286,l)
);
},
{
closed = 1;
nodes = (
(493,493,l),
(559,649,l),
(454,700,l),
(193,698,l),
(146,700,l),
(111,622,l),
(175,561,l),
(348,590,l),
(389,456,l)
);
}
);
width = 579;
}
);
unicode = 83;
},
{
glyphname = Germandbls;
kernLeft = A;
lastChange = "2024-05-20 13:11:06 +0000";
layers = (
{
layerId = m01;
shapes = (
{
closed = 1;
nodes = (
(311,0,l),
(307,64,l),
(276,113,l),
(284,464,l),
(186,580,l),
(154,671,l),
(109,609,l),
(113,105,l),
(89,46,l),
(113,0,l)
);
},
{
closed = 1;
nodes = (
(276,395,l),
(268,463,l),
(200,506,l),
(74,471,l),
(44,441,l),
(100,342,l)
);
},
{
closed = 1;
nodes = (
(593,3,l),
(641,115,l),
(672,287,l),
(554,385,l),
(446,436,l),
(367,376,l),
(378,280,l),
(422,285,l),
(552,301,l),
(564,265,l),
(475,130,l),
(398,179,l),
(332,198,l),
(312,123,l),
(417,-19,l)
);
},
{
closed = 1;
nodes = (
(529,434,l),
(589,478,l),
(600,626,l),
(465,696,l),
(296,672,l),
(312,585,l),
(432,570,l),
(457,567,l),
(493,554,l),
(423,493,l),
(396,446,l),
(367,376,l)
);
},
{
closed = 1;
nodes = (
(465,696,l),
(221,708,l),
(136,681,l),
(109,609,l),
(185,549,l),
(432,570,l)
);
}
);
width = 680;
},
{
layerId = m002;
shapes = (
{
closed = 1;
nodes = (
(311,0,l),
(307,64,l),
(276,113,l),
(284,464,l),
(186,580,l),
(154,671,l),
(109,609,l),
(113,105,l),
(89,46,l),
(113,0,l)
);
},
{
closed = 1;
nodes = (
(276,395,l),
(268,463,l),
(200,506,l),
(74,471,l),
(44,441,l),
(100,342,l)
);
},
{
closed = 1;
nodes = (
(593,3,l),
(641,115,l),
(672,287,l),
(554,385,l),
(446,436,l),
(367,376,l),
(378,280,l),
(422,285,l),
(552,301,l),
(564,265,l),
(475,130,l),
(398,179,l),
(332,198,l),
(312,123,l),
(417,-19,l)
);
},
{
closed = 1;
nodes = (
(529,434,l),
(589,478,l),
(600,626,l),
(465,696,l),
(296,672,l),
(312,585,l),
(432,570,l),
(457,567,l),
(493,554,l),
(423,493,l),
(396,446,l),
(367,376,l)
);
},
{
closed = 1;
nodes = (
(465,696,l),
(221,708,l),
(136,681,l),
(109,609,l),
(185,549,l),
(432,570,l)
);
}
);
width = 680;
}
);
metricLeft = E;
metricRight = B;
unicode = 7838;
},
{
glyphname = T;
kernLeft = T;
kernRight = T;
lastChange = "2024-05-20 13:11:06 +0000";
layers = (
{
anchors = (
{
name = bottom;
pos = (322,22);
},
{
name = center;
pos = (283,340);
},
{
name = top;
pos = (283,697);
}
);
layerId = m01;
shapes = (
{
closed = 1;
nodes = (
(404,0,l),
(416,56,l),
(416,107,l),
(383,134,l),
(378,502,l),
(342,546,l),
(374,602,l),
(205,573,l),
(207,508,l),
(218,142,l),
(191,0,l),
(249,0,l)
);
},
{
closed = 1;
nodes = (
(283,544,l),
(541,562,l),
(590,630,l),
(546,700,l),
(41,658,l),
(5,559,l),
(50,529,l)
);
},
{
closed = 1;
nodes = (
(546,635,l),
(546,700,l),
(93,700,l),
(69,630,l)
);
},
{
closed = 1;
nodes = (
(177,0,l),
(249,0,l),
(271,16,l),
(271,149,l),
(173,69,l)
);
}
);
width = 590;
},
{
anchors = (
{
name = bottom;
pos = (322,22);
},
{
name = center;
pos = (283,340);
},
{
name = top;
pos = (283,697);
}
);
layerId = m002;
shapes = (
{
closed = 1;
nodes = (
(404,0,l),
(416,56,l),
(416,107,l),
(383,134,l),
(378,502,l),
(342,546,l),
(374,602,l),
(205,573,l),
(207,508,l),
(218,142,l),
(191,0,l),
(249,0,l)
);
},
{
closed = 1;
nodes = (
(283,544,l),
(541,562,l),
(590,630,l),
(546,700,l),
(41,658,l),
(5,559,l),
(50,529,l)
);
},
{
closed = 1;
nodes = (
(546,635,l),
(546,700,l),
(93,700,l),
(69,630,l)
);
},
{
closed = 1;
nodes = (
(177,0,l),
(249,0,l),
(271,16,l),
(271,149,l),
(173,69,l)
);
}
);
width = 590;
}
);
unicode = 84;
},
{
glyphname = U;
kernRight = N;
lastChange = "2024-05-20 13:11:06 +0000";
layers = (
{
anchors = (
{
name = bottom;
pos = (363,0);
},
{
name = ogonek;
pos = (613,8);
},
{
name = top;
pos = (381,730);
},
{
name = topright;
pos = (659,680);
}
);
layerId = m01;
shapes = (
{
closed = 1;
nodes = (
(612,98,l),
(621,510,l),
(648,655,l),
(610,697,l),
(456,646,l),
(464,137,l),
(464,70,l),
(286,138,l),
(287,167,l),
(281,551,l),
(299,642,l),
(266,706,l),
(94,622,l),
(101,219,l),
(101,68,l),
(169,52,l),
(169,0,l),
(544,0,l)
);
},
{
closed = 1;
nodes = (
(122,494,l),
(228,554,l),
(266,706,l),
(130,683,l),
(53,650,l),
(44,571,l)
);
}
);
width = 648;
},
{
anchors = (
{
name = bottom;
pos = (363,0);
},
{
name = ogonek;
pos = (613,8);
},
{
name = top;
pos = (381,730);
},
{
name = topright;
pos = (659,680);
}
);
layerId = m002;
shapes = (
{
closed = 1;
nodes = (
(612,98,l),
(621,510,l),
(648,655,l),
(610,697,l),
(456,646,l),
(464,137,l),
(464,70,l),
(286,138,l),
(287,167,l),
(281,551,l),
(299,642,l),
(266,706,l),
(94,622,l),
(101,219,l),
(101,68,l),
(169,52,l),
(169,0,l),
(544,0,l)
);
},
{
closed = 1;
nodes = (
(122,494,l),
(228,554,l),
(266,706,l),
(130,683,l),
(53,650,l),
(44,571,l)
);
}
);
width = 648;
}
);
metricLeft = B;
metricRight = H;
unicode = 85;
},
{
glyphname = V;
kernLeft = V;
kernRight = V;
lastChange = "2024-05-20 13:11:06 +0000";
layers = (
{
layerId = m01;
shapes = (
{
closed = 1;
nodes = (
(675,622,l),
(650,700,l),
(559,700,l),
(482,700,l),
(411,520,l),
(478,439,l),
(363,201,l),
(237,274,l),
(361,-47,l)
);
},
{
closed = 1;
nodes = (
(351,87,l),
(184,546,l),
(198,631,l),
(171,665,l),
(11,574,l),
(162,78,l),
(361,-47,l)
);
},
{
closed = 1;
nodes = (
(231,561,l),
(266,634,l),
(246,700,l),
(54,700,l),
(11,574,l),
(69,514,l)
);
}
);
width = 678;
},
{
layerId = m002;
shapes = (
{
closed = 1;
nodes = (
(675,622,l),
(650,700,l),
(559,700,l),
(482,700,l),
(411,520,l),
(478,439,l),
(363,201,l),
(237,274,l),
(361,-47,l)
);
},
{
closed = 1;
nodes = (
(351,87,l),
(184,546,l),
(198,631,l),
(171,665,l),
(11,574,l),
(162,78,l),
(361,-47,l)
);
},
{
closed = 1;
nodes = (
(231,561,l),
(266,634,l),
(246,700,l),
(54,700,l),
(11,574,l),
(69,514,l)
);
}
);
width = 678;
}
);
unicode = 86;
},
{
glyphname = W;
kernLeft = V;
kernRight = V;
lastChange = "2024-05-20 13:11:06 +0000";
layers = (
{
anchors = (
{
name = bottom;
pos = (454,0);
},
{
name = top;
pos = (454,714);
}
);
layerId = m01;
shapes = (
{
closed = 1;
nodes = (
(904,599,l),
(835,702,l),
(707,700,l),
(673,632,l),
(710,561,l),
(734,556,l),
(710,488,l),
(604,127,l),
(536,108,l),
(702,0,l)
);
},
{
closed = 1;
nodes = (
(434,113,l),
(484,241,l),
(532,362,l),
(468,447,l),
(448,480,l),
(400,480,l),
(446,304,l),
(381,215,l),
(325,139,l),
(233,0,l),
(390,0,l)
);
},
{
closed = 1;
nodes = (
(702,0,l),
(619,97,l),
(609,277,l),
(482,556,l),
(384,552,l),
(353,470,l),
(509,108,l),
(566,0,l)
);
},
{
closed = 1;
nodes = (
(345,87,l),
(204,529,l),
(170,573,l),
(165,665,l),
(11,665,l),
(156,78,l),
(233,0,l)
);
},
{
closed = 1;
nodes = (
(191,561,l),
(242,644,l),
(219,700,l),
(51,700,l),
(11,665,l),
(63,514,l)
);
}
);
width = 907;
},
{
anchors = (
{
name = bottom;
pos = (454,0);
},
{
name = top;
pos = (454,714);
}
);
layerId = m002;
shapes = (
{
closed = 1;
nodes = (
(904,599,l),
(835,702,l),
(707,700,l),
(673,632,l),
(710,561,l),
(734,556,l),
(710,488,l),
(604,127,l),
(536,108,l),
(702,0,l)
);
},
{
closed = 1;
nodes = (
(434,113,l),
(484,241,l),
(532,362,l),
(468,447,l),
(448,480,l),
(400,480,l),
(446,304,l),
(381,215,l),
(325,139,l),
(233,0,l),
(390,0,l)
);
},
{
closed = 1;
nodes = (
(702,0,l),
(619,97,l),
(609,277,l),
(482,556,l),
(384,552,l),
(353,470,l),
(509,108,l),
(566,0,l)
);
},
{
closed = 1;
nodes = (
(345,87,l),
(204,529,l),
(170,573,l),
(165,665,l),
(11,665,l),
(156,78,l),
(233,0,l)
);
},
{
closed = 1;
nodes = (
(191,561,l),
(242,644,l),
(219,700,l),
(51,700,l),
(11,665,l),
(63,514,l)
);
}
);
width = 907;
}
);
metricLeft = V;
metricRight = V;
unicode = 87;
},
{
glyphname = X;
lastChange = "2024-05-20 13:11:06 +0000";
layers = (
{
layerId = m01;
shapes = (
{
closed = 1;
nodes = (
(532,0,l),
(567,67,l),
(501,182,l),
(260,619,l),
(260,678,l),
(225,700,l),
(112,700,l),
(61,668,l),
(58,576,l),
(375,58,l),
(375,0,l),
(482,0,l)
);
},
{
closed = 1;
nodes = (
(212,0,l),
(260,158,l),
(225,236,l),
(250,289,l),
(216,385,l),
(150,289,l),
(75,165,l),
(30,50,l),
(47,16,l),
(88,0,l)
);
},
{
closed = 1;
nodes = (
(386,291,l),
(486,407,l),
(576,521,l),
(605,665,l),
(580,700,l),
(471,700,l),
(395,634,l),
(354,507,l),
(386,471,l),
(340,383,l)
);
}
);
width = 618;
},
{
layerId = m002;
shapes = (
{
closed = 1;
nodes = (
(532,0,l),
(567,67,l),
(501,182,l),
(260,619,l),
(260,678,l),
(225,700,l),
(112,700,l),
(61,668,l),
(58,576,l),
(375,58,l),
(375,0,l),
(482,0,l)
);
},
{
closed = 1;
nodes = (
(212,0,l),
(260,158,l),
(225,236,l),
(250,289,l),
(216,385,l),
(150,289,l),
(75,165,l),
(30,50,l),
(47,16,l),
(88,0,l)
);
},
{
closed = 1;
nodes = (
(386,291,l),
(486,407,l),
(576,521,l),
(605,665,l),
(580,700,l),
(471,700,l),
(395,634,l),
(354,507,l),
(386,471,l),
(340,383,l)
);
}
);
width = 618;
}
);
metricLeft = I;
metricRight = K;
unicode = 88;
},
{
glyphname = Y;
kernLeft = V;
kernRight = Y;
lastChange = "2024-05-20 13:11:06 +0000";
layers = (
{
anchors = (
{
name = bottom;
pos = (282,0);
},
{
name = top;
pos = (311,714);
},
{
name = topleft;
pos = (11,680);
}
);
layerId = m01;
shapes = (
{
closed = 1;
nodes = (
(361,238,l),
(561,627,l),
(540,700,l),
(423,700,l),
(381,674,l),
(235,253,l)
);
},
{
closed = 1;
nodes = (
(381,32,l),
(346,160,l),
(392,398,l),
(177,296,l),
(220,177,l),
(184,30,l),
(220,0,l),
(365,0,l)
);
},
{
closed = 1;
nodes = (
(269,263,l),
(187,561,l),
(96,582,l),
(115,653,l),
(11,558,l),
(130,262,l)
);
},
{
closed = 1;
nodes = (
(214,582,l),
(247,628,l),
(247,700,l),
(31,700,l),
(11,558,l)
);
}
);
width = 569;
},
{
anchors = (
{
name = bottom;
pos = (282,0);
},
{
name = top;
pos = (311,714);
},
{
name = topleft;
pos = (11,680);
}
);
layerId = m002;
shapes = (
{
closed = 1;
nodes = (
(361,238,l),
(561,627,l),
(540,700,l),
(423,700,l),
(381,674,l),
(235,253,l)
);
},
{
closed = 1;
nodes = (
(381,32,l),
(346,160,l),
(392,398,l),
(177,296,l),
(220,177,l),
(184,30,l),
(220,0,l),
(365,0,l)
);
},
{
closed = 1;
nodes = (
(269,263,l),
(187,561,l),
(96,582,l),
(115,653,l),
(11,558,l),
(130,262,l)
);
},
{
closed = 1;
nodes = (
(214,582,l),
(247,628,l),
(247,700,l),
(31,700,l),
(11,558,l)
);
}
);
width = 569;
}
);
metricLeft = W;
unicode = 89;
},
{
glyphname = Z;
kernRight = Z;
lastChange = "2024-05-20 13:11:06 +0000";
layers = (
{
anchors = (
{
name = bottom;
pos = (311,0);
},
{
name = center;
pos = (311,340);
},
{
name = top;
pos = (304,714);
}
);
layerId = m01;
shapes = (
{
closed = 1;
nodes = (
(189,133,l),
(306,181,l),
(592,539,l),
(545,689,l),
(392,571,l),
(414,541,l),
(30,139,l),
(50,52,l),
(192,31,l)
);
},
{
closed = 1;
nodes = (
(509,-4,l),
(540,65,l),
(125,126,l),
(50,76,l),
(30,-27,l)
);
},
{
closed = 1;
nodes = (
(573,25,l),
(592,219,l),
(541,227,l),
(445,245,l),
(380,156,l),
(406,11,l)
);
},
{
closed = 1;
nodes = (
(208,526,l),
(226,586,l),
(257,647,l),
(461,652,l),
(573,695,l),
(156,709,l),
(130,645,l),
(257,647,l),
(273,680,l),
(42,650,l),
(32,534,l),
(44,472,l)
);
},
{
closed = 1;
nodes = (
(587,656,l),
(573,695,l),
(273,680,l),
(156,610,l),
(592,539,l)
);
}
);
width = 620;
},
{
anchors = (
{
name = bottom;
pos = (311,0);
},
{
name = center;
pos = (311,340);
},
{
name = top;
pos = (304,714);
}
);
layerId = m002;
shapes = (
{
closed = 1;
nodes = (
(189,133,l),
(306,181,l),
(592,539,l),
(545,689,l),
(392,571,l),
(414,541,l),
(30,139,l),
(50,52,l),
(192,31,l)
);
},
{
closed = 1;
nodes = (
(509,-4,l),
(540,65,l),
(125,126,l),
(50,76,l),
(30,-27,l)
);
},
{
closed = 1;
nodes = (
(573,25,l),
(592,219,l),
(541,227,l),
(445,245,l),
(380,156,l),
(406,11,l)
);
},
{
closed = 1;
nodes = (
(208,526,l),
(226,586,l),
(257,647,l),
(461,652,l),
(573,695,l),
(156,709,l),
(130,645,l),
(257,647,l),
(273,680,l),
(42,650,l),
(32,534,l),
(44,472,l)
);
},
{
closed = 1;
nodes = (
(587,656,l),
(573,695,l),
(273,680,l),
(156,610,l),
(592,539,l)
);
}
);
width = 620;
}
);
unicode = 90;
},
{
glyphname = X.001;
lastChange = "2024-05-20 13:11:06 +0000";
layers = (
{
layerId = m01;
shapes = (
{
closed = 1;
nodes = (
(539,-8,l),
(529,114,l),
(474,182,l),
(258,574,l),
(215,686,l),
(145,723,l),
(43,637,l),
(31,576,l),
(384,0,l),
(449,-35,l)
);
},
{
closed = 1;
nodes = (
(257,21,l),
(225,159,l),
(257,310,l),
(123,289,l),
(75,165,l),
(30,50,l),
(47,16,l),
(95,-12,l)
);
},
{
closed = 1;
nodes = (
(258,574,l),
(215,685,l),
(145,723,l),
(71,683,l),
(83,630,l),
(155,540,l)
);
},
{
closed = 1;
nodes = (
(468,397,l),
(516,521,l),
(545,665,l),
(528,698,l),
(480,726,l),
(335,634,l),
(322,373,l)
);
}
);
width = 575;
},
{
layerId = m002;
shapes = (
{
closed = 1;
nodes = (
(539,-8,l),
(529,114,l),
(474,182,l),
(258,574,l),
(215,686,l),
(145,723,l),
(43,637,l),
(31,576,l),
(384,0,l),
(449,-35,l)
);
},
{
closed = 1;
nodes = (
(257,21,l),
(225,159,l),
(257,310,l),
(123,289,l),
(75,165,l),
(30,50,l),
(47,16,l),
(95,-12,l)
);
},
{
closed = 1;
nodes = (
(258,574,l),
(215,685,l),
(145,723,l),
(71,683,l),
(83,630,l),
(155,540,l)
);
},
{
closed = 1;
nodes = (
(468,397,l),
(516,521,l),
(545,665,l),
(528,698,l),
(480,726,l),
(335,634,l),
(322,373,l)
);
}
);
width = 575;
}
);
metricLeft = I;
metricRight = I;
},
{
glyphname = A.ss01;
kernLeft = altA1_l;
kernRight = altA1_r;
lastChange = "2024-05-20 13:11:06 +0000";
layers = (
{
anchors = (
{
name = bottom;
pos = (604,-26);
},
{
name = ogonek;
pos = (681,10);
},
{
name = top;
pos = (383,737);
}
);
layerId = m01;
shapes = (
{
closed = 1;
nodes = (
(196,0,l),
(213,28,l),
(206,115,l),
(338,430,l),
(347,597,l),
(239,605,l),
(8,-14,l)
);
},
{
closed = 1;
nodes = (
(756,45,l),
(707,117,l),
(482,681,l),
(342,715,l),
(289,681,l),
(535,99,l),
(519,21,l),
(544,-10,l),
(732,-8,l)
);
},
{
closed = 1;
nodes = (
(0,64,l),
(8,-14,l),
(152,39,l),
(152,126,l),
(98,163,l)
);
},
{
closed = 1;
nodes = (
(433,211,l),
(503,296,l),
(488,354,l),
(38,222,l),
(19,135,l),
(53,124,l)
);
}
);
width = 756;
},
{
anchors = (
{
name = bottom;
pos = (604,-26);
},
{
name = ogonek;
pos = (681,10);
},
{
name = top;
pos = (383,737);
}
);
layerId = m002;
shapes = (
{
closed = 1;
nodes = (
(196,0,l),
(213,28,l),
(206,115,l),
(338,430,l),
(347,597,l),
(239,605,l),
(8,-14,l)
);
},
{
closed = 1;
nodes = (
(756,45,l),
(707,117,l),
(482,681,l),
(342,715,l),
(289,681,l),
(535,99,l),
(519,21,l),
(544,-10,l),
(732,-8,l)
);
},
{
closed = 1;
nodes = (
(0,64,l),
(8,-14,l),
(152,39,l),
(152,126,l),
(98,163,l)
);
},
{
closed = 1;
nodes = (
(433,211,l),
(503,296,l),
(488,354,l),
(38,222,l),
(19,135,l),
(53,124,l)
);
}
);
width = 756;
}
);
},
{
glyphname = B.ss01;
kernLeft = A;
lastChange = "2024-05-20 13:11:06 +0000";
layers = (
{
layerId = m01;
shapes = (
{
closed = 1;
nodes = (
(106,44,l),
(263,80,l),
(249,519,l),
(398,657,l),
(339,711,l),
(106,622,l),
(118,203,l),
(86,65,l)
);
},
{
closed = 1;
nodes = (
(485,-1,l),
(585,25,l),
(552,142,l),
(205,133,l),
(124,63,l),
(144,0,l)
);
},
{
closed = 1;
nodes = (
(419,302,l),
(478,405,l),
(475,450,l),
(92,348,l),
(51,244,l),
(78,205,l)
);
},
{
closed = 1;
nodes = (
(628,258,l),
(558,386,l),
(433,346,l),
(537,131,l),
(585,25,l)
);
},
{
closed = 1;
nodes = (
(558,386,l),
(648,584,l),
(596,717,l),
(319,666,l),
(174,521,l),
(479,561,l),
(374,306,l)
);
},
{
closed = 1;
nodes = (
(30,647,l),
(38,538,l),
(89,505,l),
(137,510,l),
(339,711,l)
);
}
);
width = 656;
},
{
layerId = m002;
shapes = (
{
closed = 1;
nodes = (
(106,44,l),
(263,80,l),
(249,519,l),
(398,657,l),
(339,711,l),
(106,622,l),
(118,203,l),
(86,65,l)
);
},
{
closed = 1;
nodes = (
(485,-1,l),
(585,25,l),
(552,142,l),
(205,133,l),
(124,63,l),
(144,0,l)
);
},
{
closed = 1;
nodes = (
(419,302,l),
(478,405,l),
(475,450,l),
(92,348,l),
(51,244,l),
(78,205,l)
);
},
{
closed = 1;
nodes = (
(628,258,l),
(558,386,l),
(433,346,l),
(537,131,l),
(585,25,l)
);
},
{
closed = 1;
nodes = (
(558,386,l),
(648,584,l),
(596,717,l),
(319,666,l),
(174,521,l),
(479,561,l),
(374,306,l)
);
},
{
closed = 1;
nodes = (
(30,647,l),
(38,538,l),
(89,505,l),
(137,510,l),
(339,711,l)
);
}
);
width = 656;
}
);
},
{
glyphname = C.ss01;
kernLeft = O;
lastChange = "2024-05-20 13:11:06 +0000";
layers = (
{
anchors = (
{
name = bottom;
pos = (273,0);
},
{
name = top;
pos = (273,714);
}
);
layerId = m01;
shapes = (
{
closed = 1;
nodes = (
(20,441,l),
(84,35,l),
(292,35,l),
(132,490,l),
(252,538,l),
(355,662,l),
(269,694,l),
(84,596,l)
);
},
{
closed = 1;
nodes = (
(527,125,l),
(506,193,l),
(422,161,l),
(206,60,l),
(84,35,l),
(133,-20,l),
(356,-30,l)
);
},
{
closed = 1;
nodes = (
(322,564,l),
(453,494,l),
(539,538,l),
(539,626,l),
(436,630,l)
);
},
{
closed = 1;
nodes = (
(333,114,l),
(415,78,l),
(508,70,l),
(544,174,l),
(532,246,l),
(373,222,l)
);
},
{
closed = 1;
nodes = (
(398,702,l),
(146,603,l),
(70,498,l),
(120,460,l),
(539,626,l),
(442,679,l)
);
}
);
width = 560;
},
{
anchors = (
{
name = bottom;
pos = (273,0);
},
{
name = top;
pos = (273,714);
}
);
layerId = m002;
shapes = (
{
closed = 1;
nodes = (
(20,441,l),
(84,35,l),
(292,35,l),
(132,490,l),
(252,538,l),
(355,662,l),
(269,694,l),
(84,596,l)
);
},
{
closed = 1;
nodes = (
(527,125,l),
(506,193,l),
(422,161,l),
(206,60,l),
(84,35,l),
(133,-20,l),
(356,-30,l)
);
},
{
closed = 1;
nodes = (
(322,564,l),
(453,494,l),
(539,538,l),
(539,626,l),
(436,630,l)
);
},
{
closed = 1;
nodes = (
(333,114,l),
(415,78,l),
(508,70,l),
(544,174,l),
(532,246,l),
(373,222,l)
);
},
{
closed = 1;
nodes = (
(398,702,l),
(146,603,l),
(70,498,l),
(120,460,l),
(539,626,l),
(442,679,l)
);
}
);
width = 560;
}
);
},
{
glyphname = O.ss01;
kernLeft = O;
kernRight = O;
lastChange = "2024-05-20 13:11:06 +0000";
layers = (
{
anchors = (
{
name = bottom;
pos = (255,0);
},
{
name = center;
pos = (255,311);
},
{
name = ogonek;
pos = (512,9);
},
{
name = top;
pos = (295,735);
},
{
name = topleft;
pos = (-48,622);
},
{
name = topright;
pos = (558,622);
}
);
layerId = m01;
shapes = (
{
closed = 1;
nodes = (
(136,520,l),
(291,680,l),
(253,711,l),
(20,622,l),
(32,185,l),
(36,114,l),
(220,49,l)
);
},
{
closed = 1;
nodes = (
(182,-18,l),
(508,0,l),
(401,127,l),
(48,138,l),
(125,0,l)
);
},
{
closed = 1;
nodes = (
(558,569,l),
(458,577,l),
(380,97,l),
(508,0,l)
);
},
{
closed = 1;
nodes = (
(532,544,l),
(558,569,l),
(484,699,l),
(220,678,l),
(81,490,l)
);
}
);
width = 579;
},
{
anchors = (
{
name = bottom;
pos = (255,0);
},
{
name = center;
pos = (255,311);
},
{
name = ogonek;
pos = (512,9);
},
{
name = top;
pos = (295,735);
},
{
name = topleft;
pos = (-48,622);
},
{
name = topright;
pos = (558,622);
}
);
layerId = m002;
shapes = (
{
closed = 1;
nodes = (
(136,520,l),
(291,680,l),
(253,711,l),
(20,622,l),
(32,185,l),
(36,114,l),
(220,49,l)
);
},
{
closed = 1;
nodes = (
(182,-18,l),
(508,0,l),
(401,127,l),
(48,138,l),
(125,0,l)
);
},
{
closed = 1;
nodes = (
(558,569,l),
(458,577,l),
(380,97,l),
(508,0,l)
);
},
{
closed = 1;
nodes = (
(532,544,l),
(558,569,l),
(484,699,l),
(220,678,l),
(81,490,l)
);
}
);
width = 579;
}
);
metricLeft = C;
},
{
glyphname = A.ss02;
kernLeft = altA2_l;
kernRight = altA2_r;
lastChange = "2024-05-20 13:11:06 +0000";
layers = (
{
anchors = (
{
name = bottom;
pos = (540,-7);
},
{
name = ogonek;
pos = (584,10);
},
{
name = top;
pos = (504,750);
}
);
layerId = m01;
shapes = (
{
closed = 1;
nodes = (
(661,696,l),
(574,553,l),
(504,546,l),
(486,196,l),
(496,47,l),
(540,-7,l),
(660,57,l),
(666,550,l),
(697,662,l)
);
},
{
closed = 1;
nodes = (
(686,12,l),
(686,94,l),
(657,132,l),
(504,108,l),
(478,75,l),
(466,8,l),
(540,-7,l)
);
},
{
closed = 1;
nodes = (
(206,0,l),
(223,28,l),
(216,115,l),
(383,507,l),
(485,570,l),
(293,579,l),
(250,468,l),
(197,449,l),
(24,-2,l)
);
},
{
closed = 1;
nodes = (
(16,76,l),
(24,-2,l),
(162,39,l),
(162,126,l),
(108,163,l)
);
},
{
closed = 1;
nodes = (
(221,631,l),
(250,442,l),
(369,546,l),
(613,542,l),
(661,696,l),
(449,678,l),
(396,700,l)
);
},
{
closed = 1;
nodes = (
(677,265,l),
(717,339,l),
(702,397,l),
(205,250,l),
(305,174,l)
);
}
);
width = 746;
},
{
anchors = (
{
name = bottom;
pos = (540,-7);
},
{
name = ogonek;
pos = (584,10);
},
{
name = top;
pos = (504,750);
}
);
layerId = m002;
shapes = (
{
closed = 1;
nodes = (
(661,696,l),
(574,553,l),
(504,546,l),
(486,196,l),
(496,47,l),
(540,-7,l),
(660,57,l),
(666,550,l),
(697,662,l)
);
},
{
closed = 1;
nodes = (
(686,12,l),
(686,94,l),
(657,132,l),
(504,108,l),
(478,75,l),
(466,8,l),
(540,-7,l)
);
},
{
closed = 1;
nodes = (
(206,0,l),
(223,28,l),
(216,115,l),
(383,507,l),
(485,570,l),
(293,579,l),
(250,468,l),
(197,449,l),
(24,-2,l)
);
},
{
closed = 1;
nodes = (
(16,76,l),
(24,-2,l),
(162,39,l),
(162,126,l),
(108,163,l)
);
},
{
closed = 1;
nodes = (
(221,631,l),
(250,442,l),
(369,546,l),
(613,542,l),
(661,696,l),
(449,678,l),
(396,700,l)
);
},
{
closed = 1;
nodes = (
(677,265,l),
(717,339,l),
(702,397,l),
(205,250,l),
(305,174,l)
);
}
);
width = 746;
}
);
metricRight = A;
},
{
glyphname = A.ss03;
kernLeft = altA3_l;
kernRight = altA3_r;
lastChange = "2024-05-20 13:11:06 +0000";
layers = (
{
anchors = (
{
name = bottom;
pos = (627,-20);
},
{
name = ogonek;
pos = (699,10);
},
{
name = top;
pos = (360,758);
}
);
layerId = m01;
shapes = (
{
closed = 1;
nodes = (
(416,208,l),
(502,304,l),
(487,362,l),
(93,240,l),
(74,153,l),
(108,142,l)
);
},
{
closed = 1;
nodes = (
(114,664,l),
(132,590,l),
(271,532,l),
(442,551,l),
(427,700,l),
(139,694,l)
);
},
{
closed = 1;
nodes = (
(800,45,l),
(751,117,l),
(526,681,l),
(427,700,l),
(333,681,l),
(398,526,l),
(442,422,l),
(579,99,l),
(563,21,l),
(588,-10,l),
(776,-8,l)
);
},
{
closed = 1;
nodes = (
(240,0,l),
(257,28,l),
(250,115,l),
(324,429,l),
(324,561,l),
(225,604,l),
(52,-14,l)
);
},
{
closed = 1;
nodes = (
(44,64,l),
(52,-14,l),
(196,39,l),
(196,126,l),
(142,163,l)
);
}
);
width = 775;
},
{
anchors = (
{
name = bottom;
pos = (627,-20);
},
{
name = ogonek;
pos = (699,10);
},
{
name = top;
pos = (360,758);
}
);
layerId = m002;
shapes = (
{
closed = 1;
nodes = (
(416,208,l),
(502,304,l),
(487,362,l),
(93,240,l),
(74,153,l),
(108,142,l)
);
},
{
closed = 1;
nodes = (
(114,664,l),
(132,590,l),
(271,532,l),
(442,551,l),
(427,700,l),
(139,694,l)
);
},
{
closed = 1;
nodes = (
(800,45,l),
(751,117,l),
(526,681,l),
(427,700,l),
(333,681,l),
(398,526,l),
(442,422,l),
(579,99,l),
(563,21,l),
(588,-10,l),
(776,-8,l)
);
},
{
closed = 1;
nodes = (
(240,0,l),
(257,28,l),
(250,115,l),
(324,429,l),
(324,561,l),
(225,604,l),
(52,-14,l)
);
},
{
closed = 1;
nodes = (
(44,64,l),
(52,-14,l),
(196,39,l),
(196,126,l),
(142,163,l)
);
}
);
width = 775;
}
);
metricLeft = A;
},
{
glyphname = T_T;
kernLeft = T;
lastChange = "2024-05-20 13:11:06 +0000";
layers = (
{
anchors = (
{
name = bottom;
pos = (922,22);
},
{
name = center;
pos = (883,340);
},
{
name = top;
pos = (883,697);
}
);
layerId = m01;
shapes = (
{
closed = 1;
nodes = (
(370,1,l),
(394,56,l),
(394,107,l),
(361,134,l),
(365,502,l),
(320,546,l),
(352,602,l),
(183,573,l),
(185,508,l),
(196,142,l),
(175,3,l),
(224,0,l)
);
},
{
closed = 1;
nodes = (
(283,544,l),
(458,556,l),
(494,647,l),
(445,700,l),
(41,649,l),
(5,550,l),
(50,520,l)
);
},
{
closed = 1;
nodes = (
(458,635,l),
(445,700,l),
(103,700,l),
(69,621,l)
);
},
{
closed = 1;
nodes = (
(146,0,l),
(224,0,l),
(252,0,l),
(252,181,l),
(152,114,l)
);
},
{
closed = 1;
nodes = (
(842,-1,l),
(855,56,l),
(855,107,l),
(822,134,l),
(817,502,l),
(781,546,l),
(813,602,l),
(644,573,l),
(646,508,l),
(657,142,l),
(630,0,l),
(688,0,l)
);
},
{
closed = 1;
nodes = (
(605,1,l),
(688,0,l),
(716,0,l),
(682,124,l),
(626,94,l)
);
},
{
closed = 1;
nodes = (
(761,544,l),
(913,547,l),
(980,630,l),
(931,700,l),
(519,649,l),
(483,550,l),
(528,536,l)
);
},
{
closed = 1;
nodes = (
(936,635,l),
(931,700,l),
(562,700,l),
(547,621,l)
);
}
);
width = 980;
},
{
anchors = (
{
name = bottom;
pos = (922,22);
},
{
name = center;
pos = (883,340);
},
{
name = top;
pos = (883,697);
}
);
layerId = m002;
shapes = (
{
closed = 1;
nodes = (
(370,1,l),
(394,56,l),
(394,107,l),
(361,134,l),
(365,502,l),
(320,546,l),
(352,602,l),
(183,573,l),
(185,508,l),
(196,142,l),
(175,3,l),
(224,0,l)
);
},
{
closed = 1;
nodes = (
(283,544,l),
(458,556,l),
(494,647,l),
(445,700,l),
(41,649,l),
(5,550,l),
(50,520,l)
);
},
{
closed = 1;
nodes = (
(458,635,l),
(445,700,l),
(103,700,l),
(69,621,l)
);
},
{
closed = 1;
nodes = (
(146,0,l),
(224,0,l),
(252,0,l),
(252,181,l),
(152,114,l)
);
},
{
closed = 1;
nodes = (
(842,-1,l),
(855,56,l),
(855,107,l),
(822,134,l),
(817,502,l),
(781,546,l),
(813,602,l),
(644,573,l),
(646,508,l),
(657,142,l),
(630,0,l),
(688,0,l)
);
},
{
closed = 1;
nodes = (
(605,1,l),
(688,0,l),
(716,0,l),
(682,124,l),
(626,94,l)
);
},
{
closed = 1;
nodes = (
(761,544,l),
(913,547,l),
(980,630,l),
(931,700,l),
(519,649,l),
(483,550,l),
(528,536,l)
);
},
{
closed = 1;
nodes = (
(936,635,l),
(931,700,l),
(562,700,l),
(547,621,l)
);
}
);
width = 980;
}
);
metricLeft = T;
metricRight = T;
},
{
glyphname = a;
kernLeft = a;
kernRight = ar;
lastChange = "2024-05-20 17:49:09 +0000";
layers = (
{
anchors = (
{
name = bottom;
pos = (312,-2);
},
{
name = ogonek;
pos = (462,8);
},
{
name = top;
pos = (261,546);
}
);
layerId = m01;
shapes = (
{
closed = 1;
nodes = (
(247,10,l),
(333,148,l),
(346,169,l),
(261,145,l),
(191,126,l),
(140,182,l),
(152,218,l),
(282,202,l),
(326,198,l),
(346,269,l),
(266,329,l),
(158,278,l),
(33,205,l),
(25,112,l),
(85,0,l)
);
},
{
closed = 1;
nodes = (
(178,330,l),
(203,390,l),
(189,417,l),
(211,444,l),
(260,489,l),
(191,520,l),
(64,520,l),
(18,475,l),
(61,319,l),
(108,292,l)
);
},
{
closed = 1;
nodes = (
(513,0,l),
(514,108,l),
(457,144,l),
(465,475,l),
(321,486,l),
(369,402,l),
(314,286,l),
(313,266,l),
(316,105,l),
(292,46,l),
(316,0,l)
);
},
{
closed = 1;
nodes = (
(465,475,l),
(410,501,l),
(352,528,l),
(162,504,l),
(92,430,l),
(225,405,l),
(368,385,l)
);
}
);
width = 531;
},
{
anchors = (
{
name = bottom;
pos = (312,-2);
},
{
name = ogonek;
pos = (462,8);
},
{
name = top;
pos = (261,546);
}
);
guides = (
{
orientation = center;
pos = (479,394);
showMeasurement = 1;
}
);
layerId = m002;
shapes = (
{
closed = 1;
nodes = (
(247,10,l),
(345,77,l),
(401,167,l),
(199,79,l),
(136,89,l),
(85,145,l),
(97,204,l),
(250,269,l),
(385,257,l),
(410,292,l),
(266,352,l),
(158,301,l),
(33,228,l),
(25,112,l),
(85,0,l)
);
},
{
closed = 1;
nodes = (
(103,330,l),
(128,390,l),
(114,417,l),
(211,444,l),
(260,489,l),
(191,520,l),
(64,520,l),
(18,475,l),
(61,319,l),
(80,324,l)
);
},
{
closed = 1;
nodes = (
(513,0,l),
(514,50,l),
(457,86,l),
(465,475,l),
(321,486,l),
(385,444,l),
(378,286,l),
(377,266,l),
(380,47,l),
(362,27,l),
(362,0,l)
);
},
{
closed = 1;
nodes = (
(465,475,l),
(410,501,l),
(352,528,l),
(162,504,l),
(92,430,l),
(223,447,l),
(366,427,l)
);
}
);
width = 531;
}
);
unicode = 97;
},
{
glyphname = ae;
kernLeft = a;
lastChange = "2024-05-20 13:11:06 +0000";
layers = (
{
anchors = (
{
name = top;
pos = (421,549);
}
);
layerId = m01;
shapes = (
{
closed = 1;
nodes = (
(247,10,l),
(333,148,l),
(346,169,l),
(261,145,l),
(191,126,l),
(140,182,l),
(152,218,l),
(282,202,l),
(326,198,l),
(346,269,l),
(266,329,l),
(158,278,l),
(33,205,l),
(25,112,l),
(85,0,l)
);
},
{
closed = 1;
nodes = (
(178,330,l),
(203,390,l),
(189,417,l),
(211,444,l),
(260,489,l),
(191,520,l),
(64,520,l),
(18,475,l),
(61,319,l),
(108,292,l)
);
},
{
closed = 1;
nodes = (
(447,0,l),
(457,144,l),
(465,475,l),
(321,486,l),
(369,402,l),
(314,286,l),
(313,266,l),
(316,105,l),
(292,46,l),
(316,0,l)
);
},
{
closed = 1;
nodes = (
(465,475,l),
(410,501,l),
(352,528,l),
(162,504,l),
(92,430,l),
(225,405,l),
(368,385,l)
);
},
{
closed = 1;
nodes = (
(592,45,l),
(547,78,l),
(448,158,l),
(472,235,l),
(480,387,l),
(518,433,l),
(437,510,l),
(356,490,l),
(322,329,l),
(320,209,l),
(344,86,l),
(370,45,l)
);
},
{
closed = 1;
nodes = (
(447,0,l),
(520,32,l),
(559,0,l),
(751,1,l),
(770,156,l),
(733,208,l),
(598,154,l),
(592,98,l),
(573,76,l),
(370,45,l)
);
},
{
closed = 1;
nodes = (
(787,301,l),
(775,478,l),
(673,510,l),
(559,526,l),
(437,510,l),
(456,424,l),
(471,363,l),
(575,433,l),
(609,425,l),
(616,306,l),
(433,302,l),
(430,198,l),
(542,240,l),
(592,191,l)
);
}
);
width = 807;
},
{
anchors = (
{
name = top;
pos = (421,549);
}
);
layerId = m002;
shapes = (
{
closed = 1;
nodes = (
(247,10,l),
(333,148,l),
(346,169,l),
(261,145,l),
(191,126,l),
(140,182,l),
(152,218,l),
(282,202,l),
(326,198,l),
(346,269,l),
(266,329,l),
(158,278,l),
(33,205,l),
(25,112,l),
(85,0,l)
);
},
{
closed = 1;
nodes = (
(178,330,l),
(203,390,l),
(189,417,l),
(211,444,l),
(260,489,l),
(191,520,l),
(64,520,l),
(18,475,l),
(61,319,l),
(108,292,l)
);
},
{
closed = 1;
nodes = (
(447,0,l),
(457,144,l),
(465,475,l),
(321,486,l),
(369,402,l),
(314,286,l),
(313,266,l),
(316,105,l),
(292,46,l),
(316,0,l)
);
},
{
closed = 1;
nodes = (
(465,475,l),
(410,501,l),
(352,528,l),
(162,504,l),
(92,430,l),
(225,405,l),
(368,385,l)
);
},
{
closed = 1;
nodes = (
(592,45,l),
(547,78,l),
(448,158,l),
(472,235,l),
(480,387,l),
(518,433,l),
(437,510,l),
(356,490,l),
(322,329,l),
(320,209,l),
(344,86,l),
(370,45,l)
);
},
{
closed = 1;
nodes = (
(447,0,l),
(520,32,l),
(559,0,l),
(751,1,l),
(770,156,l),
(733,208,l),
(598,154,l),
(592,98,l),
(573,76,l),
(370,45,l)
);
},
{
closed = 1;
nodes = (
(787,301,l),
(775,478,l),
(673,510,l),
(559,526,l),
(437,510,l),
(456,424,l),
(471,363,l),
(575,433,l),
(609,425,l),
(616,306,l),
(433,302,l),
(430,198,l),
(542,240,l),
(592,191,l)
);
}
);
width = 807;
}
);
metricLeft = a;
metricRight = e;
unicode = 230;
},
{
glyphname = b;
kernLeft = h;
kernRight = o;
lastChange = "2024-05-20 21:13:57 +0000";
layers = (
{
layerId = m01;
shapes = (
{
closed = 1;
nodes = (
(491,21,l),
(545,243,l),
(527,407,l),
(475,506,l),
(293,531,l),
(214,471,l),
(240,357,l),
(289,390,l),
(397,426,l),
(365,170,l),
(298,123,l),
(185,226,l),
(209,183,l),
(225,156,l),
(331,-2,l)
);
},
{
closed = 1;
nodes = (
(245,0,l),
(269,59,l),
(245,118,l),
(245,614,l),
(126,668,l),
(77,634,l),
(83,117,l),
(25,81,l),
(34,0,l)
);
},
{
closed = 1;
nodes = (
(195,577,l),
(216,655,l),
(130,682,l),
(15,655,l),
(40,560,l),
(129,547,l)
);
}
);
width = 581;
},
{
guides = (
{
pos = (307,262);
showMeasurement = 1;
}
);
layerId = m002;
shapes = (
{
closed = 1;
nodes = (
(451,0,l),
(534,243,l),
(516,407,l),
(464,506,l),
(282,531,l),
(108,471,l),
(144,370,l),
(249,463,l),
(446,439,l),
(433,92,l),
(287,90,l),
(130,226,l),
(135,183,l),
(191,127,l),
(320,-2,l)
);
},
{
closed = 1;
nodes = (
(151,0,l),
(175,28,l),
(151,87,l),
(151,614,l),
(115,668,l),
(66,634,l),
(72,86,l),
(14,50,l),
(23,0,l)
);
},
{
closed = 1;
nodes = (
(167,607,l),
(167,667,l),
(119,682,l),
(25,664,l),
(29,620,l),
(118,607,l)
);
}
);
width = 570;
}
);
metricLeft = h;
unicode = 98;
},
{
glyphname = c;
kernLeft = c;
lastChange = "2024-05-20 15:44:45 +0000";
layers = (
{
anchors = (
{
name = bottom;
pos = (294,59);
},
{
name = top;
pos = (234,520);
}
);
layerId = m01;
shapes = (
{
closed = 1;
nodes = (
(298,45,l),
(266,78,l),
(207,211,l),
(197,235,l),
(205,387,l),
(237,433,l),
(139,505,l),
(58,485,l),
(24,329,l),
(22,209,l),
(46,86,l),
(72,45,l)
);
},
{
closed = 1;
nodes = (
(154,2,l),
(239,32,l),
(278,0,l),
(457,1,l),
(476,156,l),
(439,208,l),
(311,154,l),
(301,100,l),
(273,55,l),
(72,45,l)
);
},
{
closed = 1;
nodes = (
(482,330,l),
(481,493,l),
(379,525,l),
(278,521,l),
(139,505,l),
(124,452,l),
(190,363,l),
(281,433,l),
(329,444,l),
(325,334,l),
(368,321,l)
);
}
);
width = 508;
},
{
anchors = (
{
name = bottom;
pos = (294,59);
},
{
name = top;
pos = (234,520);
}
);
guides = (
{
pos = (498,118);
showMeasurement = 1;
}
);
layerId = m002;
shapes = (
{
closed = 1;
nodes = (
(298,45,l),
(172,78,l),
(113,211,l),
(103,235,l),
(111,387,l),
(262,448,l),
(139,505,l),
(58,485,l),
(24,329,l),
(22,209,l),
(46,86,l),
(72,45,l)
);
},
{
closed = 1;
nodes = (
(154,2,l),
(239,32,l),
(278,0,l),
(457,1,l),
(476,156,l),
(451,179,l),
(379,154,l),
(369,100,l),
(341,55,l),
(72,45,l)
);
},
{
closed = 1;
nodes = (
(482,386,l),
(481,493,l),
(379,525,l),
(278,521,l),
(139,505,l),
(124,452,l),
(183,428,l),
(262,448,l),
(350,459,l),
(397,390,l),
(440,377,l)
);
}
);
width = 508;
}
);
unicode = 99;
},
{
glyphname = d;
kernLeft = c;
kernRight = d;
lastChange = "2024-05-20 17:50:15 +0000";
layers = (
{
anchors = (
{
name = bottom;
pos = (279,0);
},
{
name = center;
pos = (473,358);
},
{
name = top;
pos = (410,670);
},
{
name = topright;
pos = (538,800);
}
);
layerId = m01;
shapes = (
{
closed = 1;
nodes = (
(245,16,l),
(343,175,l),
(402,287,l),
(266,136,l),
(231,130,l),
(153,392,l),
(165,428,l),
(299,401,l),
(343,396,l),
(362,467,l),
(283,527,l),
(80,476,l),
(50,403,l),
(22,118,l),
(94,-9,l)
);
},
{
closed = 1;
nodes = (
(536,0,l),
(539,88,l),
(484,145,l),
(491,634,l),
(363,629,l),
(318,566,l),
(321,96,l),
(297,37,l),
(321,0,l)
);
},
{
closed = 1;
nodes = (
(512,562,l),
(537,657,l),
(422,684,l),
(336,657,l),
(318,566,l),
(422,549,l)
);
}
);
width = 558;
},
{
anchors = (
{
name = bottom;
pos = (279,0);
},
{
name = center;
pos = (473,358);
},
{
name = top;
pos = (410,670);
},
{
name = topright;
pos = (538,800);
}
);
guides = (
{
pos = (589,314);
showMeasurement = 1;
}
);
layerId = m002;
shapes = (
{
closed = 1;
nodes = (
(245,16,l),
(418,215,l),
(418,259,l),
(266,136,l),
(124,59,l),
(92,361,l),
(237,423,l),
(345,472,l),
(413,397,l),
(430,467,l),
(283,527,l),
(80,476,l),
(50,403,l),
(22,118,l),
(94,-9,l)
);
},
{
closed = 1;
nodes = (
(536,0,l),
(539,37,l),
(484,94,l),
(491,634,l),
(401,634,l),
(401,566,l),
(404,96,l),
(379,37,l),
(403,0,l)
);
},
{
closed = 1;
nodes = (
(491,562,l),
(491,663,l),
(422,684,l),
(352,660,l),
(355,612,l),
(422,595,l)
);
}
);
width = 558;
}
);
metricLeft = c;
unicode = 100;
},
{
glyphname = dcroat;
kernLeft = c;
kernRight = d;
lastChange = "2024-05-20 13:11:06 +0000";
layers = (
{
anchors = (
{
name = bottom;
pos = (279,0);
},
{
name = center;
pos = (473,358);
},
{
name = top;
pos = (382,670);
},
{
name = topright;
pos = (538,800);
}
);
layerId = m01;
shapes = (
{
closed = 1;
nodes = (
(263,577,l),
(291,549,l),
(505,549,l),
(547,625,l),
(539,655,l),
(267,662,l)
);
},
{
closed = 1;
nodes = (
(245,16,l),
(343,175,l),
(402,287,l),
(266,136,l),
(231,130,l),
(153,392,l),
(165,428,l),
(299,401,l),
(343,396,l),
(362,467,l),
(283,527,l),
(80,476,l),
(50,403,l),
(22,118,l),
(94,-9,l)
);
},
{
closed = 1;
nodes = (
(536,0,l),
(539,88,l),
(484,145,l),
(491,700,l),
(363,700,l),
(318,679,l),
(321,96,l),
(297,37,l),
(321,0,l)
);
}
);
width = 566;
},
{
anchors = (
{
name = bottom;
pos = (279,0);
},
{
name = center;
pos = (473,358);
},
{
name = top;
pos = (382,670);
},
{
name = topright;
pos = (538,800);
}
);
layerId = m002;
shapes = (
{
closed = 1;
nodes = (
(263,577,l),
(291,549,l),
(505,549,l),
(547,625,l),
(539,655,l),
(267,662,l)
);
},
{
closed = 1;
nodes = (
(245,16,l),
(343,175,l),
(402,287,l),
(266,136,l),
(231,130,l),
(153,392,l),
(165,428,l),
(299,401,l),
(343,396,l),
(362,467,l),
(283,527,l),
(80,476,l),
(50,403,l),
(22,118,l),
(94,-9,l)
);
},
{
closed = 1;
nodes = (
(536,0,l),
(539,88,l),
(484,145,l),
(491,700,l),
(363,700,l),
(318,679,l),
(321,96,l),
(297,37,l),
(321,0,l)
);
}
);
width = 566;
}
);
metricLeft = d;
metricRight = d;
unicode = 273;
},
{
glyphname = eth;
kernLeft = c;
kernRight = d;
lastChange = "2024-05-20 13:11:06 +0000";
layers = (
{
layerId = m01;
shapes = (
{
closed = 1;
nodes = (
(298,0,l),
(372,40,l),
(402,276,l),
(266,125,l),
(214,68,l),
(155,312,l),
(206,346,l),
(287,346,l),
(329,259,l),
(354,303,l),
(354,324,l),
(287,405,l),
(146,463,l),
(50,403,l),
(22,107,l),
(98,0,l)
);
},
{
closed = 1;
nodes = (
(484,134,l),
(490,449,l),
(437,574,l),
(326,685,l),
(253,704,l),
(178,647,l),
(192,612,l),
(319,463,l),
(321,85,l),
(297,26,l),
(389,0,l)
);
},
{
closed = 1;
nodes = (
(183,506,l),
(231,444,l),
(490,586,l),
(470,680,l),
(417,705,l),
(201,565,l)
);
}
);
width = 509;
},
{
layerId = m002;
shapes = (
{
closed = 1;
nodes = (
(298,0,l),
(372,40,l),
(402,276,l),
(266,125,l),
(214,68,l),
(155,312,l),
(206,346,l),
(287,346,l),
(329,259,l),
(354,303,l),
(354,324,l),
(287,405,l),
(146,463,l),
(50,403,l),
(22,107,l),
(98,0,l)
);
},
{
closed = 1;
nodes = (
(484,134,l),
(490,449,l),
(437,574,l),
(326,685,l),
(253,704,l),
(178,647,l),
(192,612,l),
(319,463,l),
(321,85,l),
(297,26,l),
(389,0,l)
);
},
{
closed = 1;
nodes = (
(183,506,l),
(231,444,l),
(490,586,l),
(470,680,l),
(417,705,l),
(201,565,l)
);
}
);
width = 509;
}
);
metricLeft = d;
metricRight = d;
unicode = 240;
},
{
glyphname = e;
kernLeft = c;
kernRight = e;
lastChange = "2024-05-20 15:06:55 +0000";
layers = (
{
anchors = (
{
name = bottom;
pos = (271,0);
},
{
name = ogonek;
pos = (488,8);
},
{
name = top;
pos = (291,542);
}
);
layerId = m01;
shapes = (
{
closed = 1;
nodes = (
(328,45,l),
(249,78,l),
(203,211,l),
(201,235,l),
(209,387,l),
(220,433,l),
(139,510,l),
(58,490,l),
(24,329,l),
(22,209,l),
(46,86,l),
(72,45,l)
);
},
{
closed = 1;
nodes = (
(149,-2,l),
(222,32,l),
(261,0,l),
(487,1,l),
(506,156,l),
(469,208,l),
(334,154,l),
(328,98,l),
(309,76,l),
(72,45,l)
);
},
{
closed = 1;
nodes = (
(523,301,l),
(511,478,l),
(409,510,l),
(261,526,l),
(139,510,l),
(158,424,l),
(173,363,l),
(311,433,l),
(345,425,l),
(352,306,l),
(135,302,l),
(126,235,l),
(244,240,l),
(328,191,l)
);
}
);
width = 543;
},
{
anchors = (
{
name = bottom;
pos = (271,0);
},
{
name = ogonek;
pos = (488,8);
},
{
name = top;
pos = (291,542);
}
);
guides = (
{
pos = (610,363);
showMeasurement = 1;
}
);
layerId = m002;
shapes = (
{
closed = 1;
nodes = (
(328,45,l),
(150,78,l),
(104,211,l),
(106,266,l),
(113,387,l),
(292,470,l),
(139,510,l),
(58,490,l),
(24,329,l),
(22,209,l),
(46,86,l),
(72,45,l)
);
},
{
closed = 1;
nodes = (
(149,-2,l),
(222,32,l),
(261,0,l),
(487,1,l),
(506,156,l),
(469,164,l),
(425,154,l),
(419,98,l),
(364,60,l),
(72,45,l)
);
},
{
closed = 1;
nodes = (
(523,301,l),
(511,478,l),
(409,510,l),
(261,526,l),
(139,510,l),
(97,447,l),
(126,447,l),
(311,470,l),
(447,387,l),
(440,306,l),
(75,302,l),
(87,281,l),
(244,240,l),
(356,221,l)
);
}
);
width = 543;
}
);
metricLeft = c;
unicode = 101;
},
{
glyphname = schwa;
kernLeft = c;
lastChange = "2024-05-20 13:11:06 +0000";
layers = (
{
anchors = (
{
name = bottom;
pos = (251,-22);
},
{
name = ogonek;
pos = (54,512);
},
{
name = top;
pos = (271,520);
}
);
layerId = m01;
shapes = (
{
closed = 1;
nodes = (
(99,256,l),
(41,219,l),
(26,95,l),
(94,-10,l),
(248,-7,l),
(324,14,l),
(377,119,l),
(339,190,l),
(176,95,l),
(150,182,l),
(158,203,l),
(290,217,l),
(334,212,l),
(354,283,l),
(237,328,l)
);
},
{
closed = 1;
nodes = (
(123,466,l),
(100,393,l),
(216,417,l),
(360,417,l),
(324,119,l),
(300,60,l),
(324,14,l),
(487,98,l),
(503,204,l),
(494,434,l),
(343,540,l)
);
},
{
closed = 1;
nodes = (
(85,474,l),
(30,417,l),
(52,331,l),
(123,294,l),
(191,342,l),
(182,388,l),
(258,429,l),
(258,492,l),
(240,520,l)
);
},
{
closed = 1;
nodes = (
(237,66,l),
(248,-7,l),
(420,17,l),
(451,113,l)
);
}
);
width = 533;
},
{
anchors = (
{
name = bottom;
pos = (251,-22);
},
{
name = ogonek;
pos = (54,512);
},
{
name = top;
pos = (271,520);
}
);
layerId = m002;
shapes = (
{
closed = 1;
nodes = (
(99,256,l),
(41,219,l),
(26,95,l),
(94,-10,l),
(248,-7,l),
(324,14,l),
(377,119,l),
(339,190,l),
(176,95,l),
(150,182,l),
(158,203,l),
(290,217,l),
(334,212,l),
(354,283,l),
(237,328,l)
);
},
{
closed = 1;
nodes = (
(123,466,l),
(100,393,l),
(216,417,l),
(360,417,l),
(324,119,l),
(300,60,l),
(324,14,l),
(487,98,l),
(503,204,l),
(494,434,l),
(343,540,l)
);
},
{
closed = 1;
nodes = (
(85,474,l),
(30,417,l),
(52,331,l),
(123,294,l),
(191,342,l),
(182,388,l),
(258,429,l),
(258,492,l),
(240,520,l)
);
},
{
closed = 1;
nodes = (
(237,66,l),
(248,-7,l),
(420,17,l),
(451,113,l)
);
}
);
width = 533;
}
);
unicode = 601;
},
{
glyphname = f;
lastChange = "2024-05-20 15:06:14 +0000";
layers = (
{
layerId = m01;
shapes = (
{
closed = 1;
nodes = (
(287,0,l),
(290,98,l),
(232,134,l),
(237,520,l),
(138,616,l),
(106,658,l),
(62,596,l),
(68,131,l),
(44,72,l),
(69,0,l)
);
},
{
closed = 1;
nodes = (
(276,387,l),
(344,430,l),
(328,519,l),
(8,466,l),
(8,355,l),
(38,325,l)
);
},
{
closed = 1;
nodes = (
(330,674,l),
(165,714,l),
(79,686,l),
(62,596,l),
(137,585,l),
(305,578,l)
);
}
);
width = 344;
},
{
guides = (
{
pos = (345,269);
showMeasurement = 1;
}
);
layerId = m002;
shapes = (
{
closed = 1;
nodes = (
(237,0,l),
(240,49,l),
(194,85,l),
(199,520,l),
(159,652,l),
(62,652,l),
(101,596,l),
(107,82,l),
(71,27,l),
(96,4,l)
);
},
{
closed = 1;
nodes = (
(276,455,l),
(344,498,l),
(328,519,l),
(8,466,l),
(8,423,l),
(38,393,l)
);
},
{
closed = 1;
nodes = (
(330,674,l),
(165,714,l),
(79,686,l),
(62,652,l),
(137,641,l),
(305,634,l)
);
}
);
width = 344;
}
);
unicode = 102;
},
{
glyphname = g;
kernLeft = c;
lastChange = "2024-05-20 17:51:13 +0000";
layers = (
{
anchors = (
{
name = bottom;
pos = (269,-240);
},
{
name = top;
pos = (298,552);
}
);
layerId = m01;
shapes = (
{
closed = 1;
nodes = (
(435,-236,l),
(503,-14,l),
(456,71,l),
(105,71,l),
(81,-49,l),
(436,-38,l),
(350,-130,l),
(134,-194,l),
(34,-153,l),
(142,-238,l)
);
},
{
closed = 1;
nodes = (
(216,-90,l),
(129,-34,l),
(105,-3,l),
(34,-153,l),
(176,-216,l)
);
},
{
closed = 1;
nodes = (
(179,-37,l),
(174,157,l),
(96,146,l),
(50,4,l),
(81,-49,l)
);
},
{
closed = 1;
nodes = (
(227,53,l),
(174,113,l),
(165,43,l)
);
},
{
closed = 1;
nodes = (
(157,132,l),
(174,157,l),
(167,358,l),
(233,425,l),
(131,469,l),
(82,452,l),
(20,417,l),
(27,316,l),
(44,148,l),
(69,122,l)
);
},
{
closed = 1;
nodes = (
(380,113,l),
(405,208,l),
(374,242,l),
(71,132,l),
(129,106,l)
);
},
{
closed = 1;
nodes = (
(142,397,l),
(377,419,l),
(377,520,l),
(165,520,l),
(73,504,l),
(20,417,l),
(47,382,l)
);
},
{
closed = 1;
nodes = (
(458,379,l),
(424,485,l),
(377,520,l),
(293,509,l),
(276,236,l),
(371,236,l),
(380,113,l)
);
},
{
closed = 1;
nodes = (
(503,365,l),
(539,433,l),
(540,520,l),
(432,520,l),
(389,465,l),
(437,354,l)
);
}
);
width = 548;
},
{
anchors = (
{
name = bottom;
pos = (269,-240);
},
{
name = top;
pos = (298,552);
}
);
guides = (
{
pos = (467,284);
showMeasurement = 1;
}
);
layerId = m002;
shapes = (
{
closed = 1;
nodes = (
(435,-236,l),
(503,-14,l),
(456,27,l),
(105,27,l),
(81,-15,l),
(459,-4,l),
(389,-146,l),
(134,-194,l),
(34,-153,l),
(142,-238,l)
);
},
{
closed = 1;
nodes = (
(146,-98,l),
(129,-34,l),
(105,-3,l),
(34,-153,l),
(176,-216,l)
);
},
{
closed = 1;
nodes = (
(115,-49,l),
(165,126,l),
(96,146,l),
(50,4,l),
(81,-49,l)
);
},
{
closed = 1;
nodes = (
(183,16,l),
(130,76,l),
(121,6,l)
);
},
{
closed = 1;
nodes = (
(157,132,l),
(115,157,l),
(108,358,l),
(179,419,l),
(245,472,l),
(82,452,l),
(20,417,l),
(27,316,l),
(44,148,l),
(69,122,l)
);
},
{
closed = 1;
nodes = (
(380,113,l),
(405,208,l),
(371,183,l),
(71,132,l),
(129,106,l)
);
},
{
closed = 1;
nodes = (
(142,452,l),
(377,474,l),
(377,520,l),
(165,520,l),
(73,504,l),
(20,417,l),
(47,382,l)
);
},
{
closed = 1;
nodes = (
(458,379,l),
(424,485,l),
(377,520,l),
(359,509,l),
(342,236,l),
(380,188,l),
(380,113,l)
);
},
{
closed = 1;
nodes = (
(503,448,l),
(539,477,l),
(540,520,l),
(432,520,l),
(389,465,l),
(437,437,l)
);
}
);
width = 548;
}
);
unicode = 103;
},
{
glyphname = h;
kernLeft = h;
kernRight = n;
lastChange = "2024-05-20 13:43:58 +0000";
layers = (
{
anchors = (
{
name = bottom;
pos = (265,0);
},
{
name = center;
pos = (128,571);
},
{
name = top;
pos = (131,699);
}
);
guides = (
{
pos = (533,237);
showMeasurement = 1;
}
);
layerId = m01;
shapes = (
{
closed = 1;
nodes = (
(280,0,l),
(283,88,l),
(225,124,l),
(227,520,l),
(229,606,l),
(96,658,l),
(52,596,l),
(59,105,l),
(35,45,l),
(59,0,l)
);
},
{
closed = 1;
nodes = (
(432,0,l),
(500,0,l),
(516,65,l),
(487,142,l),
(500,508,l),
(376,528,l),
(295,521,l),
(223,413,l),
(222,379,l),
(296,424,l),
(320,414,l),
(332,116,l),
(321,0,l)
);
},
{
closed = 1;
nodes = (
(229,606,l),
(229,683,l),
(118,713,l),
(32,686,l),
(15,595,l),
(90,584,l)
);
}
);
width = 540;
},
{
anchors = (
{
name = bottom;
pos = (265,0);
},
{
name = center;
pos = (128,571);
},
{
name = top;
pos = (131,699);
}
);
guides = (
{
pos = (625,284);
showMeasurement = 1;
}
);
layerId = m002;
shapes = (
{
closed = 1;
nodes = (
(194,0,l),
(197,46,l),
(139,124,l),
(141,520,l),
(143,606,l),
(96,658,l),
(52,649,l),
(59,63,l),
(35,45,l),
(59,0,l)
);
},
{
closed = 1;
nodes = (
(432,0,l),
(500,0,l),
(516,65,l),
(487,98,l),
(500,508,l),
(376,528,l),
(295,521,l),
(126,413,l),
(125,379,l),
(378,424,l),
(402,414,l),
(414,72,l),
(403,0,l)
);
},
{
closed = 1;
nodes = (
(143,606,l),
(143,683,l),
(118,713,l),
(32,686,l),
(14,618,l),
(89,607,l)
);
}
);
width = 540;
}
);
metricRight = n;
unicode = 104;
},
{
glyphname = hbar;
kernLeft = h;
kernRight = n;
lastChange = "2024-05-20 13:11:06 +0000";
layers = (
{
anchors = (
{
name = bottom;
pos = (268,0);
},
{
name = center;
pos = (131,571);
},
{
name = top;
pos = (134,699);
}
);
layerId = m01;
shapes = (
{
closed = 1;
nodes = (
(280,1,l),
(283,89,l),
(225,125,l),
(230,520,l),
(232,714,l),
(110,723,l),
(54,716,l),
(62,105,l),
(38,45,l),
(62,0,l)
);
},
{
closed = 1;
nodes = (
(443,0,l),
(495,53,l),
(520,75,l),
(490,152,l),
(504,508,l),
(380,528,l),
(298,521,l),
(226,413,l),
(225,379,l),
(300,424,l),
(323,414,l),
(336,126,l),
(323,0,l)
);
},
{
closed = 1;
nodes = (
(15,519,l),
(320,544,l),
(348,591,l),
(333,654,l),
(40,646,l),
(16,594,l)
);
}
);
width = 544;
},
{
anchors = (
{
name = bottom;
pos = (268,0);
},
{
name = center;
pos = (131,571);
},
{
name = top;
pos = (134,699);
}
);
layerId = m002;
shapes = (
{
closed = 1;
nodes = (
(280,1,l),
(283,89,l),
(225,125,l),
(230,520,l),
(232,714,l),
(110,723,l),
(54,716,l),
(62,105,l),
(38,45,l),
(62,0,l)
);
},
{
closed = 1;
nodes = (
(443,0,l),
(495,53,l),
(520,75,l),
(490,152,l),
(504,508,l),
(380,528,l),
(298,521,l),
(226,413,l),
(225,379,l),
(300,424,l),
(323,414,l),
(336,126,l),
(323,0,l)
);
},
{
closed = 1;
nodes = (
(15,519,l),
(320,544,l),
(348,591,l),
(333,654,l),
(40,646,l),
(16,594,l)
);
}
);
width = 544;
}
);
metricLeft = h;
metricRight = h;
unicode = 295;
},
{
glyphname = i;
kernRight = ar;
lastChange = "2024-05-20 13:11:06 +0000";
layers = (
{
anchors = (
{
name = bottom;
pos = (540,0);
},
{
name = right;
pos = (836,330);
},
{
name = top;
pos = (540,520);
}
);
layerId = m01;
shapes = (
{
closed = 1;
nodes = (
(272,1,l),
(270,73,l),
(226,134,l),
(228,326,l),
(235,520,l),
(199,520,l),
(19,478,l),
(10,402,l),
(35,367,l),
(72,356,l),
(74,139,l),
(42,104,l),
(42,38,l),
(66,0,l)
);
},
{
closed = 1;
nodes = (
(201,554,l),
(282,622,l),
(252,687,l),
(198,739,l),
(88,698,l),
(40,625,l),
(89,550,l)
);
}
);
width = 302;
},
{
anchors = (
{
name = bottom;
pos = (540,0);
},
{
name = right;
pos = (836,330);
},
{
name = top;
pos = (540,520);
}
);
layerId = m002;
shapes = (
{
closed = 1;
nodes = (
(272,1,l),
(270,73,l),
(226,134,l),
(228,326,l),
(235,520,l),
(199,520,l),
(19,478,l),
(10,402,l),
(35,367,l),
(72,356,l),
(74,139,l),
(42,104,l),
(42,38,l),
(66,0,l)
);
},
{
closed = 1;
nodes = (
(201,554,l),
(282,622,l),
(252,687,l),
(198,739,l),
(88,698,l),
(40,625,l),
(89,550,l)
);
}
);
width = 302;
}
);
unicode = 105;
},
{
glyphname = idotless;
kernLeft = a;
kernRight = ar;
lastChange = "2024-05-20 13:11:06 +0000";
layers = (
{
anchors = (
{
name = bottom;
pos = (135,0);
},
{
name = ogonek;
pos = (275,0);
},
{
name = top;
pos = (147,520);
}
);
layerId = m01;
shapes = (
{
closed = 1;
nodes = (
(260,0,l),
(273,93,l),
(229,154,l),
(228,326,l),
(235,522,l),
(19,480,l),
(10,402,l),
(35,367,l),
(72,356,l),
(74,139,l),
(42,104,l),
(42,38,l),
(85,0,l)
);
}
);
width = 293;
},
{
anchors = (
{
name = bottom;
pos = (135,0);
},
{
name = ogonek;
pos = (275,0);
},
{
name = top;
pos = (147,520);
}
);
layerId = m002;
shapes = (
{
closed = 1;
nodes = (
(260,0,l),
(273,93,l),
(229,154,l),
(228,326,l),
(235,522,l),
(19,480,l),
(10,402,l),
(35,367,l),
(72,356,l),
(74,139,l),
(42,104,l),
(42,38,l),
(85,0,l)
);
}
);
width = 293;
}
);
metricLeft = i;
metricRight = i;
unicode = 305;
},
{
glyphname = iacute;
kernRight = ar;
lastChange = "2024-05-20 13:11:06 +0000";
layers = (
{
anchors = (
{
name = bottom;
pos = (156,6);
},
{
name = right;
pos = (265,330);
},
{
name = top;
pos = (129,520);
}
);
layerId = m01;
shapes = (
{
closed = 1;
nodes = (
(274,0,l),
(273,79,l),
(229,140,l),
(230,326,l),
(237,522,l),
(21,480,l),
(12,402,l),
(37,367,l),
(74,356,l),
(74,126,l),
(42,90,l),
(42,25,l),
(84,0,l)
);
},
{
pos = (19,82);
ref = acute;
}
);
width = 303;
},
{
anchors = (
{
name = bottom;
pos = (156,6);
},
{
name = right;
pos = (265,330);
},
{
name = top;
pos = (129,520);
}
);
layerId = m002;
shapes = (
{
closed = 1;
nodes = (
(274,0,l),
(273,79,l),
(229,140,l),
(230,326,l),
(237,522,l),
(21,480,l),
(12,402,l),
(37,367,l),
(74,356,l),
(74,126,l),
(42,90,l),
(42,25,l),
(84,0,l)
);
},
{
pos = (19,82);
ref = acute;
}
);
width = 303;
}
);
unicode = 237;
},
{
glyphname = icircumflex;
lastChange = "2024-05-20 13:11:06 +0000";
layers = (
{
layerId = m01;
shapes = (
{
closed = 1;
nodes = (
(262,0,l),
(273,79,l),
(229,140,l),
(230,326,l),
(237,522,l),
(21,480,l),
(12,402,l),
(37,367,l),
(74,356,l),
(74,152,l),
(42,116,l),
(42,51,l),
(98,0,l)
);
},
{
pos = (-43,103);
ref = circumflex;
}
);
width = 323;
},
{
layerId = m002;
shapes = (
{
closed = 1;
nodes = (
(262,0,l),
(273,79,l),
(229,140,l),
(230,326,l),
(237,522,l),
(21,480,l),
(12,402,l),
(37,367,l),
(74,356,l),
(74,152,l),
(42,116,l),
(42,51,l),
(98,0,l)
);
},
{
pos = (-43,103);
ref = circumflex;
}
);
width = 323;
}
);
unicode = 238;
},
{
glyphname = idieresis;
lastChange = "2024-05-20 13:11:06 +0000";
layers = (
{
layerId = m01;
shapes = (
{
closed = 1;
nodes = (
(292,0,l),
(304,79,l),
(260,140,l),
(261,326,l),
(268,522,l),
(52,480,l),
(43,402,l),
(68,367,l),
(106,356,l),
(105,126,l),
(73,90,l),
(73,25,l),
(114,-2,l)
);
},
{
pos = (0,78);
ref = dieresis;
}
);
width = 371;
},
{
layerId = m002;
shapes = (
{
closed = 1;
nodes = (
(292,0,l),
(304,79,l),
(260,140,l),
(261,326,l),
(268,522,l),
(52,480,l),
(43,402,l),
(68,367,l),
(106,356,l),
(105,126,l),
(73,90,l),
(73,25,l),
(114,-2,l)
);
},
{
pos = (0,78);
ref = dieresis;
}
);
width = 371;
}
);
unicode = 239;
},
{
glyphname = igrave;
kernRight = ar;
lastChange = "2024-05-20 13:11:06 +0000";
layers = (
{
layerId = m01;
shapes = (
{
closed = 1;
nodes = (
(274,0,l),
(273,79,l),
(229,140,l),
(230,326,l),
(237,522,l),
(21,480,l),
(12,402,l),
(37,367,l),
(74,356,l),
(74,152,l),
(42,116,l),
(42,51,l),
(98,0,l)
);
},
{
pos = (0,80);
ref = grave;
}
);
width = 274;
},
{
layerId = m002;
shapes = (
{
closed = 1;
nodes = (
(274,0,l),
(273,79,l),
(229,140,l),
(230,326,l),
(237,522,l),
(21,480,l),
(12,402,l),
(37,367,l),
(74,356,l),
(74,152,l),
(42,116,l),
(42,51,l),
(98,0,l)
);
},
{
pos = (0,80);
ref = grave;
}
);
width = 274;
}
);
unicode = 236;
},
{
glyphname = imacron;
lastChange = "2024-05-20 13:11:06 +0000";
layers = (
{
layerId = m01;
shapes = (
{
closed = 1;
nodes = (
(289,0,l),
(302,93,l),
(258,154,l),
(256,326,l),
(264,522,l),
(48,480,l),
(39,402,l),
(64,367,l),
(101,356,l),
(103,139,l),
(71,104,l),
(71,38,l),
(114,0,l)
);
},
{
pos = (67,39);
ref = macron;
}
);
width = 370;
},
{
layerId = m002;
shapes = (
{
closed = 1;
nodes = (
(289,0,l),
(302,93,l),
(258,154,l),
(256,326,l),
(264,522,l),
(48,480,l),
(39,402,l),
(64,367,l),
(101,356,l),
(103,139,l),
(71,104,l),
(71,38,l),
(114,0,l)
);
},
{
pos = (67,39);
ref = macron;
}
);
width = 370;
}
);
metricLeft = i;
metricRight = i;
unicode = 299;
},
{
glyphname = iogonek;
lastChange = "2024-05-20 13:11:06 +0000";
layers = (
{
layerId = m01;
shapes = (
{
closed = 1;
nodes = (
(252,0,l),
(273,93,l),
(229,154,l),
(228,326,l),
(235,522,l),
(19,480,l),
(10,402,l),
(35,367,l),
(72,356,l),
(74,139,l),
(42,104,l),
(42,38,l),
(85,0,l)
);
},
{
closed = 1;
nodes = (
(201,554,l),
(282,622,l),
(252,687,l),
(198,739,l),
(88,698,l),
(40,625,l),
(89,550,l)
);
},
{
pos = (-7,11);
ref = ogonek;
}
);
width = 302;
},
{
layerId = m002;
shapes = (
{
closed = 1;
nodes = (
(252,0,l),
(273,93,l),
(229,154,l),
(228,326,l),
(235,522,l),
(19,480,l),
(10,402,l),
(35,367,l),
(72,356,l),
(74,139,l),
(42,104,l),
(42,38,l),
(85,0,l)
);
},
{
closed = 1;
nodes = (
(201,554,l),
(282,622,l),
(252,687,l),
(198,739,l),
(88,698,l),
(40,625,l),
(89,550,l)
);
},
{
pos = (-7,11);
ref = ogonek;
}
);
width = 302;
}
);
metricLeft = i;
metricRight = i;
unicode = 303;
},
{
glyphname = ij;
lastChange = "2024-05-20 13:11:06 +0000";
layers = (
{
anchors = (
{
name = bottom;
pos = (540,0);
},
{
name = right;
pos = (836,330);
},
{
name = top;
pos = (540,520);
}
);
layerId = m01;
shapes = (
{
closed = 1;
nodes = (
(260,0,l),
(273,93,l),
(229,154,l),
(228,326,l),
(235,522,l),
(19,480,l),
(10,402,l),
(35,367,l),
(72,356,l),
(74,139,l),
(42,104,l),
(42,38,l),
(99,0,l)
);
},
{
closed = 1;
nodes = (
(565,-14,l),
(556,429,l),
(580,488,l),
(556,534,l),
(337,503,l),
(335,415,l),
(392,379,l),
(392,177,l),
(432,24,l),
(504,-26,l)
);
},
{
closed = 1;
nodes = (
(564,-99,l),
(565,-14,l),
(507,2,l),
(390,-14,l),
(273,-70,l),
(295,-149,l),
(500,-148,l)
);
},
{
closed = 1;
nodes = (
(201,554,l),
(282,622,l),
(252,687,l),
(198,739,l),
(88,698,l),
(40,625,l),
(89,550,l)
);
},
{
closed = 1;
nodes = (
(505,554,l),
(586,622,l),
(556,687,l),
(502,739,l),
(392,698,l),
(344,625,l),
(393,550,l)
);
}
);
width = 606;
},
{
anchors = (
{
name = bottom;
pos = (540,0);
},
{
name = right;
pos = (836,330);
},
{
name = top;
pos = (540,520);
}
);
layerId = m002;
shapes = (
{
closed = 1;
nodes = (
(260,0,l),
(273,93,l),
(229,154,l),
(228,326,l),
(235,522,l),
(19,480,l),
(10,402,l),
(35,367,l),
(72,356,l),
(74,139,l),
(42,104,l),
(42,38,l),
(99,0,l)
);
},
{
closed = 1;
nodes = (
(565,-14,l),
(556,429,l),
(580,488,l),
(556,534,l),
(337,503,l),
(335,415,l),
(392,379,l),
(392,177,l),
(432,24,l),
(504,-26,l)
);
},
{
closed = 1;
nodes = (
(564,-99,l),
(565,-14,l),
(507,2,l),
(390,-14,l),
(273,-70,l),
(295,-149,l),
(500,-148,l)
);
},
{
closed = 1;
nodes = (
(201,554,l),
(282,622,l),
(252,687,l),
(198,739,l),
(88,698,l),
(40,625,l),
(89,550,l)
);
},
{
closed = 1;
nodes = (
(505,554,l),
(586,622,l),
(556,687,l),
(502,739,l),
(392,698,l),
(344,625,l),
(393,550,l)
);
}
);
width = 606;
}
);
metricLeft = i;
metricRight = j;
unicode = 307;
},
{
glyphname = j;
kernLeft = j;
lastChange = "2024-05-20 13:11:06 +0000";
layers = (
{
layerId = m01;
shapes = (
{
closed = 1;
nodes = (
(275,-14,l),
(266,429,l),
(290,488,l),
(266,534,l),
(47,503,l),
(45,415,l),
(102,379,l),
(102,70,l),
(142,24,l),
(214,-26,l)
);
},
{
closed = 1;
nodes = (
(274,-99,l),
(275,-14,l),
(217,2,l),
(100,-14,l),
(0,-62,l),
(22,-141,l),
(210,-148,l)
);
},
{
closed = 1;
nodes = (
(213,554,l),
(294,622,l),
(263,687,l),
(210,739,l),
(100,698,l),
(52,625,l),
(101,550,l)
);
}
);
width = 314;
},
{
layerId = m002;
shapes = (
{
closed = 1;
nodes = (
(275,-14,l),
(266,429,l),
(290,488,l),
(266,534,l),
(47,503,l),
(45,415,l),
(102,379,l),
(102,70,l),
(142,24,l),
(214,-26,l)
);
},
{
closed = 1;
nodes = (
(274,-99,l),
(275,-14,l),
(217,2,l),
(100,-14,l),
(0,-62,l),
(22,-141,l),
(210,-148,l)
);
},
{
closed = 1;
nodes = (
(213,554,l),
(294,622,l),
(263,687,l),
(210,739,l),
(100,698,l),
(52,625,l),
(101,550,l)
);
}
);
width = 314;
}
);
metricRight = i;
unicode = 106;
},
{
glyphname = jdotless;
kernLeft = j;
lastChange = "2024-05-20 13:11:06 +0000";
layers = (
{
anchors = (
{
name = bottom;
pos = (153,-250);
},
{
name = top;
pos = (190,565);
}
);
layerId = m01;
shapes = (
{
closed = 1;
nodes = (
(275,-14,l),
(266,429,l),
(290,488,l),
(266,534,l),
(47,503,l),
(45,415,l),
(102,379,l),
(102,177,l),
(142,24,l),
(214,-26,l)
);
},
{
closed = 1;
nodes = (
(274,-99,l),
(275,-14,l),
(217,2,l),
(100,-14,l),
(0,-62,l),
(22,-141,l),
(210,-148,l)
);
}
);
width = 310;
},
{
anchors = (
{
name = bottom;
pos = (153,-250);
},
{
name = top;
pos = (190,565);
}
);
layerId = m002;
shapes = (
{
closed = 1;
nodes = (
(275,-14,l),
(266,429,l),
(290,488,l),
(266,534,l),
(47,503,l),
(45,415,l),
(102,379,l),
(102,177,l),
(142,24,l),
(214,-26,l)
);
},
{
closed = 1;
nodes = (
(274,-99,l),
(275,-14,l),
(217,2,l),
(100,-14,l),
(0,-62,l),
(22,-141,l),
(210,-148,l)
);
}
);
width = 310;
}
);
metricLeft = j;
metricRight = j;
unicode = 567;
},
{
glyphname = jacute;
kernLeft = j;
lastChange = "2024-05-20 13:11:06 +0000";
layers = (
{
layerId = m01;
shapes = (
{
closed = 1;
nodes = (
(179,573,l),
(282,666,l),
(244,740,l),
(149,714,l),
(92,622,l),
(99,566,l)
);
},
{
closed = 1;
nodes = (
(275,-14,l),
(266,429,l),
(290,488,l),
(266,534,l),
(47,503,l),
(45,415,l),
(102,379,l),
(102,177,l),
(142,24,l),
(214,-26,l)
);
},
{
closed = 1;
nodes = (
(274,-99,l),
(275,-14,l),
(217,2,l),
(100,-14,l),
(0,-62,l),
(22,-141,l),
(210,-148,l)
);
}
);
width = 310;
},
{
layerId = m002;
shapes = (
{
closed = 1;
nodes = (
(179,573,l),
(282,666,l),
(244,740,l),
(149,714,l),
(92,622,l),
(99,566,l)
);
},
{
closed = 1;
nodes = (
(275,-14,l),
(266,429,l),
(290,488,l),
(266,534,l),
(47,503,l),
(45,415,l),
(102,379,l),
(102,177,l),
(142,24,l),
(214,-26,l)
);
},
{
closed = 1;
nodes = (
(274,-99,l),
(275,-14,l),
(217,2,l),
(100,-14,l),
(0,-62,l),
(22,-141,l),
(210,-148,l)
);
}
);
width = 310;
}
);
metricLeft = j;
metricRight = j;
},
{
glyphname = k;
kernLeft = h;
lastChange = "2024-05-20 21:06:57 +0000";
layers = (
{
layerId = m01;
shapes = (
{
closed = 1;
nodes = (
(277,1,l),
(280,89,l),
(222,125,l),
(227,388,l),
(228,450,l),
(231,552,l),
(98,605,l),
(53,542,l),
(58,105,l),
(34,46,l),
(58,0,l)
);
},
{
closed = 1;
nodes = (
(468,53,l),
(490,140,l),
(389,247,l),
(365,261,l),
(323,308,l),
(208,290,l),
(193,231,l),
(284,194,l),
(349,0,l),
(421,0,l)
);
},
{
closed = 1;
nodes = (
(492,0,l),
(534,37,l),
(515,112,l),
(400,80,l),
(377,118,l),
(371,37,l),
(421,0,l)
);
},
{
closed = 1;
nodes = (
(231,552,l),
(231,630,l),
(120,659,l),
(34,632,l),
(16,542,l),
(92,530,l)
);
},
{
closed = 1;
nodes = (
(492,379,l),
(496,431,l),
(412,469,l),
(366,491,l),
(324,453,l),
(284,395,l),
(208,290,l),
(400,295,l)
);
},
{
closed = 1;
nodes = (
(496,431,l),
(487,504,l),
(432,533,l),
(343,532,l),
(292,481,l),
(343,429,l),
(392,365,l)
);
}
);
width = 566;
},
{
guides = (
{
pos = (588,171);
showMeasurement = 1;
}
);
layerId = m002;
shapes = (
{
closed = 1;
nodes = (
(213,1,l),
(216,53,l),
(176,89,l),
(181,388,l),
(182,450,l),
(185,552,l),
(98,605,l),
(90,542,l),
(95,69,l),
(66,46,l),
(90,0,l)
);
},
{
closed = 1;
nodes = (
(468,53,l),
(445,86,l),
(389,247,l),
(342,275,l),
(323,308,l),
(138,296,l),
(168,252,l),
(305,246,l),
(412,0,l),
(421,0,l)
);
},
{
closed = 1;
nodes = (
(492,0,l),
(520,32,l),
(504,86,l),
(462,94,l),
(416,85,l),
(425,26,l),
(421,0,l)
);
},
{
closed = 1;
nodes = (
(185,552,l),
(185,638,l),
(120,659,l),
(34,632,l),
(48,581,l),
(95,566,l)
);
},
{
closed = 1;
nodes = (
(469,383,l),
(488,431,l),
(433,483,l),
(392,499,l),
(411,460,l),
(346,364,l),
(274,290,l),
(382,303,l)
);
},
{
closed = 1;
nodes = (
(489,445,l),
(488,518,l),
(432,533,l),
(390,532,l),
(366,506,l),
(421,438,l),
(392,365,l)
);
}
);
width = 566;
}
);
unicode = 107;
},
{
glyphname = l;
kernLeft = h;
lastChange = "2024-05-20 15:36:20 +0000";
layers = (
{
anchors = (
{
name = bottom;
pos = (141,0);
},
{
name = center;
pos = (141,260);
},
{
name = top;
pos = (140,714);
},
{
name = topright;
pos = (276,714);
}
);
layerId = m01;
shapes = (
{
closed = 1;
nodes = (
(269,0,l),
(276,95,l),
(219,131,l),
(227,520,l),
(229,606,l),
(96,658,l),
(52,596,l),
(56,82,l),
(32,22,l),
(56,0,l)
);
},
{
closed = 1;
nodes = (
(229,606,l),
(229,683,l),
(118,713,l),
(32,686,l),
(15,595,l),
(90,584,l)
);
}
);
width = 293;
},
{
anchors = (
{
name = bottom;
pos = (123,0);
},
{
name = center;
pos = (123,260);
},
{
name = top;
pos = (122,714);
},
{
name = topright;
pos = (258,714);
}
);
guides = (
{
pos = (237,244);
showMeasurement = 1;
}
);
layerId = m002;
shapes = (
{
closed = 1;
nodes = (
(193,0,l),
(210,69,l),
(165,131,l),
(173,520,l),
(175,606,l),
(78,658,l),
(80,596,l),
(84,82,l),
(39,48,l),
(38,0,l)
);
},
{
closed = 1;
nodes = (
(175,606,l),
(179,681,l),
(100,713,l),
(14,686,l),
(25,620,l),
(95,612,l)
);
}
);
width = 227;
}
);
metricLeft = h;
metricRight = a;
unicode = 108;
},
{
glyphname = lslash;
kernLeft = h;
lastChange = "2024-05-20 13:11:06 +0000";
layers = (
{
layerId = m01;
shapes = (
{
pos = (3,0);
ref = l;
},
{
closed = 1;
nodes = (
(15,329,l),
(43,290,l),
(257,309,l),
(300,395,l),
(292,426,l),
(19,414,l)
);
}
);
width = 317;
},
{
layerId = m002;
shapes = (
{
pos = (3,0);
ref = l;
},
{
closed = 1;
nodes = (
(15,329,l),
(43,290,l),
(257,309,l),
(300,395,l),
(292,426,l),
(19,414,l)
);
}
);
width = 317;
}
);
metricLeft = l;
metricRight = l;
unicode = 322;
},
{
glyphname = m;
kernLeft = a;
kernRight = n;
lastChange = "2024-05-20 13:43:48 +0000";
layers = (
{
layerId = m01;
shapes = (
{
closed = 1;
nodes = (
(284,0,l),
(298,82,l),
(260,133,l),
(258,326,l),
(266,522,l),
(122,520,l),
(21,480,l),
(12,402,l),
(37,367,l),
(74,356,l),
(75,142,l),
(43,106,l),
(43,41,l),
(89,0,l)
);
},
{
closed = 1;
nodes = (
(505,16,l),
(543,73,l),
(514,150,l),
(526,508,l),
(402,528,l),
(320,521,l),
(248,413,l),
(247,379,l),
(322,424,l),
(345,414,l),
(359,124,l),
(346,-2,l)
);
},
{
closed = 1;
nodes = (
(760,0,l),
(801,71,l),
(771,149,l),
(783,508,l),
(659,528,l),
(578,521,l),
(506,413,l),
(505,379,l),
(579,424,l),
(602,414,l),
(617,122,l),
(615,0,l)
);
}
);
width = 825;
},
{
guides = (
{
pos = (941,263);
showMeasurement = 1;
}
);
layerId = m002;
shapes = (
{
closed = 1;
nodes = (
(190,0,l),
(204,32,l),
(166,83,l),
(164,326,l),
(172,522,l),
(122,520,l),
(21,480,l),
(12,456,l),
(37,421,l),
(74,410,l),
(75,92,l),
(43,56,l),
(47,17,l),
(89,0,l)
);
},
{
closed = 1;
nodes = (
(465,17,l),
(503,74,l),
(474,151,l),
(486,509,l),
(402,528,l),
(320,521,l),
(154,413,l),
(153,379,l),
(322,424,l),
(388,414,l),
(402,124,l),
(389,-2,l)
);
},
{
closed = 1;
nodes = (
(760,0,l),
(801,71,l),
(771,149,l),
(783,508,l),
(659,528,l),
(578,521,l),
(465,413,l),
(464,379,l),
(579,424,l),
(682,410,l),
(697,118,l),
(695,-4,l)
);
}
);
width = 825;
}
);
unicode = 109;
},
{
glyphname = n;
kernLeft = a;
kernRight = n;
lastChange = "2024-05-20 13:38:04 +0000";
layers = (
{
anchors = (
{
name = bottom;
pos = (320,0);
},
{
name = right;
pos = (838,330);
},
{
name = top;
pos = (303,534);
}
);
layerId = m01;
shapes = (
{
closed = 1;
nodes = (
(303,0,l),
(302,72,l),
(258,133,l),
(258,326,l),
(266,522,l),
(107,520,l),
(21,480,l),
(12,402,l),
(37,367,l),
(74,356,l),
(74,139,l),
(42,104,l),
(42,38,l),
(81,0,l)
);
},
{
closed = 1;
nodes = (
(512,0,l),
(542,64,l),
(512,142,l),
(526,508,l),
(402,528,l),
(320,521,l),
(248,413,l),
(247,379,l),
(322,424,l),
(345,414,l),
(358,116,l),
(356,0,l)
);
}
);
width = 566;
},
{
anchors = (
{
name = bottom;
pos = (320,0);
},
{
name = right;
pos = (838,330);
},
{
name = top;
pos = (303,534);
}
);
guides = (
{
pos = (747,253);
showMeasurement = 1;
}
);
layerId = m002;
shapes = (
{
closed = 1;
nodes = (
(209,0,l),
(208,36,l),
(164,97,l),
(164,326,l),
(172,522,l),
(107,520,l),
(21,480,l),
(12,456,l),
(37,421,l),
(74,410,l),
(74,103,l),
(42,68,l),
(42,38,l),
(81,0,l)
);
},
{
closed = 1;
nodes = (
(512,0,l),
(542,64,l),
(512,142,l),
(526,508,l),
(319,524,l),
(246,480,l),
(154,387,l),
(148,323,l),
(378,430,l),
(432,413,l),
(433,113,l),
(421,-1,l)
);
}
);
width = 566;
}
);
metricLeft = m;
metricRight = m;
unicode = 110;
},
{
glyphname = o;
kernLeft = c;
kernRight = o;
lastChange = "2024-05-20 15:34:59 +0000";
layers = (
{
anchors = (
{
name = bottom;
pos = (231,0);
},
{
name = center;
pos = (231,260);
},
{
name = ogonek;
pos = (425,8);
},
{
name = top;
pos = (265,549);
},
{
name = topright;
pos = (457,520);
}
);
layerId = m01;
shapes = (
{
closed = 1;
nodes = (
(159,25,l),
(212,58,l),
(205,366,l),
(208,371,l),
(133,469,l),
(84,452,l),
(22,355,l),
(29,316,l),
(46,41,l),
(71,15,l)
);
},
{
closed = 1;
nodes = (
(430,41,l),
(477,379,l),
(443,485,l),
(396,520,l),
(312,509,l),
(330,152,l),
(309,124,l),
(172,114,l),
(73,25,l),
(131,-1,l),
(358,6,l)
);
},
{
closed = 1;
nodes = (
(144,397,l),
(396,419,l),
(396,520,l),
(167,520,l),
(75,504,l),
(22,355,l),
(49,382,l)
);
}
);
width = 513;
},
{
anchors = (
{
name = bottom;
pos = (231,0);
},
{
name = center;
pos = (231,260);
},
{
name = ogonek;
pos = (425,8);
},
{
name = top;
pos = (265,549);
},
{
name = topright;
pos = (457,520);
}
);
guides = (
{
pos = (285,251);
showMeasurement = 1;
}
);
layerId = m002;
shapes = (
{
closed = 1;
nodes = (
(141,23,l),
(125,87,l),
(125,383,l),
(116,409,l),
(133,469,l),
(84,452,l),
(22,355,l),
(29,316,l),
(46,41,l),
(71,15,l)
);
},
{
closed = 1;
nodes = (
(430,41,l),
(477,379,l),
(443,485,l),
(396,520,l),
(368,509,l),
(386,110,l),
(365,82,l),
(172,72,l),
(73,25,l),
(131,-1,l),
(358,6,l)
);
},
{
closed = 1;
nodes = (
(224,452,l),
(396,467,l),
(396,520,l),
(167,520,l),
(75,504,l),
(22,355,l),
(104,343,l)
);
}
);
width = 513;
}
);
metricLeft = c;
metricRight = b;
unicode = 111;
},
{
glyphname = oslash;
kernLeft = c;
kernRight = o;
lastChange = "2024-05-20 13:11:06 +0000";
layers = (
{
layerId = m01;
shapes = (
{
closed = 1;
nodes = (
(69,-21,l),
(79,-54,l),
(129,-67,l),
(457,546,l),
(437,575,l),
(374,561,l)
);
},
{
closed = 1;
nodes = (
(159,25,l),
(212,58,l),
(205,366,l),
(271,433,l),
(133,469,l),
(84,452,l),
(22,355,l),
(29,316,l),
(46,41,l),
(71,15,l)
);
},
{
closed = 1;
nodes = (
(421,41,l),
(477,379,l),
(443,485,l),
(396,520,l),
(312,509,l),
(295,129,l),
(376,129,l),
(73,25,l),
(131,-1,l),
(307,0,l)
);
},
{
closed = 1;
nodes = (
(144,397,l),
(396,419,l),
(396,520,l),
(167,520,l),
(75,504,l),
(22,355,l),
(49,382,l)
);
}
);
width = 513;
},
{
layerId = m002;
shapes = (
{
closed = 1;
nodes = (
(69,-21,l),
(79,-54,l),
(129,-67,l),
(457,546,l),
(437,575,l),
(374,561,l)
);
},
{
closed = 1;
nodes = (
(159,25,l),
(212,58,l),
(205,366,l),
(271,433,l),
(133,469,l),
(84,452,l),
(22,355,l),
(29,316,l),
(46,41,l),
(71,15,l)
);
},
{
closed = 1;
nodes = (
(421,41,l),
(477,379,l),
(443,485,l),
(396,520,l),
(312,509,l),
(295,129,l),
(376,129,l),
(73,25,l),
(131,-1,l),
(307,0,l)
);
},
{
closed = 1;
nodes = (
(144,397,l),
(396,419,l),
(396,520,l),
(167,520,l),
(75,504,l),
(22,355,l),
(49,382,l)
);
}
);
width = 513;
}
);
metricLeft = o;
metricRight = o;
unicode = 248;
},
{
glyphname = oe;
kernLeft = c;
lastChange = "2024-05-20 13:11:06 +0000";
layers = (
{
anchors = (
{
name = bottom;
pos = (541,0);
},
{
name = center;
pos = (212,260);
},
{
name = ogonek;
pos = (758,8);
},
{
name = top;
pos = (561,542);
},
{
name = topright;
pos = (438,520);
}
);
layerId = m01;
shapes = (
{
closed = 1;
nodes = (
(159,25,l),
(212,58,l),
(205,366,l),
(271,433,l),
(133,469,l),
(84,452,l),
(22,355,l),
(29,316,l),
(46,41,l),
(71,15,l)
);
},
{
closed = 1;
nodes = (
(421,41,l),
(477,379,l),
(443,485,l),
(396,520,l),
(312,509,l),
(295,129,l),
(376,129,l),
(73,25,l),
(131,-1,l),
(307,0,l)
);
},
{
closed = 1;
nodes = (
(144,397,l),
(396,419,l),
(396,520,l),
(167,520,l),
(75,504,l),
(22,355,l),
(49,382,l)
);
},
{
closed = 1;
nodes = (
(593,45,l),
(514,78,l),
(464,156,l),
(462,180,l),
(474,387,l),
(485,433,l),
(404,510,l),
(323,490,l),
(380,335,l),
(378,215,l),
(323,76,l),
(337,45,l)
);
},
{
closed = 1;
nodes = (
(414,-2,l),
(487,32,l),
(526,0,l),
(752,1,l),
(771,156,l),
(734,208,l),
(599,154,l),
(593,98,l),
(574,76,l),
(337,45,l)
);
},
{
closed = 1;
nodes = (
(788,301,l),
(776,478,l),
(674,510,l),
(526,526,l),
(404,510,l),
(423,424,l),
(438,363,l),
(576,433,l),
(610,425,l),
(617,306,l),
(400,302,l),
(391,235,l),
(509,240,l),
(593,191,l)
);
}
);
width = 808;
},
{
anchors = (
{
name = bottom;
pos = (541,0);
},
{
name = center;
pos = (212,260);
},
{
name = ogonek;
pos = (758,8);
},
{
name = top;
pos = (561,542);
},
{
name = topright;
pos = (438,520);
}
);
layerId = m002;
shapes = (
{
closed = 1;
nodes = (
(159,25,l),
(212,58,l),
(205,366,l),
(271,433,l),
(133,469,l),
(84,452,l),
(22,355,l),
(29,316,l),
(46,41,l),
(71,15,l)
);
},
{
closed = 1;
nodes = (
(421,41,l),
(477,379,l),
(443,485,l),
(396,520,l),
(312,509,l),
(295,129,l),
(376,129,l),
(73,25,l),
(131,-1,l),
(307,0,l)
);
},
{
closed = 1;
nodes = (
(144,397,l),
(396,419,l),
(396,520,l),
(167,520,l),
(75,504,l),
(22,355,l),
(49,382,l)
);
},
{
closed = 1;
nodes = (
(593,45,l),
(514,78,l),
(464,156,l),
(462,180,l),
(474,387,l),
(485,433,l),
(404,510,l),
(323,490,l),
(380,335,l),
(378,215,l),
(323,76,l),
(337,45,l)
);
},
{
closed = 1;
nodes = (
(414,-2,l),
(487,32,l),
(526,0,l),
(752,1,l),
(771,156,l),
(734,208,l),
(599,154,l),
(593,98,l),
(574,76,l),
(337,45,l)
);
},
{
closed = 1;
nodes = (
(788,301,l),
(776,478,l),
(674,510,l),
(526,526,l),
(404,510,l),
(423,424,l),
(438,363,l),
(576,433,l),
(610,425,l),
(617,306,l),
(400,302,l),
(391,235,l),
(509,240,l),
(593,191,l)
);
}
);
width = 808;
}
);
metricLeft = o;
metricRight = e;
unicode = 339;
},
{
glyphname = p;
kernLeft = a;
kernRight = o;
lastChange = "2024-05-20 17:57:00 +0000";
layers = (
{
layerId = m01;
shapes = (
{
closed = 1;
nodes = (
(460,30,l),
(512,130,l),
(530,298,l),
(496,473,l),
(323,520,l),
(224,415,l),
(132,407,l),
(153,294,l),
(352,383,l),
(382,334,l),
(334,97,l),
(255,95,l),
(200,174,l),
(132,174,l),
(192,130,l),
(259,-3,l)
);
},
{
closed = 1;
nodes = (
(224,-140,l),
(192,-76,l),
(126,-46,l),
(36,-59,l),
(12,-154,l),
(125,-195,l)
);
},
{
closed = 1;
nodes = (
(224,-140,l),
(211,410,l),
(255,469,l),
(213,520,l),
(13,520,l),
(11,446,l),
(56,409,l),
(64,-162,l),
(125,-195,l)
);
}
);
width = 566;
},
{
guides = (
{
pos = (763,240);
showMeasurement = 1;
}
);
layerId = m002;
shapes = (
{
closed = 1;
nodes = (
(460,30,l),
(512,130,l),
(530,298,l),
(496,473,l),
(323,520,l),
(213,468,l),
(123,445,l),
(129,383,l),
(324,437,l),
(458,324,l),
(410,87,l),
(255,95,l),
(201,130,l),
(132,174,l),
(132,144,l),
(259,-3,l)
);
},
{
closed = 1;
nodes = (
(149,-140,l),
(141,-70,l),
(80,-85,l),
(34,-107,l),
(34,-170,l),
(125,-195,l)
);
},
{
closed = 1;
nodes = (
(149,-140,l),
(136,443,l),
(153,487,l),
(138,520,l),
(13,520,l),
(11,479,l),
(56,442,l),
(64,-162,l),
(125,-195,l)
);
}
);
width = 566;
}
);
metricRight = b;
unicode = 112;
},
{
glyphname = thorn;
kernLeft = l;
kernRight = o;
lastChange = "2024-05-20 13:11:06 +0000";
layers = (
{
layerId = m01;
shapes = (
{
closed = 1;
nodes = (
(464,30,l),
(516,130,l),
(534,298,l),
(500,473,l),
(319,532,l),
(204,490,l),
(136,407,l),
(157,294,l),
(363,383,l),
(405,335,l),
(357,98,l),
(259,95,l),
(204,174,l),
(136,174,l),
(196,130,l),
(266,-15,l)
);
},
{
closed = 1;
nodes = (
(228,-140,l),
(196,-76,l),
(130,-46,l),
(40,-59,l),
(16,-154,l),
(129,-195,l)
);
},
{
closed = 1;
nodes = (
(228,-140,l),
(215,590,l),
(259,648,l),
(235,694,l),
(17,714,l),
(15,626,l),
(72,590,l),
(80,-161,l),
(129,-195,l)
);
}
);
width = 570;
},
{
layerId = m002;
shapes = (
{
closed = 1;
nodes = (
(464,30,l),
(516,130,l),
(534,298,l),
(500,473,l),
(319,532,l),
(204,490,l),
(136,407,l),
(157,294,l),
(363,383,l),
(405,335,l),
(357,98,l),
(259,95,l),
(204,174,l),
(136,174,l),
(196,130,l),
(266,-15,l)
);
},
{
closed = 1;
nodes = (
(228,-140,l),
(196,-76,l),
(130,-46,l),
(40,-59,l),
(16,-154,l),
(129,-195,l)
);
},
{
closed = 1;
nodes = (
(228,-140,l),
(215,590,l),
(259,648,l),
(235,694,l),
(17,714,l),
(15,626,l),
(72,590,l),
(80,-161,l),
(129,-195,l)
);
}
);
width = 570;
}
);
metricLeft = l;
metricRight = o;
unicode = 254;
},
{
glyphname = q;
kernLeft = c;
lastChange = "2024-05-20 18:00:53 +0000";
layers = (
{
layerId = m01;
shapes = (
{
closed = 1;
nodes = (
(339,115,l),
(322,174,l),
(274,90,l),
(138,115,l),
(189,372,l),
(279,383,l),
(382,294,l),
(404,407,l),
(279,444,l),
(238,520,l),
(69,480,l),
(22,278,l),
(40,109,l),
(92,10,l),
(257,-18,l)
);
},
{
closed = 1;
nodes = (
(538,-191,l),
(513,-96,l),
(423,-83,l),
(358,-113,l),
(337,-191,l),
(422,-218,l)
);
},
{
closed = 1;
nodes = (
(474,-198,l),
(468,380,l),
(514,416,l),
(516,520,l),
(308,520,l),
(281,469,l),
(305,410,l),
(305,-178,l),
(424,-232,l)
);
}
);
width = 538;
},
{
guides = (
{
pos = (234,255);
showMeasurement = 1;
}
);
layerId = m002;
shapes = (
{
closed = 1;
nodes = (
(401,124,l),
(389,174,l),
(274,48,l),
(103,93,l),
(125,400,l),
(306,414,l),
(398,340,l),
(404,407,l),
(308,475,l),
(238,520,l),
(69,480,l),
(22,278,l),
(40,109,l),
(92,10,l),
(257,-18,l)
);
},
{
closed = 1;
nodes = (
(516,-220,l),
(518,-156,l),
(428,-143,l),
(384,-156,l),
(382,-178,l),
(424,-232,l)
);
},
{
closed = 1;
nodes = (
(474,-198,l),
(468,439,l),
(514,475,l),
(516,520,l),
(370,520,l),
(370,469,l),
(382,410,l),
(382,-178,l),
(429,-216,l)
);
}
);
width = 538;
}
);
metricLeft = c;
unicode = 113;
},
{
glyphname = r;
kernLeft = a;
kernRight = r;
lastChange = "2024-05-20 17:49:07 +0000";
layers = (
{
anchors = (
{
name = bottom;
pos = (234,0);
},
{
name = top;
pos = (234,534);
}
);
layerId = m01;
shapes = (
{
closed = 1;
nodes = (
(279,0,l),
(282,88,l),
(224,124,l),
(228,340,l),
(230,426,l),
(98,478,l),
(53,416,l),
(60,101,l),
(36,42,l),
(50,0,l)
);
},
{
closed = 1;
nodes = (
(230,426,l),
(230,503,l),
(119,533,l),
(34,506,l),
(16,415,l),
(91,404,l)
);
},
{
closed = 1;
nodes = (
(464,430,l),
(467,510,l),
(343,530,l),
(262,522,l),
(190,414,l),
(189,381,l),
(263,426,l),
(286,415,l),
(288,370,l),
(409,315,l)
);
},
{
closed = 1;
nodes = (
(279,0,l),
(282,88,l),
(224,124,l),
(228,340,l),
(230,426,l),
(98,478,l),
(53,416,l),
(60,101,l),
(36,42,l),
(100,42,l)
);
},
{
closed = 1;
nodes = (
(290,293,l),
(377,255,l),
(395,286,l),
(409,315,l),
(288,370,l)
);
}
);
width = 477;
},
{
anchors = (
{
name = bottom;
pos = (234,0);
},
{
name = top;
pos = (234,534);
}
);
guides = (
{
pos = (541,176);
showMeasurement = 1;
}
);
layerId = m002;
shapes = (
{
closed = 1;
nodes = (
(201,0,l),
(204,52,l),
(146,88,l),
(146,340,l),
(148,426,l),
(98,478,l),
(53,416,l),
(60,65,l),
(36,42,l),
(50,0,l)
);
},
{
closed = 1;
nodes = (
(148,426,l),
(152,503,l),
(119,533,l),
(34,506,l),
(16,466,l),
(91,455,l)
);
},
{
closed = 1;
nodes = (
(464,430,l),
(467,510,l),
(343,530,l),
(262,522,l),
(136,414,l),
(135,381,l),
(277,443,l),
(366,441,l),
(354,370,l),
(409,315,l)
);
},
{
closed = 1;
nodes = (
(201,0,l),
(204,52,l),
(146,88,l),
(146,340,l),
(148,426,l),
(98,478,l),
(53,416,l),
(60,65,l),
(36,42,l),
(100,42,l)
);
},
{
closed = 1;
nodes = (
(343,315,l),
(360,294,l),
(395,286,l),
(409,315,l),
(354,370,l)
);
}
);
width = 477;
}
);
unicode = 114;
},
{
glyphname = s;
kernLeft = s;
kernRight = s;
lastChange = "2024-05-20 15:11:26 +0000";
layers = (
{
anchors = (
{
name = bottom;
pos = (260,35);
},
{
name = top;
pos = (230,538);
}
);
layerId = m01;
shapes = (
{
closed = 1;
nodes = (
(136,202,l),
(213,248,l),
(198,443,l),
(184,511,l),
(22,465,l),
(35,202,l)
);
},
{
closed = 1;
nodes = (
(318,6,l),
(433,58,l),
(298,58,l),
(163,158,l),
(36,86,l),
(35,1,l),
(123,-6,l),
(251,-8,l)
);
},
{
closed = 1;
nodes = (
(453,277,l),
(371,342,l),
(198,260,l),
(40,260,l),
(337,225,l)
);
},
{
closed = 1;
nodes = (
(433,58,l),
(453,277,l),
(308,296,l),
(264,5,l)
);
},
{
closed = 1;
nodes = (
(432,398,l),
(479,447,l),
(462,520,l),
(285,530,l),
(75,506,l),
(68,436,l),
(125,436,l),
(298,426,l),
(329,361,l)
);
}
);
width = 479;
},
{
anchors = (
{
name = bottom;
pos = (260,35);
},
{
name = top;
pos = (230,538);
}
);
guides = (
{
pos = (489,352);
showMeasurement = 1;
}
);
layerId = m002;
shapes = (
{
closed = 1;
nodes = (
(54,258,l),
(99,292,l),
(99,443,l),
(184,511,l),
(22,465,l),
(34,276,l)
);
},
{
closed = 1;
nodes = (
(318,6,l),
(433,58,l),
(184,42,l),
(99,113,l),
(36,86,l),
(35,1,l),
(123,-6,l),
(251,-8,l)
);
},
{
closed = 1;
nodes = (
(453,277,l),
(371,342,l),
(99,292,l),
(54,258,l),
(387,231,l)
);
},
{
closed = 1;
nodes = (
(433,58,l),
(453,277,l),
(379,300,l),
(344,32,l)
);
},
{
closed = 1;
nodes = (
(432,398,l),
(479,447,l),
(462,520,l),
(285,530,l),
(75,506,l),
(75,382,l),
(281,475,l),
(377,472,l),
(387,412,l)
);
}
);
width = 479;
}
);
metricLeft = c;
unicode = 115;
},
{
glyphname = germandbls;
lastChange = "2024-05-20 13:11:06 +0000";
layers = (
{
layerId = m01;
shapes = (
{
closed = 1;
nodes = (
(276,0,l),
(284,64,l),
(234,113,l),
(242,464,l),
(143,560,l),
(112,602,l),
(67,540,l),
(71,105,l),
(47,46,l),
(71,0,l)
);
},
{
closed = 1;
nodes = (
(233,395,l),
(225,463,l),
(157,506,l),
(32,492,l),
(2,462,l),
(57,363,l)
);
},
{
closed = 1;
nodes = (
(551,3,l),
(599,115,l),
(584,239,l),
(458,312,l),
(350,363,l),
(271,303,l),
(290,232,l),
(334,237,l),
(464,253,l),
(476,217,l),
(432,130,l),
(356,179,l),
(290,198,l),
(270,123,l),
(371,-41,l)
);
},
{
closed = 1;
nodes = (
(433,361,l),
(493,406,l),
(478,530,l),
(335,618,l),
(165,594,l),
(189,538,l),
(310,522,l),
(335,520,l),
(371,507,l),
(327,420,l),
(300,374,l),
(271,303,l)
);
},
{
closed = 1;
nodes = (
(335,618,l),
(170,658,l),
(84,630,l),
(67,540,l),
(142,529,l),
(310,522,l)
);
}
);
width = 599;
},
{
layerId = m002;
shapes = (
{
closed = 1;
nodes = (
(276,0,l),
(284,64,l),
(234,113,l),
(242,464,l),
(143,560,l),
(112,602,l),
(67,540,l),
(71,105,l),
(47,46,l),
(71,0,l)
);
},
{
closed = 1;
nodes = (
(233,395,l),
(225,463,l),
(157,506,l),
(32,492,l),
(2,462,l),
(57,363,l)
);
},
{
closed = 1;
nodes = (
(551,3,l),
(599,115,l),
(584,239,l),
(458,312,l),
(350,363,l),
(271,303,l),
(290,232,l),
(334,237,l),
(464,253,l),
(476,217,l),
(432,130,l),
(356,179,l),
(290,198,l),
(270,123,l),
(371,-41,l)
);
},
{
closed = 1;
nodes = (
(433,361,l),
(493,406,l),
(478,530,l),
(335,618,l),
(165,594,l),
(189,538,l),
(310,522,l),
(335,520,l),
(371,507,l),
(327,420,l),
(300,374,l),
(271,303,l)
);
},
{
closed = 1;
nodes = (
(335,618,l),
(170,658,l),
(84,630,l),
(67,540,l),
(142,529,l),
(310,522,l)
);
}
);
width = 599;
}
);
unicode = 223;
},
{
glyphname = t;
lastChange = "2024-05-20 21:11:23 +0000";
layers = (
{
anchors = (
{
name = bottom;
pos = (201,0);
},
{
name = center;
pos = (186,260);
},
{
name = top;
pos = (160,665);
},
{
name = topright;
pos = (365,714);
}
);
layerId = m01;
shapes = (
{
closed = 1;
nodes = (
(147,98,l),
(253,214,l),
(258,578,l),
(217,634,l),
(114,665,l),
(70,628,l),
(61,102,l),
(106,39,l)
);
},
{
closed = 1;
nodes = (
(294,14,l),
(254,122,l),
(166,145,l),
(61,102,l),
(78,11,l),
(164,-16,l)
);
},
{
closed = 1;
nodes = (
(310,18,l),
(339,156,l),
(278,170,l),
(210,115,l),
(236,93,l),
(267,11,l)
);
},
{
closed = 1;
nodes = (
(342,444,l),
(374,492,l),
(306,535,l),
(38,471,l),
(8,441,l),
(47,382,l)
);
}
);
width = 384;
},
{
anchors = (
{
name = bottom;
pos = (201,0);
},
{
name = center;
pos = (186,260);
},
{
name = top;
pos = (160,665);
},
{
name = topright;
pos = (365,714);
}
);
guides = (
{
pos = (362,318);
showMeasurement = 1;
}
);
layerId = m002;
shapes = (
{
closed = 1;
nodes = (
(169,100,l),
(214,214,l),
(219,578,l),
(178,634,l),
(135,641,l),
(121,628,l),
(112,118,l),
(132,27,l)
);
},
{
closed = 1;
nodes = (
(284,0,l),
(254,60,l),
(166,99,l),
(112,118,l),
(132,27,l),
(164,0,l)
);
},
{
closed = 1;
nodes = (
(300,4,l),
(339,156,l),
(278,170,l),
(249,138,l),
(236,93,l),
(257,-3,l)
);
},
{
closed = 1;
nodes = (
(336,453,l),
(333,503,l),
(300,520,l),
(48,520,l),
(38,490,l),
(57,455,l)
);
}
);
width = 384;
}
);
unicode = 116;
},
{
glyphname = u;
kernLeft = a;
kernRight = ar;
lastChange = "2024-05-20 17:30:27 +0000";
layers = (
{
anchors = (
{
name = bottom;
pos = (344,26);
},
{
name = ogonek;
pos = (487,8);
},
{
name = top;
pos = (284,543);
},
{
name = topright;
pos = (524,520);
}
);
layerId = m01;
shapes = (
{
closed = 1;
nodes = (
(539,0,l),
(548,77,l),
(523,112,l),
(485,124,l),
(486,377,l),
(518,412,l),
(518,478,l),
(470,520,l),
(262,520,l),
(258,423,l),
(315,362,l),
(314,154,l),
(307,0,l)
);
},
{
closed = 1;
nodes = (
(240,1,l),
(319,112,l),
(319,145,l),
(238,98,l),
(215,108,l),
(202,386,l),
(207,521,l),
(71,520,l),
(40,477,l),
(18,438,l),
(48,360,l),
(34,14,l),
(158,-6,l)
);
}
);
width = 568;
},
{
anchors = (
{
name = bottom;
pos = (344,26);
},
{
name = ogonek;
pos = (487,8);
},
{
name = top;
pos = (284,543);
},
{
name = topright;
pos = (524,520);
}
);
guides = (
{
pos = (664,238);
showMeasurement = 1;
}
);
layerId = m002;
shapes = (
{
closed = 1;
nodes = (
(521,0,l),
(530,41,l),
(505,76,l),
(485,88,l),
(486,425,l),
(518,460,l),
(514,520,l),
(470,520,l),
(386,520,l),
(382,471,l),
(404,410,l),
(403,154,l),
(396,0,l)
);
},
{
closed = 1;
nodes = (
(240,1,l),
(416,112,l),
(416,145,l),
(227,67,l),
(132,108,l),
(124,453,l),
(138,521,l),
(71,520,l),
(34,521,l),
(18,438,l),
(48,360,l),
(34,14,l),
(158,-6,l)
);
}
);
width = 568;
}
);
metricLeft = a;
unicode = 117;
},
{
glyphname = v;
kernLeft = v;
kernRight = v;
lastChange = "2024-05-20 17:43:58 +0000";
layers = (
{
layerId = m01;
shapes = (
{
closed = 1;
nodes = (
(314,0,l),
(178,487,l),
(86,502,l),
(29,470,l),
(65,343,l),
(126,35,l),
(188,0,l)
);
},
{
closed = 1;
nodes = (
(250,395,l),
(239,467,l),
(233,520,l),
(86,520,l),
(65,343,l)
);
},
{
closed = 1;
nodes = (
(407,46,l),
(494,386,l),
(522,487,l),
(494,520,l),
(360,520,l),
(302,290,l),
(277,39,l),
(321,39,l)
);
}
);
width = 522;
},
{
guides = (
{
pos = (619,235);
showMeasurement = 1;
}
);
layerId = m002;
shapes = (
{
closed = 1;
nodes = (
(257,0,l),
(97,487,l),
(86,502,l),
(29,470,l),
(65,343,l),
(140,35,l),
(212,0,l)
);
},
{
closed = 1;
nodes = (
(159,446,l),
(195,467,l),
(189,520,l),
(67,520,l),
(67,406,l)
);
},
{
closed = 1;
nodes = (
(407,46,l),
(496,421,l),
(522,487,l),
(494,520,l),
(438,520,l),
(346,130,l),
(257,0,l),
(301,0,l)
);
}
);
width = 522;
}
);
unicode = 118;
},
{
glyphname = w;
kernLeft = v;
kernRight = v;
lastChange = "2024-05-20 17:35:02 +0000";
layers = (
{
anchors = (
{
name = bottom;
pos = (460,0);
},
{
name = top;
pos = (460,541);
}
);
layerId = m01;
shapes = (
{
closed = 1;
nodes = (
(377,0,l),
(387,31,l),
(350,47,l),
(207,487,l),
(79,520,l),
(29,434,l),
(94,343,l),
(155,26,l),
(195,1,l)
);
},
{
closed = 1;
nodes = (
(266,394,l),
(273,445,l),
(255,520,l),
(79,520,l),
(94,343,l)
);
},
{
closed = 1;
nodes = (
(436,36,l),
(523,386,l),
(551,487,l),
(476,512,l),
(383,498,l),
(359,331,l),
(321,61,l),
(323,8,l)
);
},
{
closed = 1;
nodes = (
(723,0,l),
(741,54,l),
(695,33,l),
(547,487,l),
(475,507,l),
(560,150,l),
(611,0,l)
);
},
{
closed = 1;
nodes = (
(776,36,l),
(863,386,l),
(888,480,l),
(844,520,l),
(730,519,l),
(671,290,l),
(661,61,l),
(663,8,l)
);
}
);
width = 888;
},
{
anchors = (
{
name = bottom;
pos = (460,0);
},
{
name = top;
pos = (460,541);
}
);
guides = (
{
pos = (863,224);
showMeasurement = 1;
}
);
layerId = m002;
shapes = (
{
closed = 1;
nodes = (
(377,0,l),
(387,31,l),
(224,117,l),
(116,487,l),
(79,520,l),
(29,434,l),
(84,385,l),
(155,26,l),
(195,1,l)
);
},
{
closed = 1;
nodes = (
(266,464,l),
(273,515,l),
(255,520,l),
(79,520,l),
(116,406,l)
);
},
{
closed = 1;
nodes = (
(387,31,l),
(481,413,l),
(531,441,l),
(496,507,l),
(413,502,l),
(385,331,l),
(329,56,l),
(316,15,l)
);
},
{
closed = 1;
nodes = (
(761,0,l),
(776,36,l),
(683,74,l),
(547,487,l),
(496,507,l),
(581,150,l),
(632,0,l)
);
},
{
closed = 1;
nodes = (
(776,36,l),
(863,386,l),
(888,480,l),
(844,520,l),
(804,519,l),
(745,290,l),
(735,61,l),
(663,8,l)
);
}
);
width = 888;
}
);
metricLeft = v;
metricRight = v;
unicode = 119;
},
{
glyphname = x;
kernLeft = a;
lastChange = "2024-05-20 18:06:54 +0000";
layers = (
{
layerId = m01;
shapes = (
{
closed = 1;
nodes = (
(446,0,l),
(466,93,l),
(320,276,l),
(390,279,l),
(463,342,l),
(484,487,l),
(463,520,l),
(369,520,l),
(311,500,l),
(273,329,l),
(205,405,l),
(226,448,l),
(183,520,l),
(44,520,l),
(26,484,l),
(18,377,l),
(147,226,l),
(79,203,l),
(23,126,l),
(18,31,l),
(56,0,l),
(183,0,l),
(191,122,l),
(183,189,l),
(268,84,l),
(265,31,l),
(296,0,l)
);
}
);
width = 501;
},
{
layerId = m002;
shapes = (
{
closed = 1;
nodes = (
(463,0,l),
(457,53,l),
(287,265,l),
(357,344,l),
(421,416,l),
(484,487,l),
(463,520,l),
(369,520,l),
(346,459,l),
(237,310,l),
(141,434,l),
(162,477,l),
(142,520,l),
(44,520,l),
(26,484,l),
(79,377,l),
(191,246,l),
(118,142,l),
(18,119,l),
(18,31,l),
(56,0,l),
(99,0,l),
(164,93,l),
(235,199,l),
(329,84,l),
(333,35,l),
(357,0,l)
);
}
);
width = 501;
}
);
metricLeft = a;
metricRight = a;
unicode = 120;
},
{
glyphname = y;
kernLeft = v;
kernRight = v;
lastChange = "2024-05-20 21:14:09 +0000";
layers = (
{
anchors = (
{
name = bottom;
pos = (272,0);
},
{
name = top;
pos = (302,520);
}
);
layerId = m01;
shapes = (
{
closed = 1;
nodes = (
(340,-19,l),
(176,485,l),
(46,520,l),
(10,434,l),
(75,343,l),
(136,26,l),
(252,-17,l)
);
},
{
closed = 1;
nodes = (
(254,-225,l),
(376,-102,l),
(417,36,l),
(320,93,l),
(258,50,l),
(254,-142,l),
(132,-76,l),
(55,-154,l),
(108,-243,l)
);
},
{
closed = 1;
nodes = (
(260,395,l),
(267,491,l),
(172,520,l),
(46,520,l),
(75,343,l)
);
},
{
closed = 1;
nodes = (
(417,36,l),
(504,386,l),
(532,487,l),
(457,520,l),
(366,520,l),
(312,290,l),
(302,61,l),
(304,8,l)
);
}
);
width = 532;
},
{
anchors = (
{
name = bottom;
pos = (272,0);
},
{
name = top;
pos = (302,520);
}
);
guides = (
{
pos = (680,271);
showMeasurement = 1;
}
);
layerId = m002;
shapes = (
{
closed = 1;
nodes = (
(265,-19,l),
(101,485,l),
(46,520,l),
(10,434,l),
(75,343,l),
(136,26,l),
(180,9,l)
);
},
{
closed = 1;
nodes = (
(254,-225,l),
(376,-102,l),
(417,36,l),
(265,-19,l),
(314,-50,l),
(233,-182,l),
(108,-128,l),
(55,-154,l),
(108,-243,l)
);
},
{
closed = 1;
nodes = (
(206,430,l),
(206,500,l),
(172,520,l),
(46,520,l),
(92,438,l)
);
},
{
closed = 1;
nodes = (
(417,36,l),
(504,386,l),
(532,487,l),
(504,520,l),
(446,520,l),
(392,290,l),
(362,105,l),
(265,-19,l)
);
}
);
width = 532;
}
);
metricRight = v;
unicode = 121;
},
{
glyphname = z;
kernLeft = a;
lastChange = "2024-05-20 17:48:16 +0000";
layers = (
{
anchors = (
{
name = bottom;
pos = (238,0);
},
{
name = center;
pos = (238,260);
},
{
name = top;
pos = (272,533);
}
);
layerId = m01;
shapes = (
{
closed = 1;
nodes = (
(259,175,l),
(459,336,l),
(474,394,l),
(418,410,l),
(303,389,l),
(18,140,l),
(50,24,l),
(186,99,l)
);
},
{
closed = 1;
nodes = (
(412,0,l),
(445,24,l),
(184,118,l),
(41,92,l),
(22,-1,l)
);
},
{
closed = 1;
nodes = (
(482,21,l),
(501,215,l),
(450,224,l),
(387,238,l),
(321,149,l),
(315,8,l)
);
},
{
closed = 1;
nodes = (
(199,375,l),
(217,434,l),
(171,505,l),
(33,498,l),
(22,383,l),
(34,321,l)
);
},
{
closed = 1;
nodes = (
(470,480,l),
(456,519,l),
(264,501,l),
(121,430,l),
(474,394,l)
);
},
{
closed = 1;
nodes = (
(385,473,l),
(456,519,l),
(115,520,l),
(66,452,l)
);
}
);
width = 518;
},
{
anchors = (
{
name = bottom;
pos = (234,0);
},
{
name = center;
pos = (234,260);
},
{
name = top;
pos = (268,533);
}
);
guides = (
{
pos = (562,128);
showMeasurement = 1;
}
);
layerId = m002;
shapes = (
{
closed = 1;
nodes = (
(215,175,l),
(452,366,l),
(468,442,l),
(322,466,l),
(366,403,l),
(34,62,l),
(46,24,l),
(142,99,l)
);
},
{
closed = 1;
nodes = (
(408,0,l),
(441,24,l),
(177,88,l),
(34,62,l),
(18,-1,l)
);
},
{
closed = 1;
nodes = (
(478,21,l),
(497,215,l),
(486,230,l),
(464,238,l),
(398,149,l),
(392,8,l)
);
},
{
closed = 1;
nodes = (
(109,367,l),
(127,426,l),
(81,497,l),
(29,498,l),
(18,383,l),
(30,321,l)
);
},
{
closed = 1;
nodes = (
(466,480,l),
(452,519,l),
(260,501,l),
(186,468,l),
(468,442,l)
);
},
{
closed = 1;
nodes = (
(381,473,l),
(452,519,l),
(84,520,l),
(35,452,l)
);
}
);
width = 514;
}
);
metricLeft = a;
metricRight = a;
unicode = 122;
},
{
glyphname = g.ss01;
kernLeft = c;
lastChange = "2024-05-20 13:11:06 +0000";
layers = (
{
anchors = (
{
name = bottom;
pos = (269,-240);
},
{
name = top;
pos = (298,552);
}
);
layerId = m01;
shapes = (
{
closed = 1;
nodes = (
(179,38,l),
(225,112,l),
(191,374,l),
(149,412,l),
(155,469,l),
(105,452,l),
(43,354,l),
(48,222,l),
(68,26,l)
);
},
{
closed = 1;
nodes = (
(381,-241,l),
(348,-84,l),
(177,-140,l),
(193,-63,l),
(142,-34,l),
(81,-36,l),
(20,-74,l),
(93,-155,l),
(204,-253,l)
);
},
{
closed = 1;
nodes = (
(352,38,l),
(413,18,l),
(403,91,l),
(377,148,l),
(97,121,l),
(132,-2,l)
);
},
{
closed = 1;
nodes = (
(484,-80,l),
(427,188,l),
(359,112,l),
(309,108,l),
(346,-52,l),
(329,-117,l),
(279,-131,l),
(304,-170,l),
(337,-220,l),
(463,-225,l)
);
},
{
closed = 1;
nodes = (
(474,334,l),
(456,504,l),
(407,529,l),
(322,515,l),
(319,318,l),
(298,192,l),
(352,136,l),
(413,18,l)
);
},
{
closed = 1;
nodes = (
(407,428,l),
(407,529,l),
(199,524,l),
(96,504,l),
(44,417,l),
(165,397,l)
);
},
{
closed = 1;
nodes = (
(506,365,l),
(542,433,l),
(543,527,l),
(389,507,l),
(392,465,l),
(440,354,l)
);
}
);
width = 548;
},
{
anchors = (
{
name = bottom;
pos = (269,-240);
},
{
name = top;
pos = (298,552);
}
);
layerId = m002;
shapes = (
{
closed = 1;
nodes = (
(179,38,l),
(225,112,l),
(191,374,l),
(149,412,l),
(155,469,l),
(105,452,l),
(43,354,l),
(48,222,l),
(68,26,l)
);
},
{
closed = 1;
nodes = (
(381,-241,l),
(348,-84,l),
(177,-140,l),
(193,-63,l),
(142,-34,l),
(81,-36,l),
(20,-74,l),
(93,-155,l),
(204,-253,l)
);
},
{
closed = 1;
nodes = (
(352,38,l),
(413,18,l),
(403,91,l),
(377,148,l),
(97,121,l),
(132,-2,l)
);
},
{
closed = 1;
nodes = (
(484,-80,l),
(427,188,l),
(359,112,l),
(309,108,l),
(346,-52,l),
(329,-117,l),
(279,-131,l),
(304,-170,l),
(337,-220,l),
(463,-225,l)
);
},
{
closed = 1;
nodes = (
(474,334,l),
(456,504,l),
(407,529,l),
(322,515,l),
(319,318,l),
(298,192,l),
(352,136,l),
(413,18,l)
);
},
{
closed = 1;
nodes = (
(407,428,l),
(407,529,l),
(199,524,l),
(96,504,l),
(44,417,l),
(165,397,l)
);
},
{
closed = 1;
nodes = (
(506,365,l),
(542,433,l),
(543,527,l),
(389,507,l),
(392,465,l),
(440,354,l)
);
}
);
width = 548;
}
);
},
{
glyphname = h.ss01;
kernLeft = h;
kernRight = n;
lastChange = "2024-05-20 13:11:06 +0000";
layers = (
{
anchors = (
{
name = bottom;
pos = (265,0);
},
{
name = center;
pos = (128,571);
},
{
name = top;
pos = (131,699);
}
);
layerId = m01;
shapes = (
{
closed = 1;
nodes = (
(277,0,l),
(280,88,l),
(222,124,l),
(227,520,l),
(229,606,l),
(96,658,l),
(52,596,l),
(59,105,l),
(35,45,l),
(59,0,l)
);
},
{
closed = 1;
nodes = (
(365,-87,l),
(479,-29,l),
(487,60,l),
(479,388,l),
(500,508,l),
(376,528,l),
(295,521,l),
(223,413,l),
(222,379,l),
(296,424,l),
(320,414,l),
(325,258,l),
(332,29,l),
(332,-48,l)
);
},
{
closed = 1;
nodes = (
(229,606,l),
(229,683,l),
(118,713,l),
(32,686,l),
(15,595,l),
(90,584,l)
);
}
);
width = 524;
},
{
anchors = (
{
name = bottom;
pos = (265,0);
},
{
name = center;
pos = (128,571);
},
{
name = top;
pos = (131,699);
}
);
layerId = m002;
shapes = (
{
closed = 1;
nodes = (
(277,0,l),
(280,88,l),
(222,124,l),
(227,520,l),
(229,606,l),
(96,658,l),
(52,596,l),
(59,105,l),
(35,45,l),
(59,0,l)
);
},
{
closed = 1;
nodes = (
(365,-87,l),
(479,-29,l),
(487,60,l),
(479,388,l),
(500,508,l),
(376,528,l),
(295,521,l),
(223,413,l),
(222,379,l),
(296,424,l),
(320,414,l),
(325,258,l),
(332,29,l),
(332,-48,l)
);
},
{
closed = 1;
nodes = (
(229,606,l),
(229,683,l),
(118,713,l),
(32,686,l),
(15,595,l),
(90,584,l)
);
}
);
width = 524;
}
);
metricLeft = h;
metricRight = n;
},
{
glyphname = s.ss01;
kernLeft = s;
kernRight = s;
lastChange = "2024-05-20 13:11:06 +0000";
layers = (
{
anchors = (
{
name = bottom;
pos = (249,35);
},
{
name = top;
pos = (219,538);
}
);
layerId = m01;
shapes = (
{
closed = 1;
nodes = (
(124,204,l),
(184,247,l),
(181,457,l),
(184,528,l),
(22,482,l),
(23,204,l)
);
},
{
closed = 1;
nodes = (
(407,69,l),
(272,69,l),
(152,185,l),
(38,114,l),
(90,2,l),
(320,0,l)
);
},
{
closed = 1;
nodes = (
(427,277,l),
(345,342,l),
(26,268,l),
(28,262,l),
(311,225,l)
);
},
{
closed = 1;
nodes = (
(411,21,l),
(427,277,l),
(302,319,l),
(273,47,l)
);
},
{
closed = 1;
nodes = (
(406,398,l),
(453,447,l),
(436,520,l),
(259,530,l),
(75,523,l),
(43,472,l),
(125,412,l),
(272,426,l),
(303,361,l)
);
}
);
width = 453;
},
{
anchors = (
{
name = bottom;
pos = (249,35);
},
{
name = top;
pos = (219,538);
}
);
layerId = m002;
shapes = (
{
closed = 1;
nodes = (
(124,204,l),
(184,247,l),
(181,457,l),
(184,528,l),
(22,482,l),
(23,204,l)
);
},
{
closed = 1;
nodes = (
(407,69,l),
(272,69,l),
(152,185,l),
(38,114,l),
(90,2,l),
(320,0,l)
);
},
{
closed = 1;
nodes = (
(427,277,l),
(345,342,l),
(26,268,l),
(28,262,l),
(311,225,l)
);
},
{
closed = 1;
nodes = (
(411,21,l),
(427,277,l),
(302,319,l),
(273,47,l)
);
},
{
closed = 1;
nodes = (
(406,398,l),
(453,447,l),
(436,520,l),
(259,530,l),
(75,523,l),
(43,472,l),
(125,412,l),
(272,426,l),
(303,361,l)
);
}
);
width = 453;
}
);
metricLeft = s;
metricRight = s;
},
{
glyphname = x.001;
kernLeft = a;
lastChange = "2024-05-20 13:11:06 +0000";
layers = (
{
layerId = m01;
shapes = (
{
closed = 1;
nodes = (
(436,6,l),
(458,81,l),
(382,196,l),
(238,379,l),
(210,498,l),
(140,536,l),
(38,450,l),
(26,389,l),
(307,22,l),
(372,-14,l)
);
},
{
closed = 1;
nodes = (
(164,45,l),
(180,88,l),
(211,234,l),
(78,212,l),
(18,138,l),
(26,39,l),
(43,6,l),
(91,-22,l)
);
},
{
closed = 1;
nodes = (
(253,386,l),
(210,498,l),
(140,536,l),
(66,496,l),
(78,442,l),
(218,282,l)
);
},
{
closed = 1;
nodes = (
(423,273,l),
(469,330,l),
(498,474,l),
(481,508,l),
(433,536,l),
(288,444,l),
(300,254,l)
);
}
);
width = 515;
},
{
layerId = m002;
shapes = (
{
closed = 1;
nodes = (
(436,6,l),
(458,81,l),
(382,196,l),
(238,379,l),
(210,498,l),
(140,536,l),
(38,450,l),
(26,389,l),
(307,22,l),
(372,-14,l)
);
},
{
closed = 1;
nodes = (
(164,45,l),
(180,88,l),
(211,234,l),
(78,212,l),
(18,138,l),
(26,39,l),
(43,6,l),
(91,-22,l)
);
},
{
closed = 1;
nodes = (
(253,386,l),
(210,498,l),
(140,536,l),
(66,496,l),
(78,442,l),
(218,282,l)
);
},
{
closed = 1;
nodes = (
(423,273,l),
(469,330,l),
(498,474,l),
(481,508,l),
(433,536,l),
(288,444,l),
(300,254,l)
);
}
);
width = 515;
}
);
metricLeft = a;
metricRight = a;
},
{
glyphname = zero;
lastChange = "2024-05-20 13:11:06 +0000";
layers = (
{
layerId = m01;
shapes = (
{
closed = 1;
nodes = (
(210,556,l),
(457,642,l),
(218,700,l),
(75,639,l),
(45,170,l),
(48,68,l),
(226,54,l)
);
},
{
closed = 1;
nodes = (
(377,0,l),
(465,39,l),
(540,214,l),
(545,566,l),
(393,547,l),
(360,122,l),
(74,90,l),
(100,0,l)
);
},
{
closed = 1;
nodes = (
(545,620,l),
(501,653,l),
(436,700,l),
(248,677,l),
(227,584,l),
(515,539,l),
(545,566,l)
);
}
);
width = 568;
},
{
layerId = m002;
shapes = (
{
closed = 1;
nodes = (
(210,556,l),
(457,642,l),
(218,700,l),
(75,639,l),
(45,170,l),
(48,68,l),
(226,54,l)
);
},
{
closed = 1;
nodes = (
(377,0,l),
(465,39,l),
(540,214,l),
(545,566,l),
(393,547,l),
(360,122,l),
(74,90,l),
(100,0,l)
);
},
{
closed = 1;
nodes = (
(545,620,l),
(501,653,l),
(436,700,l),
(248,677,l),
(227,584,l),
(515,539,l),
(545,566,l)
);
}
);
width = 568;
}
);
unicode = 48;
},
{
glyphname = one;
lastChange = "2024-05-20 13:11:06 +0000";
layers = (
{
layerId = m01;
shapes = (
{
closed = 1;
nodes = (
(240,0,l),
(267,67,l),
(281,532,l),
(285,661,l),
(117,596,l),
(122,30,l)
);
},
{
closed = 1;
nodes = (
(306,0,l),
(322,110,l),
(259,167,l),
(85,134,l),
(64,77,l),
(91,2,l)
);
},
{
closed = 1;
nodes = (
(281,532,l),
(289,686,l),
(193,715,l),
(64,646,l),
(35,569,l),
(42,528,l)
);
}
);
width = 345;
},
{
layerId = m002;
shapes = (
{
closed = 1;
nodes = (
(240,0,l),
(267,67,l),
(281,532,l),
(285,661,l),
(117,596,l),
(122,30,l)
);
},
{
closed = 1;
nodes = (
(306,0,l),
(322,110,l),
(259,167,l),
(85,134,l),
(64,77,l),
(91,2,l)
);
},
{
closed = 1;
nodes = (
(281,532,l),
(289,686,l),
(193,715,l),
(64,646,l),
(35,569,l),
(42,528,l)
);
}
);
width = 345;
}
);
unicode = 49;
},
{
glyphname = two;
lastChange = "2024-05-20 13:11:06 +0000";
layers = (
{
layerId = m01;
shapes = (
{
closed = 1;
nodes = (
(222,57,l),
(203,136,l),
(242,144,l),
(256,204,l),
(535,366,l),
(545,535,l),
(465,670,l),
(362,401,l),
(70,225,l),
(61,161,l),
(59,0,l)
);
},
{
closed = 1;
nodes = (
(471,2,l),
(522,38,l),
(358,77,l),
(201,127,l),
(120,155,l),
(79,103,l),
(59,0,l)
);
},
{
closed = 1;
nodes = (
(206,409,l),
(224,462,l),
(304,702,l),
(70,613,l),
(62,556,l),
(42,386,l)
);
},
{
closed = 1;
nodes = (
(522,38,l),
(542,230,l),
(491,239,l),
(438,239,l),
(328,168,l),
(355,23,l)
);
},
{
closed = 1;
nodes = (
(423,638,l),
(304,702,l),
(146,687,l),
(134,625,l)
);
},
{
closed = 1;
nodes = (
(539,652,l),
(485,700,l),
(304,702,l),
(164,592,l),
(545,535,l)
);
}
);
width = 560;
},
{
layerId = m002;
shapes = (
{
closed = 1;
nodes = (
(222,57,l),
(203,136,l),
(242,144,l),
(256,204,l),
(535,366,l),
(545,535,l),
(465,670,l),
(362,401,l),
(70,225,l),
(61,161,l),
(59,0,l)
);
},
{
closed = 1;
nodes = (
(471,2,l),
(522,38,l),
(358,77,l),
(201,127,l),
(120,155,l),
(79,103,l),
(59,0,l)
);
},
{
closed = 1;
nodes = (
(206,409,l),
(224,462,l),
(304,702,l),
(70,613,l),
(62,556,l),
(42,386,l)
);
},
{
closed = 1;
nodes = (
(522,38,l),
(542,230,l),
(491,239,l),
(438,239,l),
(328,168,l),
(355,23,l)
);
},
{
closed = 1;
nodes = (
(423,638,l),
(304,702,l),
(146,687,l),
(134,625,l)
);
},
{
closed = 1;
nodes = (
(539,652,l),
(485,700,l),
(304,702,l),
(164,592,l),
(545,535,l)
);
}
);
width = 560;
}
);
unicode = 50;
},
{
glyphname = three;
lastChange = "2024-05-20 13:11:06 +0000";
layers = (
{
layerId = m01;
shapes = (
{
closed = 1;
nodes = (
(429,361,l),
(563,551,l),
(493,693,l),
(398,700,l),
(210,657,l),
(232,634,l),
(349,564,l),
(344,296,l)
);
},
{
closed = 1;
nodes = (
(193,94,l),
(254,177,l),
(188,242,l),
(146,266,l),
(58,260,l),
(64,64,l)
);
},
{
closed = 1;
nodes = (
(206,22,l),
(312,0,l),
(462,0,l),
(170,150,l),
(64,64,l),
(146,0,l)
);
},
{
closed = 1;
nodes = (
(542,262,l),
(429,361,l),
(344,296,l),
(318,66,l),
(462,0,l)
);
},
{
closed = 1;
nodes = (
(359,447,l),
(252,384,l),
(236,326,l),
(359,285,l)
);
},
{
closed = 1;
nodes = (
(220,472,l),
(242,595,l),
(370,528,l),
(398,700,l),
(138,700,l),
(30,517,l),
(46,450,l)
);
}
);
width = 563;
},
{
layerId = m002;
shapes = (
{
closed = 1;
nodes = (
(429,361,l),
(563,551,l),
(493,693,l),
(398,700,l),
(210,657,l),
(232,634,l),
(349,564,l),
(344,296,l)
);
},
{
closed = 1;
nodes = (
(193,94,l),
(254,177,l),
(188,242,l),
(146,266,l),
(58,260,l),
(64,64,l)
);
},
{
closed = 1;
nodes = (
(206,22,l),
(312,0,l),
(462,0,l),
(170,150,l),
(64,64,l),
(146,0,l)
);
},
{
closed = 1;
nodes = (
(542,262,l),
(429,361,l),
(344,296,l),
(318,66,l),
(462,0,l)
);
},
{
closed = 1;
nodes = (
(359,447,l),
(252,384,l),
(236,326,l),
(359,285,l)
);
},
{
closed = 1;
nodes = (
(220,472,l),
(242,595,l),
(370,528,l),
(398,700,l),
(138,700,l),
(30,517,l),
(46,450,l)
);
}
);
width = 563;
}
);
unicode = 51;
},
{
glyphname = four;
lastChange = "2024-05-20 13:11:06 +0000";
layers = (
{
layerId = m01;
shapes = (
{
closed = 1;
nodes = (
(482,117,l),
(516,206,l),
(503,270,l),
(136,218,l),
(163,267,l),
(458,655,l),
(395,700,l),
(320,700,l),
(16,306,l),
(62,117,l)
);
},
{
closed = 1;
nodes = (
(395,700,l),
(331,590,l),
(288,144,l),
(268,56,l),
(313,0,l),
(443,0,l),
(461,500,l),
(481,679,l)
);
}
);
width = 513;
},
{
layerId = m002;
shapes = (
{
closed = 1;
nodes = (
(482,117,l),
(516,206,l),
(503,270,l),
(136,218,l),
(163,267,l),
(458,655,l),
(395,700,l),
(320,700,l),
(16,306,l),
(62,117,l)
);
},
{
closed = 1;
nodes = (
(395,700,l),
(331,590,l),
(288,144,l),
(268,56,l),
(313,0,l),
(443,0,l),
(461,500,l),
(481,679,l)
);
}
);
width = 513;
}
);
unicode = 52;
},
{
glyphname = five;
lastChange = "2024-05-20 13:11:06 +0000";
layers = (
{
layerId = m01;
shapes = (
{
closed = 1;
nodes = (
(349,279,l),
(424,227,l),
(469,307,l),
(509,383,l),
(424,456,l),
(86,371,l),
(60,322,l),
(77,263,l)
);
},
{
closed = 1;
nodes = (
(342,0,l),
(486,21,l),
(435,170,l),
(222,75,l),
(194,194,l),
(100,176,l),
(54,22,l),
(155,0,l)
);
},
{
closed = 1;
nodes = (
(561,277,l),
(509,383,l),
(401,337,l),
(414,42,l),
(486,21,l)
);
},
{
closed = 1;
nodes = (
(198,383,l),
(204,514,l),
(386,670,l),
(319,700,l),
(86,670,l),
(86,371,l)
);
},
{
closed = 1;
nodes = (
(398,542,l),
(397,513,l),
(560,536,l),
(582,582,l),
(529,700,l),
(305,683,l),
(189,523,l)
);
}
);
width = 582;
},
{
layerId = m002;
shapes = (
{
closed = 1;
nodes = (
(349,279,l),
(424,227,l),
(469,307,l),
(509,383,l),
(424,456,l),
(86,371,l),
(60,322,l),
(77,263,l)
);
},
{
closed = 1;
nodes = (
(342,0,l),
(486,21,l),
(435,170,l),
(222,75,l),
(194,194,l),
(100,176,l),
(54,22,l),
(155,0,l)
);
},
{
closed = 1;
nodes = (
(561,277,l),
(509,383,l),
(401,337,l),
(414,42,l),
(486,21,l)
);
},
{
closed = 1;
nodes = (
(198,383,l),
(204,514,l),
(386,670,l),
(319,700,l),
(86,670,l),
(86,371,l)
);
},
{
closed = 1;
nodes = (
(398,542,l),
(397,513,l),
(560,536,l),
(582,582,l),
(529,700,l),
(305,683,l),
(189,523,l)
);
}
);
width = 582;
}
);
unicode = 53;
},
{
glyphname = six;
lastChange = "2024-05-20 13:11:06 +0000";
layers = (
{
layerId = m01;
shapes = (
{
closed = 1;
nodes = (
(220,0,l),
(224,550,l),
(264,570,l),
(374,572,l),
(411,511,l),
(537,492,l),
(568,639,l),
(500,696,l),
(353,706,l),
(178,685,l),
(61,503,l),
(56,136,l),
(127,0,l)
);
},
{
closed = 1;
nodes = (
(365,0,l),
(489,41,l),
(380,68,l),
(108,126,l),
(113,57,l),
(159,0,l)
);
},
{
closed = 1;
nodes = (
(164,275,l),
(384,346,l),
(388,298,l),
(552,262,l),
(508,378,l),
(438,441,l),
(271,470,l),
(174,288,l)
);
},
{
closed = 1;
nodes = (
(552,262,l),
(482,391,l),
(384,368,l),
(365,61,l),
(489,41,l)
);
}
);
width = 568;
},
{
layerId = m002;
shapes = (
{
closed = 1;
nodes = (
(220,0,l),
(224,550,l),
(264,570,l),
(374,572,l),
(411,511,l),
(537,492,l),
(568,639,l),
(500,696,l),
(353,706,l),
(178,685,l),
(61,503,l),
(56,136,l),
(127,0,l)
);
},
{
closed = 1;
nodes = (
(365,0,l),
(489,41,l),
(380,68,l),
(108,126,l),
(113,57,l),
(159,0,l)
);
},
{
closed = 1;
nodes = (
(164,275,l),
(384,346,l),
(388,298,l),
(552,262,l),
(508,378,l),
(438,441,l),
(271,470,l),
(174,288,l)
);
},
{
closed = 1;
nodes = (
(552,262,l),
(482,391,l),
(384,368,l),
(365,61,l),
(489,41,l)
);
}
);
width = 568;
}
);
unicode = 54;
},
{
glyphname = seven;
lastChange = "2024-05-20 13:11:06 +0000";
layers = (
{
layerId = m01;
shapes = (
{
closed = 1;
nodes = (
(290,1,l),
(324,27,l),
(504,574,l),
(442,700,l),
(217,676,l),
(189,584,l),
(353,584,l),
(140,0,l)
);
},
{
closed = 1;
nodes = (
(178,470,l),
(234,611,l),
(301,668,l),
(266,700,l),
(30,700,l),
(46,481,l)
);
},
{
closed = 1;
nodes = (
(463,371,l),
(168,362,l),
(118,254,l),
(138,219,l),
(427,222,l),
(464,271,l),
(482,362,l)
);
}
);
width = 511;
},
{
layerId = m002;
shapes = (
{
closed = 1;
nodes = (
(290,1,l),
(324,27,l),
(504,574,l),
(442,700,l),
(217,676,l),
(189,584,l),
(353,584,l),
(140,0,l)
);
},
{
closed = 1;
nodes = (
(178,470,l),
(234,611,l),
(301,668,l),
(266,700,l),
(30,700,l),
(46,481,l)
);
},
{
closed = 1;
nodes = (
(463,371,l),
(168,362,l),
(118,254,l),
(138,219,l),
(427,222,l),
(464,271,l),
(482,362,l)
);
}
);
width = 511;
}
);
unicode = 55;
},
{
glyphname = eight;
lastChange = "2024-05-20 13:11:06 +0000";
layers = (
{
layerId = m01;
shapes = (
{
closed = 1;
nodes = (
(491,97,l),
(194,109,l),
(220,298,l),
(289,338,l),
(223,402,l),
(35,298,l),
(30,110,l),
(104,1,l),
(437,0,l)
);
},
{
closed = 1;
nodes = (
(174,394,l),
(235,452,l),
(262,650,l),
(89,662,l),
(35,454,l),
(126,373,l)
);
},
{
closed = 1;
nodes = (
(516,361,l),
(155,479,l),
(126,373,l),
(433,269,l)
);
},
{
closed = 1;
nodes = (
(586,232,l),
(516,361,l),
(409,282,l),
(386,31,l),
(509,11,l)
);
},
{
closed = 1;
nodes = (
(551,423,l),
(592,582,l),
(529,700,l),
(166,700,l),
(143,566,l),
(388,575,l),
(416,566,l),
(410,428,l),
(258,400,l),
(353,373,l)
);
}
);
width = 592;
},
{
layerId = m002;
shapes = (
{
closed = 1;
nodes = (
(491,97,l),
(194,109,l),
(220,298,l),
(289,338,l),
(223,402,l),
(35,298,l),
(30,110,l),
(104,1,l),
(437,0,l)
);
},
{
closed = 1;
nodes = (
(174,394,l),
(235,452,l),
(262,650,l),
(89,662,l),
(35,454,l),
(126,373,l)
);
},
{
closed = 1;
nodes = (
(516,361,l),
(155,479,l),
(126,373,l),
(433,269,l)
);
},
{
closed = 1;
nodes = (
(586,232,l),
(516,361,l),
(409,282,l),
(386,31,l),
(509,11,l)
);
},
{
closed = 1;
nodes = (
(551,423,l),
(592,582,l),
(529,700,l),
(166,700,l),
(143,566,l),
(388,575,l),
(416,566,l),
(410,428,l),
(258,400,l),
(353,373,l)
);
}
);
width = 592;
}
);
unicode = 56;
},
{
glyphname = nine;
lastChange = "2024-05-20 13:11:06 +0000";
layers = (
{
layerId = m01;
shapes = (
{
closed = 1;
nodes = (
(307,0,l),
(324,121,l),
(188,145,l),
(146,198,l),
(38,170,l),
(18,125,l),
(76,0,l)
);
},
{
closed = 1;
nodes = (
(190,358,l),
(165,618,l),
(43,654,l),
(18,408,l),
(87,279,l)
);
},
{
closed = 1;
nodes = (
(278,271,l),
(356,403,l),
(396,441,l),
(370,479,l),
(248,382,l),
(74,365,l),
(43,298,l),
(126,240,l)
);
},
{
closed = 1;
nodes = (
(442,652,l),
(364,708,l),
(142,680,l),
(43,654,l),
(154,608,l),
(392,554,l)
);
},
{
closed = 1;
nodes = (
(439,691,l),
(334,678,l),
(328,253,l),
(324,121,l),
(165,50,l),
(307,0,l),
(462,125,l),
(473,197,l),
(492,658,l)
);
}
);
width = 502;
},
{
layerId = m002;
shapes = (
{
closed = 1;
nodes = (
(307,0,l),
(324,121,l),
(188,145,l),
(146,198,l),
(38,170,l),
(18,125,l),
(76,0,l)
);
},
{
closed = 1;
nodes = (
(190,358,l),
(165,618,l),
(43,654,l),
(18,408,l),
(87,279,l)
);
},
{
closed = 1;
nodes = (
(278,271,l),
(356,403,l),
(396,441,l),
(370,479,l),
(248,382,l),
(74,365,l),
(43,298,l),
(126,240,l)
);
},
{
closed = 1;
nodes = (
(442,652,l),
(364,708,l),
(142,680,l),
(43,654,l),
(154,608,l),
(392,554,l)
);
},
{
closed = 1;
nodes = (
(439,691,l),
(334,678,l),
(328,253,l),
(324,121,l),
(165,50,l),
(307,0,l),
(462,125,l),
(473,197,l),
(492,658,l)
);
}
);
width = 502;
}
);
unicode = 57;
},
{
glyphname = period;
kernLeft = period;
kernRight = comma;
lastChange = "2024-05-20 13:11:06 +0000";
layers = (
{
layerId = m01;
shapes = (
{
closed = 1;
nodes = (
(202,11,l),
(194,79,l),
(123,169,l),
(21,131,l),
(25,36,l),
(90,-14,l)
);
}
);
width = 214;
},
{
layerId = m002;
shapes = (
{
closed = 1;
nodes = (
(202,11,l),
(194,79,l),
(123,169,l),
(21,131,l),
(25,36,l),
(90,-14,l)
);
}
);
width = 214;
}
);
unicode = 46;
},
{
glyphname = comma;
kernLeft = period;
kernRight = comma_d;
lastChange = "2024-05-20 13:11:06 +0000";
layers = (
{
layerId = m01;
shapes = (
{
closed = 1;
nodes = (
(165,-124,l),
(201,14,l),
(72,44,l),
(92,-50,l),
(61,-61,l),
(26,-161,l),
(106,-206,l)
);
},
{
closed = 1;
nodes = (
(201,14,l),
(206,110,l),
(98,150,l),
(24,57,l),
(16,-12,l),
(133,-38,l)
);
}
);
width = 246;
},
{
layerId = m002;
shapes = (
{
closed = 1;
nodes = (
(165,-124,l),
(201,14,l),
(72,44,l),
(92,-50,l),
(61,-61,l),
(26,-161,l),
(106,-206,l)
);
},
{
closed = 1;
nodes = (
(201,14,l),
(206,110,l),
(98,150,l),
(24,57,l),
(16,-12,l),
(133,-38,l)
);
}
);
width = 246;
}
);
unicode = 44;
},
{
glyphname = colon;
lastChange = "2024-05-20 13:11:06 +0000";
layers = (
{
layerId = m01;
shapes = (
{
closed = 1;
nodes = (
(201,335,l),
(197,429,l),
(132,480,l),
(20,454,l),
(28,387,l),
(97,297,l)
);
},
{
closed = 1;
nodes = (
(201,25,l),
(193,93,l),
(122,183,l),
(20,145,l),
(24,50,l),
(89,0,l)
);
}
);
width = 301;
},
{
layerId = m002;
shapes = (
{
closed = 1;
nodes = (
(201,335,l),
(197,429,l),
(132,480,l),
(20,454,l),
(28,387,l),
(97,297,l)
);
},
{
closed = 1;
nodes = (
(201,25,l),
(193,93,l),
(122,183,l),
(20,145,l),
(24,50,l),
(89,0,l)
);
}
);
width = 301;
}
);
unicode = 58;
},
{
glyphname = semicolon;
kernLeft = a;
lastChange = "2024-05-20 13:11:06 +0000";
layers = (
{
layerId = m01;
shapes = (
{
closed = 1;
nodes = (
(166,-83,l),
(201,45,l),
(76,72,l),
(96,-15,l),
(66,-24,l),
(33,-116,l),
(110,-158,l)
);
},
{
closed = 1;
nodes = (
(201,45,l),
(205,133,l),
(101,169,l),
(30,84,l),
(22,21,l),
(135,-3,l)
);
},
{
closed = 1;
nodes = (
(209,299,l),
(201,370,l),
(128,465,l),
(20,425,l),
(25,299,l),
(92,272,l)
);
}
);
width = 369;
},
{
layerId = m002;
shapes = (
{
closed = 1;
nodes = (
(166,-83,l),
(201,45,l),
(76,72,l),
(96,-15,l),
(66,-24,l),
(33,-116,l),
(110,-158,l)
);
},
{
closed = 1;
nodes = (
(201,45,l),
(205,133,l),
(101,169,l),
(30,84,l),
(22,21,l),
(135,-3,l)
);
},
{
closed = 1;
nodes = (
(209,299,l),
(201,370,l),
(128,465,l),
(20,425,l),
(25,299,l),
(92,272,l)
);
}
);
width = 369;
}
);
unicode = 59;
},
{
glyphname = exclam;
lastChange = "2024-05-20 13:11:06 +0000";
layers = (
{
layerId = m01;
shapes = (
{
closed = 1;
nodes = (
(218,245,l),
(262,382,l),
(273,666,l),
(215,710,l),
(98,708,l),
(77,601,l),
(128,242,l),
(179,222,l)
);
},
{
closed = 1;
nodes = (
(282,11,l),
(274,78,l),
(204,168,l),
(101,130,l),
(105,36,l),
(170,-15,l)
);
}
);
width = 318;
},
{
layerId = m002;
shapes = (
{
closed = 1;
nodes = (
(218,245,l),
(262,382,l),
(273,666,l),
(215,710,l),
(98,708,l),
(77,601,l),
(128,242,l),
(179,222,l)
);
},
{
closed = 1;
nodes = (
(282,11,l),
(274,78,l),
(204,168,l),
(101,130,l),
(105,36,l),
(170,-15,l)
);
}
);
width = 318;
}
);
unicode = 33;
},
{
glyphname = exclamdown;
lastChange = "2024-05-20 13:11:06 +0000";
layers = (
{
layerId = m01;
shapes = (
{
closed = 1;
nodes = (
(128,255,l),
(77,-104,l),
(98,-211,l),
(215,-213,l),
(273,-170,l),
(262,115,l),
(218,252,l),
(179,274,l)
);
},
{
closed = 1;
nodes = (
(105,461,l),
(101,367,l),
(204,329,l),
(274,419,l),
(282,486,l),
(170,512,l)
);
}
);
width = 318;
},
{
layerId = m002;
shapes = (
{
closed = 1;
nodes = (
(128,255,l),
(77,-104,l),
(98,-211,l),
(215,-213,l),
(273,-170,l),
(262,115,l),
(218,252,l),
(179,274,l)
);
},
{
closed = 1;
nodes = (
(105,461,l),
(101,367,l),
(204,329,l),
(274,419,l),
(282,486,l),
(170,512,l)
);
}
);
width = 318;
}
);
unicode = 161;
},
{
glyphname = question;
lastChange = "2024-05-20 13:11:06 +0000";
layers = (
{
layerId = m01;
shapes = (
{
closed = 1;
nodes = (
(318,286,l),
(314,379,l),
(469,463,l),
(439,732,l),
(184,677,l),
(97,635,l),
(287,647,l),
(303,460,l),
(242,466,l),
(187,335,l),
(202,254,l),
(290,247,l)
);
},
{
closed = 1;
nodes = (
(370,7,l),
(362,75,l),
(291,165,l),
(189,127,l),
(193,32,l),
(258,-18,l)
);
},
{
closed = 1;
nodes = (
(198,470,l),
(234,600,l),
(330,628,l),
(316,747,l),
(90,721,l),
(68,625,l),
(56,441,l),
(159,417,l)
);
}
);
width = 504;
},
{
layerId = m002;
shapes = (
{
closed = 1;
nodes = (
(318,286,l),
(314,379,l),
(469,463,l),
(439,732,l),
(184,677,l),
(97,635,l),
(287,647,l),
(303,460,l),
(242,466,l),
(187,335,l),
(202,254,l),
(290,247,l)
);
},
{
closed = 1;
nodes = (
(370,7,l),
(362,75,l),
(291,165,l),
(189,127,l),
(193,32,l),
(258,-18,l)
);
},
{
closed = 1;
nodes = (
(198,470,l),
(234,600,l),
(330,628,l),
(316,747,l),
(90,721,l),
(68,625,l),
(56,441,l),
(159,417,l)
);
}
);
width = 504;
}
);
unicode = 63;
},
{
glyphname = questiondown;
lastChange = "2024-05-20 13:11:06 +0000";
layers = (
{
layerId = m01;
shapes = (
{
closed = 1;
nodes = (
(202,244,l),
(187,163,l),
(242,32,l),
(303,38,l),
(286,-168,l),
(96,-155,l),
(184,-179,l),
(439,-234,l),
(469,34,l),
(314,119,l),
(318,212,l),
(290,250,l)
);
},
{
closed = 1;
nodes = (
(193,466,l),
(189,371,l),
(291,333,l),
(362,423,l),
(370,490,l),
(258,516,l)
);
},
{
closed = 1;
nodes = (
(56,57,l),
(68,-127,l),
(90,-223,l),
(316,-250,l),
(330,-130,l),
(234,-102,l),
(198,28,l),
(159,81,l)
);
}
);
width = 480;
},
{
layerId = m002;
shapes = (
{
closed = 1;
nodes = (
(202,244,l),
(187,163,l),
(242,32,l),
(303,38,l),
(286,-168,l),
(96,-155,l),
(184,-179,l),
(439,-234,l),
(469,34,l),
(314,119,l),
(318,212,l),
(290,250,l)
);
},
{
closed = 1;
nodes = (
(193,466,l),
(189,371,l),
(291,333,l),
(362,423,l),
(370,490,l),
(258,516,l)
);
},
{
closed = 1;
nodes = (
(56,57,l),
(68,-127,l),
(90,-223,l),
(316,-250,l),
(330,-130,l),
(234,-102,l),
(198,28,l),
(159,81,l)
);
}
);
width = 480;
}
);
unicode = 191;
},
{
glyphname = bullet;
lastChange = "2024-05-20 13:11:06 +0000";
layers = (
{
layerId = m01;
shapes = (
{
closed = 1;
nodes = (
(373,300,l),
(329,386,l),
(265,430,l),
(165,368,l),
(178,240,l),
(316,189,l)
);
}
);
width = 534;
},
{
layerId = m002;
shapes = (
{
closed = 1;
nodes = (
(373,300,l),
(329,386,l),
(265,430,l),
(165,368,l),
(178,240,l),
(316,189,l)
);
}
);
width = 534;
}
);
unicode = 8226;
},
{
glyphname = asterisk;
lastChange = "2024-05-20 13:11:06 +0000";
layers = (
{
layerId = m01;
shapes = (
{
closed = 1;
nodes = (
(286,547,l),
(199,572,l),
(207,603,l),
(142,678,l),
(69,630,l),
(106,546,l),
(200,452,l)
);
},
{
closed = 1;
nodes = (
(175,356,l),
(296,409,l),
(240,523,l),
(184,452,l),
(158,471,l),
(66,438,l),
(84,351,l)
);
},
{
closed = 1;
nodes = (
(389,358,l),
(375,490,l),
(250,470,l),
(300,395,l),
(275,377,l),
(278,278,l),
(366,269,l)
);
},
{
closed = 1;
nodes = (
(362,455,l),
(366,543,l),
(262,580,l),
(192,494,l),
(184,431,l),
(297,407,l)
);
},
{
closed = 1;
nodes = (
(318,602,l),
(350,605,l),
(395,692,l),
(325,744,l),
(259,679,l),
(205,558,l),
(324,512,l)
);
},
{
closed = 1;
nodes = (
(525,530,l),
(444,573,l),
(313,589,l),
(304,462,l),
(387,494,l),
(400,465,l),
(496,446,l)
);
}
);
width = 534;
},
{
layerId = m002;
shapes = (
{
closed = 1;
nodes = (
(286,547,l),
(199,572,l),
(207,603,l),
(142,678,l),
(69,630,l),
(106,546,l),
(200,452,l)
);
},
{
closed = 1;
nodes = (
(175,356,l),
(296,409,l),
(240,523,l),
(184,452,l),
(158,471,l),
(66,438,l),
(84,351,l)
);
},
{
closed = 1;
nodes = (
(389,358,l),
(375,490,l),
(250,470,l),
(300,395,l),
(275,377,l),
(278,278,l),
(366,269,l)
);
},
{
closed = 1;
nodes = (
(362,455,l),
(366,543,l),
(262,580,l),
(192,494,l),
(184,431,l),
(297,407,l)
);
},
{
closed = 1;
nodes = (
(318,602,l),
(350,605,l),
(395,692,l),
(325,744,l),
(259,679,l),
(205,558,l),
(324,512,l)
);
},
{
closed = 1;
nodes = (
(525,530,l),
(444,573,l),
(313,589,l),
(304,462,l),
(387,494,l),
(400,465,l),
(496,446,l)
);
}
);
width = 534;
}
);
unicode = 42;
},
{
glyphname = numbersign;
lastChange = "2024-05-20 13:11:06 +0000";
layers = (
{
layerId = m01;
shapes = (
{
closed = 1;
nodes = (
(208,-69,l),
(381,603,l),
(396,654,l),
(396,706,l),
(316,728,l),
(263,634,l),
(84,-38,l),
(119,-92,l)
);
},
{
closed = 1;
nodes = (
(470,-69,l),
(642,603,l),
(658,654,l),
(658,706,l),
(576,702,l),
(525,634,l),
(346,-38,l),
(362,-70,l)
);
},
{
closed = 1;
nodes = (
(106,358,l),
(650,383,l),
(703,383,l),
(753,398,l),
(751,481,l),
(646,505,l),
(100,486,l),
(58,437,l)
);
},
{
closed = 1;
nodes = (
(30,108,l),
(573,123,l),
(626,123,l),
(675,138,l),
(658,230,l),
(569,245,l),
(26,235,l),
(0,158,l)
);
}
);
width = 753;
},
{
layerId = m002;
shapes = (
{
closed = 1;
nodes = (
(208,-69,l),
(381,603,l),
(396,654,l),
(396,706,l),
(316,728,l),
(263,634,l),
(84,-38,l),
(119,-92,l)
);
},
{
closed = 1;
nodes = (
(470,-69,l),
(642,603,l),
(658,654,l),
(658,706,l),
(576,702,l),
(525,634,l),
(346,-38,l),
(362,-70,l)
);
},
{
closed = 1;
nodes = (
(106,358,l),
(650,383,l),
(703,383,l),
(753,398,l),
(751,481,l),
(646,505,l),
(100,486,l),
(58,437,l)
);
},
{
closed = 1;
nodes = (
(30,108,l),
(573,123,l),
(626,123,l),
(675,138,l),
(658,230,l),
(569,245,l),
(26,235,l),
(0,158,l)
);
}
);
width = 753;
}
);
unicode = 35;
},
{
glyphname = slash;
lastChange = "2024-05-20 13:11:06 +0000";
layers = (
{
layerId = m01;
shapes = (
{
closed = 1;
nodes = (
(172,-172,l),
(366,611,l),
(382,662,l),
(382,714,l),
(270,734,l),
(218,639,l),
(17,-143,l),
(52,-198,l)
);
}
);
width = 382;
},
{
layerId = m002;
shapes = (
{
closed = 1;
nodes = (
(172,-172,l),
(366,611,l),
(382,662,l),
(382,714,l),
(270,734,l),
(218,639,l),
(17,-143,l),
(52,-198,l)
);
}
);
width = 382;
}
);
unicode = 47;
},
{
glyphname = backslash;
lastChange = "2024-05-20 13:11:06 +0000";
layers = (
{
layerId = m01;
shapes = (
{
closed = 1;
nodes = (
(382,-143,l),
(181,639,l),
(128,734,l),
(17,714,l),
(17,662,l),
(32,611,l),
(226,-172,l),
(346,-198,l)
);
}
);
width = 438;
},
{
layerId = m002;
shapes = (
{
closed = 1;
nodes = (
(382,-143,l),
(181,639,l),
(128,734,l),
(17,714,l),
(17,662,l),
(32,611,l),
(226,-172,l),
(346,-198,l)
);
}
);
width = 438;
}
);
unicode = 92;
},
{
glyphname = hyphen;
kernLeft = hyphen;
kernRight = hyphen;
lastChange = "2024-05-20 13:11:06 +0000";
layers = (
{
layerId = m01;
shapes = (
{
closed = 1;
nodes = (
(61,272,l),
(56,195,l),
(94,188,l),
(350,193,l),
(367,234,l),
(373,286,l),
(334,322,l),
(86,305,l)
);
}
);
width = 429;
},
{
layerId = m002;
shapes = (
{
closed = 1;
nodes = (
(61,272,l),
(56,195,l),
(94,188,l),
(350,193,l),
(367,234,l),
(373,286,l),
(334,322,l),
(86,305,l)
);
}
);
width = 429;
}
);
unicode = 45;
},
{
glyphname = endash;
kernLeft = hyphen;
kernRight = hyphen;
lastChange = "2024-05-20 13:11:06 +0000";
layers = (
{
layerId = m01;
shapes = (
{
closed = 1;
nodes = (
(85,272,l),
(80,195,l),
(118,188,l),
(545,193,l),
(562,234,l),
(568,286,l),
(528,322,l),
(110,305,l)
);
}
);
width = 648;
},
{
layerId = m002;
shapes = (
{
closed = 1;
nodes = (
(85,272,l),
(80,195,l),
(118,188,l),
(545,193,l),
(562,234,l),
(568,286,l),
(528,322,l),
(110,305,l)
);
}
);
width = 648;
}
);
unicode = 8211;
},
{
glyphname = emdash;
kernLeft = hyphen;
kernRight = hyphen;
lastChange = "2024-05-20 13:11:06 +0000";
layers = (
{
layerId = m01;
shapes = (
{
closed = 1;
nodes = (
(107,272,l),
(102,195,l),
(140,188,l),
(826,193,l),
(842,234,l),
(848,286,l),
(809,322,l),
(132,305,l)
);
}
);
width = 864;
},
{
layerId = m002;
shapes = (
{
closed = 1;
nodes = (
(107,272,l),
(102,195,l),
(140,188,l),
(826,193,l),
(842,234,l),
(848,286,l),
(809,322,l),
(132,305,l)
);
}
);
width = 864;
}
);
unicode = 8212;
},
{
glyphname = underscore;
kernLeft = hyphen;
kernRight = hyphen;
lastChange = "2024-05-20 13:11:06 +0000";
layers = (
{
layerId = m01;
shapes = (
{
closed = 1;
nodes = (
(107,0,l),
(102,-77,l),
(140,-84,l),
(397,-79,l),
(414,-38,l),
(419,14,l),
(380,50,l),
(132,33,l)
);
}
);
width = 480;
},
{
layerId = m002;
shapes = (
{
closed = 1;
nodes = (
(107,0,l),
(102,-77,l),
(140,-84,l),
(397,-79,l),
(414,-38,l),
(419,14,l),
(380,50,l),
(132,33,l)
);
}
);
width = 480;
}
);
unicode = 95;
},
{
glyphname = parenleft;
lastChange = "2024-05-20 13:11:06 +0000";
layers = (
{
layerId = m01;
shapes = (
{
closed = 1;
nodes = (
(262,714,l),
(326,657,l),
(314,604,l),
(286,560,l),
(211,502,l),
(145,384,l),
(195,50,l),
(286,-7,l),
(336,-76,l),
(262,-140,l),
(98,-57,l),
(40,212,l),
(46,465,l),
(138,658,l)
);
}
);
width = 336;
},
{
layerId = m002;
shapes = (
{
closed = 1;
nodes = (
(262,714,l),
(326,657,l),
(314,604,l),
(286,560,l),
(211,502,l),
(145,384,l),
(195,50,l),
(286,-7,l),
(336,-76,l),
(262,-140,l),
(98,-57,l),
(40,212,l),
(46,465,l),
(138,658,l)
);
}
);
width = 336;
}
);
unicode = 40;
},
{
glyphname = parenright;
lastChange = "2024-05-20 13:11:06 +0000";
layers = (
{
layerId = m01;
shapes = (
{
closed = 1;
nodes = (
(74,-140,l),
(10,-83,l),
(22,-30,l),
(50,14,l),
(125,71,l),
(191,190,l),
(141,530,l),
(50,587,l),
(0,656,l),
(74,720,l),
(238,637,l),
(296,325,l),
(290,109,l),
(198,-85,l)
);
}
);
width = 440;
},
{
layerId = m002;
shapes = (
{
closed = 1;
nodes = (
(74,-140,l),
(10,-83,l),
(22,-30,l),
(50,14,l),
(125,71,l),
(191,190,l),
(141,530,l),
(50,587,l),
(0,656,l),
(74,720,l),
(238,637,l),
(296,325,l),
(290,109,l),
(198,-85,l)
);
}
);
width = 440;
}
);
unicode = 41;
},
{
glyphname = braceleft;
lastChange = "2024-05-20 13:11:06 +0000";
layers = (
{
layerId = m01;
shapes = (
{
closed = 1;
nodes = (
(198,703,l),
(133,658,l),
(133,467,l),
(115,373,l),
(50,296,l),
(115,227,l),
(140,119,l),
(103,-26,l),
(167,-102,l),
(234,-121,l),
(385,-121,l),
(363,-46,l),
(264,9,l),
(285,130,l),
(254,215,l),
(182,296,l),
(271,373,l),
(290,467,l),
(266,577,l),
(367,628,l),
(406,703,l)
);
}
);
width = 425;
},
{
layerId = m002;
shapes = (
{
closed = 1;
nodes = (
(198,703,l),
(133,658,l),
(133,467,l),
(115,373,l),
(50,296,l),
(115,227,l),
(140,119,l),
(103,-26,l),
(167,-102,l),
(234,-121,l),
(385,-121,l),
(363,-46,l),
(264,9,l),
(285,130,l),
(254,215,l),
(182,296,l),
(271,373,l),
(290,467,l),
(266,577,l),
(367,628,l),
(406,703,l)
);
}
);
width = 425;
}
);
unicode = 123;
},
{
glyphname = braceright;
lastChange = "2024-05-20 13:11:06 +0000";
layers = (
{
layerId = m01;
shapes = (
{
closed = 1;
nodes = (
(89,628,l),
(190,577,l),
(166,467,l),
(185,373,l),
(274,296,l),
(202,215,l),
(171,130,l),
(192,9,l),
(93,-46,l),
(71,-121,l),
(222,-121,l),
(289,-102,l),
(353,-26,l),
(316,119,l),
(341,227,l),
(406,296,l),
(341,373,l),
(323,467,l),
(323,658,l),
(258,703,l),
(50,703,l)
);
}
);
width = 426;
},
{
layerId = m002;
shapes = (
{
closed = 1;
nodes = (
(89,628,l),
(190,577,l),
(166,467,l),
(185,373,l),
(274,296,l),
(202,215,l),
(171,130,l),
(192,9,l),
(93,-46,l),
(71,-121,l),
(222,-121,l),
(289,-102,l),
(353,-26,l),
(316,119,l),
(341,227,l),
(406,296,l),
(341,373,l),
(323,467,l),
(323,658,l),
(258,703,l),
(50,703,l)
);
}
);
width = 426;
}
);
unicode = 125;
},
{
glyphname = bracketleft;
lastChange = "2024-05-20 13:11:06 +0000";
layers = (
{
layerId = m01;
shapes = (
{
closed = 1;
nodes = (
(338,594,l),
(210,520,l),
(220,32,l),
(324,-44,l),
(319,-129,l),
(82,-130,l),
(81,693,l),
(340,703,l)
);
}
);
width = 420;
},
{
layerId = m002;
shapes = (
{
closed = 1;
nodes = (
(338,594,l),
(210,520,l),
(220,32,l),
(324,-44,l),
(319,-129,l),
(82,-130,l),
(81,693,l),
(340,703,l)
);
}
);
width = 420;
}
);
unicode = 91;
},
{
glyphname = bracketright;
lastChange = "2024-05-20 13:11:06 +0000";
layers = (
{
layerId = m01;
shapes = (
{
closed = 1;
nodes = (
(340,693,l),
(339,-130,l),
(102,-129,l),
(97,-44,l),
(201,32,l),
(210,520,l),
(83,594,l),
(81,703,l)
);
}
);
width = 420;
},
{
layerId = m002;
shapes = (
{
closed = 1;
nodes = (
(340,693,l),
(339,-130,l),
(102,-129,l),
(97,-44,l),
(201,32,l),
(210,520,l),
(83,594,l),
(81,703,l)
);
}
);
width = 420;
}
);
unicode = 93;
},
{
glyphname = quotesinglbase;
kernRight = comma_d;
lastChange = "2024-05-20 13:11:06 +0000";
layers = (
{
layerId = m01;
shapes = (
{
closed = 1;
nodes = (
(185,-116,l),
(221,22,l),
(92,52,l),
(112,-42,l),
(81,-53,l),
(46,-153,l),
(126,-198,l)
);
},
{
closed = 1;
nodes = (
(221,22,l),
(226,118,l),
(118,158,l),
(44,65,l),
(36,-4,l),
(153,-30,l)
);
}
);
width = 242;
},
{
layerId = m002;
shapes = (
{
closed = 1;
nodes = (
(185,-116,l),
(221,22,l),
(92,52,l),
(112,-42,l),
(81,-53,l),
(46,-153,l),
(126,-198,l)
);
},
{
closed = 1;
nodes = (
(221,22,l),
(226,118,l),
(118,158,l),
(44,65,l),
(36,-4,l),
(153,-30,l)
);
}
);
width = 242;
}
);
unicode = 8218;
},
{
glyphname = quotedblleft;
kernLeft = comma_up;
kernRight = comma_up;
lastChange = "2024-05-20 13:11:06 +0000";
layers = (
{
layerId = m01;
shapes = (
{
closed = 1;
nodes = (
(57,632,l),
(21,494,l),
(150,464,l),
(130,558,l),
(161,569,l),
(195,669,l),
(115,714,l)
);
},
{
closed = 1;
nodes = (
(21,494,l),
(16,398,l),
(124,358,l),
(198,451,l),
(206,520,l),
(89,546,l)
);
},
{
closed = 1;
nodes = (
(283,632,l),
(247,494,l),
(376,464,l),
(356,558,l),
(387,569,l),
(422,669,l),
(342,714,l)
);
},
{
closed = 1;
nodes = (
(247,494,l),
(242,398,l),
(350,358,l),
(424,451,l),
(432,520,l),
(315,546,l)
);
}
);
width = 480;
},
{
layerId = m002;
shapes = (
{
closed = 1;
nodes = (
(57,632,l),
(21,494,l),
(150,464,l),
(130,558,l),
(161,569,l),
(195,669,l),
(115,714,l)
);
},
{
closed = 1;
nodes = (
(21,494,l),
(16,398,l),
(124,358,l),
(198,451,l),
(206,520,l),
(89,546,l)
);
},
{
closed = 1;
nodes = (
(283,632,l),
(247,494,l),
(376,464,l),
(356,558,l),
(387,569,l),
(422,669,l),
(342,714,l)
);
},
{
closed = 1;
nodes = (
(247,494,l),
(242,398,l),
(350,358,l),
(424,451,l),
(432,520,l),
(315,546,l)
);
}
);
width = 480;
}
);
unicode = 8220;
},
{
glyphname = quotedblright;
kernLeft = comma_up;
kernRight = comma_up;
lastChange = "2024-05-20 13:11:06 +0000";
layers = (
{
layerId = m01;
shapes = (
{
closed = 1;
nodes = (
(391,440,l),
(427,578,l),
(298,608,l),
(318,514,l),
(287,503,l),
(253,403,l),
(333,358,l)
);
},
{
closed = 1;
nodes = (
(427,578,l),
(432,674,l),
(324,714,l),
(250,621,l),
(242,552,l),
(359,526,l)
);
},
{
closed = 1;
nodes = (
(165,440,l),
(201,578,l),
(72,608,l),
(92,514,l),
(61,503,l),
(26,403,l),
(106,358,l)
);
},
{
closed = 1;
nodes = (
(201,578,l),
(206,674,l),
(98,714,l),
(24,621,l),
(16,552,l),
(133,526,l)
);
}
);
width = 480;
},
{
layerId = m002;
shapes = (
{
closed = 1;
nodes = (
(391,440,l),
(427,578,l),
(298,608,l),
(318,514,l),
(287,503,l),
(253,403,l),
(333,358,l)
);
},
{
closed = 1;
nodes = (
(427,578,l),
(432,674,l),
(324,714,l),
(250,621,l),
(242,552,l),
(359,526,l)
);
},
{
closed = 1;
nodes = (
(165,440,l),
(201,578,l),
(72,608,l),
(92,514,l),
(61,503,l),
(26,403,l),
(106,358,l)
);
},
{
closed = 1;
nodes = (
(201,578,l),
(206,674,l),
(98,714,l),
(24,621,l),
(16,552,l),
(133,526,l)
);
}
);
width = 480;
}
);
unicode = 8221;
},
{
glyphname = quoteleft;
kernLeft = comma_up;
kernRight = comma_up;
lastChange = "2024-05-20 13:11:06 +0000";
layers = (
{
layerId = m01;
shapes = (
{
closed = 1;
nodes = (
(57,632,l),
(21,494,l),
(150,464,l),
(130,558,l),
(161,569,l),
(195,669,l),
(115,714,l)
);
},
{
closed = 1;
nodes = (
(21,494,l),
(16,398,l),
(124,358,l),
(198,451,l),
(206,520,l),
(89,546,l)
);
}
);
width = 222;
},
{
layerId = m002;
shapes = (
{
closed = 1;
nodes = (
(57,632,l),
(21,494,l),
(150,464,l),
(130,558,l),
(161,569,l),
(195,669,l),
(115,714,l)
);
},
{
closed = 1;
nodes = (
(21,494,l),
(16,398,l),
(124,358,l),
(198,451,l),
(206,520,l),
(89,546,l)
);
}
);
width = 222;
}
);
unicode = 8216;
},
{
glyphname = quoteright;
kernLeft = comma_up;
kernRight = comma_up;
lastChange = "2024-05-20 13:11:06 +0000";
layers = (
{
layerId = m01;
shapes = (
{
closed = 1;
nodes = (
(165,440,l),
(201,578,l),
(72,608,l),
(92,514,l),
(61,503,l),
(26,403,l),
(106,358,l)
);
},
{
closed = 1;
nodes = (
(201,578,l),
(206,674,l),
(98,714,l),
(24,621,l),
(16,552,l),
(133,526,l)
);
}
);
width = 222;
},
{
layerId = m002;
shapes = (
{
closed = 1;
nodes = (
(165,440,l),
(201,578,l),
(72,608,l),
(92,514,l),
(61,503,l),
(26,403,l),
(106,358,l)
);
},
{
closed = 1;
nodes = (
(201,578,l),
(206,674,l),
(98,714,l),
(24,621,l),
(16,552,l),
(133,526,l)
);
}
);
width = 222;
}
);
unicode = 8217;
},
{
glyphname = guillemetleft;
kernLeft = hyphen;
kernRight = hyphen;
lastChange = "2024-05-20 13:11:06 +0000";
layers = (
{
layerId = m01;
shapes = (
{
closed = 1;
nodes = (
(220,77,l),
(186,75,l),
(32,214,l),
(16,264,l),
(199,457,l),
(240,457,l),
(286,406,l),
(271,348,l),
(162,258,l),
(286,158,l),
(286,111,l)
);
},
{
closed = 1;
nodes = (
(450,93,l),
(417,91,l),
(262,214,l),
(246,264,l),
(430,457,l),
(470,457,l),
(516,406,l),
(502,348,l),
(392,258,l),
(499,178,l),
(499,132,l)
);
}
);
width = 532;
},
{
layerId = m002;
shapes = (
{
closed = 1;
nodes = (
(220,77,l),
(186,75,l),
(32,214,l),
(16,264,l),
(199,457,l),
(240,457,l),
(286,406,l),
(271,348,l),
(162,258,l),
(286,158,l),
(286,111,l)
);
},
{
closed = 1;
nodes = (
(450,93,l),
(417,91,l),
(262,214,l),
(246,264,l),
(430,457,l),
(470,457,l),
(516,406,l),
(502,348,l),
(392,258,l),
(499,178,l),
(499,132,l)
);
}
);
width = 532;
}
);
unicode = 171;
},
{
glyphname = guillemetright;
kernLeft = hyphen;
kernRight = hyphen;
lastChange = "2024-05-20 13:11:06 +0000";
layers = (
{
layerId = m01;
shapes = (
{
closed = 1;
nodes = (
(312,422,l),
(346,424,l),
(500,286,l),
(516,235,l),
(333,42,l),
(292,42,l),
(246,94,l),
(261,151,l),
(370,242,l),
(246,342,l),
(246,388,l)
);
},
{
closed = 1;
nodes = (
(82,406,l),
(115,408,l),
(270,286,l),
(286,235,l),
(102,42,l),
(62,42,l),
(16,94,l),
(30,151,l),
(140,242,l),
(33,321,l),
(33,367,l)
);
}
);
width = 530;
},
{
layerId = m002;
shapes = (
{
closed = 1;
nodes = (
(312,422,l),
(346,424,l),
(500,286,l),
(516,235,l),
(333,42,l),
(292,42,l),
(246,94,l),
(261,151,l),
(370,242,l),
(246,342,l),
(246,388,l)
);
},
{
closed = 1;
nodes = (
(82,406,l),
(115,408,l),
(270,286,l),
(286,235,l),
(102,42,l),
(62,42,l),
(16,94,l),
(30,151,l),
(140,242,l),
(33,321,l),
(33,367,l)
);
}
);
width = 530;
}
);
unicode = 187;
},
{
glyphname = guilsinglleft;
kernLeft = hyphen;
kernRight = hyphen;
lastChange = "2024-05-20 13:11:06 +0000";
layers = (
{
layerId = m01;
shapes = (
{
closed = 1;
nodes = (
(306,342,l),
(219,242,l),
(291,151,l),
(306,94,l),
(260,42,l),
(219,42,l),
(36,235,l),
(52,286,l),
(206,424,l),
(240,422,l),
(306,388,l)
);
}
);
width = 306;
},
{
layerId = m002;
shapes = (
{
closed = 1;
nodes = (
(306,342,l),
(219,242,l),
(291,151,l),
(306,94,l),
(260,42,l),
(219,42,l),
(36,235,l),
(52,286,l),
(206,424,l),
(240,422,l),
(306,388,l)
);
}
);
width = 306;
}
);
unicode = 8249;
},
{
glyphname = guilsinglright;
kernLeft = hyphen;
kernRight = hyphen;
lastChange = "2024-05-20 13:11:06 +0000";
layers = (
{
layerId = m01;
shapes = (
{
closed = 1;
nodes = (
(82,422,l),
(115,424,l),
(270,286,l),
(286,235,l),
(102,42,l),
(62,42,l),
(16,94,l),
(30,151,l),
(102,242,l),
(16,342,l),
(16,388,l)
);
}
);
width = 302;
},
{
layerId = m002;
shapes = (
{
closed = 1;
nodes = (
(82,422,l),
(115,424,l),
(270,286,l),
(286,235,l),
(102,42,l),
(62,42,l),
(16,94,l),
(30,151,l),
(102,242,l),
(16,342,l),
(16,388,l)
);
}
);
width = 302;
}
);
unicode = 8250;
},
{
glyphname = quotedbl;
lastChange = "2024-05-20 13:11:06 +0000";
layers = (
{
layerId = m01;
shapes = (
{
closed = 1;
nodes = (
(121,708,l),
(166,705,l),
(166,581,l),
(169,504,l),
(124,495,l),
(52,531,l),
(44,692,l)
);
},
{
closed = 1;
nodes = (
(234,708,l),
(306,705,l),
(307,581,l),
(310,504,l),
(238,495,l),
(199,531,l),
(191,692,l)
);
}
);
width = 326;
},
{
layerId = m002;
shapes = (
{
closed = 1;
nodes = (
(121,708,l),
(166,705,l),
(166,581,l),
(169,504,l),
(124,495,l),
(52,531,l),
(44,692,l)
);
},
{
closed = 1;
nodes = (
(234,708,l),
(306,705,l),
(307,581,l),
(310,504,l),
(238,495,l),
(199,531,l),
(191,692,l)
);
}
);
width = 326;
}
);
unicode = 34;
},
{
glyphname = quotesingle;
kernRight = comma_up;
lastChange = "2024-05-20 13:11:06 +0000";
layers = (
{
layerId = m01;
shapes = (
{
closed = 1;
nodes = (
(165,440,l),
(201,578,l),
(72,608,l),
(92,514,l),
(61,503,l),
(26,403,l),
(106,358,l)
);
},
{
closed = 1;
nodes = (
(201,578,l),
(206,674,l),
(98,714,l),
(24,621,l),
(16,552,l),
(133,526,l)
);
}
);
width = 208;
},
{
layerId = m002;
shapes = (
{
closed = 1;
nodes = (
(165,440,l),
(201,578,l),
(72,608,l),
(92,514,l),
(61,503,l),
(26,403,l),
(106,358,l)
);
},
{
closed = 1;
nodes = (
(201,578,l),
(206,674,l),
(98,714,l),
(24,621,l),
(16,552,l),
(133,526,l)
);
}
);
width = 208;
}
);
unicode = 39;
},
{
glyphname = at;
lastChange = "2024-05-20 13:11:06 +0000";
layers = (
{
layerId = m01;
shapes = (
{
closed = 1;
nodes = (
(468,91,l),
(560,142,l),
(567,250,l),
(482,226,l),
(412,208,l),
(361,264,l),
(359,396,l),
(490,373,l),
(550,322,l),
(553,439,l),
(447,487,l),
(366,448,l),
(240,375,l),
(246,194,l),
(302,64,l)
);
},
{
closed = 1;
nodes = (
(724,74,l),
(751,152,l),
(718,152,l),
(673,218,l),
(681,466,l),
(542,487,l),
(535,418,l),
(537,186,l),
(513,127,l),
(537,82,l)
);
},
{
closed = 1;
nodes = (
(724,74,l),
(807,84,l),
(841,142,l),
(892,230,l),
(913,446,l),
(871,601,l),
(674,698,l),
(382,711,l),
(278,668,l),
(115,530,l),
(48,321,l),
(80,120,l),
(179,-44,l),
(286,-109,l),
(530,-147,l),
(770,-105,l),
(770,-10,l),
(696,39,l),
(571,-2,l),
(401,-22,l),
(325,-10,l),
(238,78,l),
(185,217,l),
(181,394,l),
(314,550,l),
(563,602,l),
(713,536,l),
(762,396,l),
(762,300,l),
(762,182,l),
(751,152,l)
);
},
{
closed = 1;
nodes = (
(579,434,l),
(647,343,l),
(708,377,l),
(724,413,l),
(709,489,l),
(542,487,l)
);
}
);
width = 976;
},
{
layerId = m002;
shapes = (
{
closed = 1;
nodes = (
(468,91,l),
(560,142,l),
(567,250,l),
(482,226,l),
(412,208,l),
(361,264,l),
(359,396,l),
(490,373,l),
(550,322,l),
(553,439,l),
(447,487,l),
(366,448,l),
(240,375,l),
(246,194,l),
(302,64,l)
);
},
{
closed = 1;
nodes = (
(724,74,l),
(751,152,l),
(718,152,l),
(673,218,l),
(681,466,l),
(542,487,l),
(535,418,l),
(537,186,l),
(513,127,l),
(537,82,l)
);
},
{
closed = 1;
nodes = (
(724,74,l),
(807,84,l),
(841,142,l),
(892,230,l),
(913,446,l),
(871,601,l),
(674,698,l),
(382,711,l),
(278,668,l),
(115,530,l),
(48,321,l),
(80,120,l),
(179,-44,l),
(286,-109,l),
(530,-147,l),
(770,-105,l),
(770,-10,l),
(696,39,l),
(571,-2,l),
(401,-22,l),
(325,-10,l),
(238,78,l),
(185,217,l),
(181,394,l),
(314,550,l),
(563,602,l),
(713,536,l),
(762,396,l),
(762,300,l),
(762,182,l),
(751,152,l)
);
},
{
closed = 1;
nodes = (
(579,434,l),
(647,343,l),
(708,377,l),
(724,413,l),
(709,489,l),
(542,487,l)
);
}
);
width = 976;
}
);
unicode = 64;
},
{
glyphname = ampersand;
lastChange = "2024-05-20 13:11:06 +0000";
layers = (
{
layerId = m01;
shapes = (
{
closed = 1;
nodes = (
(639,2,l),
(654,67,l),
(647,142,l),
(320,366,l),
(214,487,l),
(207,648,l),
(82,660,l),
(30,563,l),
(75,461,l),
(166,347,l),
(392,182,l),
(541,-10,l)
);
},
{
closed = 1;
nodes = (
(434,60,l),
(465,124,l),
(541,202,l),
(610,252,l),
(640,306,l),
(582,386,l),
(489,331,l),
(392,242,l),
(270,62,l),
(175,109,l),
(191,233,l),
(228,194,l),
(435,395,l),
(500,524,l),
(415,486,l),
(354,495,l),
(192,390,l),
(38,229,l),
(0,101,l),
(44,5,l),
(194,-58,l)
);
},
{
closed = 1;
nodes = (
(525,493,l),
(541,575,l),
(498,654,l),
(202,716,l),
(95,604,l),
(144,494,l),
(246,564,l),
(319,597,l),
(349,545,l),
(312,438,l)
);
}
);
width = 654;
},
{
layerId = m002;
shapes = (
{
closed = 1;
nodes = (
(639,2,l),
(654,67,l),
(647,142,l),
(320,366,l),
(214,487,l),
(207,648,l),
(82,660,l),
(30,563,l),
(75,461,l),
(166,347,l),
(392,182,l),
(541,-10,l)
);
},
{
closed = 1;
nodes = (
(434,60,l),
(465,124,l),
(541,202,l),
(610,252,l),
(640,306,l),
(582,386,l),
(489,331,l),
(392,242,l),
(270,62,l),
(175,109,l),
(191,233,l),
(228,194,l),
(435,395,l),
(500,524,l),
(415,486,l),
(354,495,l),
(192,390,l),
(38,229,l),
(0,101,l),
(44,5,l),
(194,-58,l)
);
},
{
closed = 1;
nodes = (
(525,493,l),
(541,575,l),
(498,654,l),
(202,716,l),
(95,604,l),
(144,494,l),
(246,564,l),
(319,597,l),
(349,545,l),
(312,438,l)
);
}
);
width = 654;
}
);
unicode = 38;
},
{
glyphname = section;
lastChange = "2024-05-20 13:11:06 +0000";
layers = (
{
layerId = m01;
shapes = (
{
closed = 1;
nodes = (
(187,294,l),
(247,337,l),
(232,514,l),
(280,588,l),
(74,539,l),
(86,294,l)
);
},
{
closed = 1;
nodes = (
(490,369,l),
(407,434,l),
(89,358,l),
(91,352,l),
(374,317,l)
);
},
{
closed = 1;
nodes = (
(470,137,l),
(490,369,l),
(364,411,l),
(342,144,l)
);
},
{
closed = 1;
nodes = (
(468,490,l),
(515,539,l),
(499,628,l),
(321,622,l),
(126,580,l),
(176,469,l),
(334,518,l),
(365,453,l)
);
},
{
closed = 1;
nodes = (
(167,133,l),
(229,112,l),
(214,289,l),
(283,358,l),
(83,316,l),
(94,134,l)
);
},
{
closed = 1;
nodes = (
(452,-38,l),
(222,33,l),
(216,62,l),
(176,70,l),
(42,18,l),
(41,-96,l),
(270,-110,l)
);
},
{
closed = 1;
nodes = (
(471,144,l),
(389,209,l),
(94,133,l),
(97,127,l),
(355,92,l)
);
},
{
closed = 1;
nodes = (
(452,-38,l),
(471,144,l),
(346,186,l),
(301,-93,l)
);
}
);
width = 531;
},
{
layerId = m002;
shapes = (
{
closed = 1;
nodes = (
(187,294,l),
(247,337,l),
(232,514,l),
(280,588,l),
(74,539,l),
(86,294,l)
);
},
{
closed = 1;
nodes = (
(490,369,l),
(407,434,l),
(89,358,l),
(91,352,l),
(374,317,l)
);
},
{
closed = 1;
nodes = (
(470,137,l),
(490,369,l),
(364,411,l),
(342,144,l)
);
},
{
closed = 1;
nodes = (
(468,490,l),
(515,539,l),
(499,628,l),
(321,622,l),
(126,580,l),
(176,469,l),
(334,518,l),
(365,453,l)
);
},
{
closed = 1;
nodes = (
(167,133,l),
(229,112,l),
(214,289,l),
(283,358,l),
(83,316,l),
(94,134,l)
);
},
{
closed = 1;
nodes = (
(452,-38,l),
(222,33,l),
(216,62,l),
(176,70,l),
(42,18,l),
(41,-96,l),
(270,-110,l)
);
},
{
closed = 1;
nodes = (
(471,144,l),
(389,209,l),
(94,133,l),
(97,127,l),
(355,92,l)
);
},
{
closed = 1;
nodes = (
(452,-38,l),
(471,144,l),
(346,186,l),
(301,-93,l)
);
}
);
width = 531;
}
);
unicode = 167;
},
{
glyphname = bar;
lastChange = "2024-05-20 13:11:06 +0000";
layers = (
{
layerId = m01;
shapes = (
{
closed = 1;
nodes = (
(129,691,l),
(222,660,l),
(218,-175,l),
(118,-186,l),
(80,-108,l),
(86,654,l)
);
}
);
width = 302;
},
{
layerId = m002;
shapes = (
{
closed = 1;
nodes = (
(129,691,l),
(222,660,l),
(218,-175,l),
(118,-186,l),
(80,-108,l),
(86,654,l)
);
}
);
width = 302;
}
);
unicode = 124;
},
{
glyphname = dollar;
lastChange = "2024-05-20 13:11:06 +0000";
layers = (
{
layerId = m01;
shapes = (
{
closed = 1;
nodes = (
(208,695,l),
(171,684,l),
(69,653,l),
(43,349,l),
(155,320,l),
(218,349,l)
);
},
{
closed = 1;
nodes = (
(487,65,l),
(204,126,l),
(193,224,l),
(149,237,l),
(41,193,l),
(45,-1,l),
(394,0,l)
);
},
{
closed = 1;
nodes = (
(487,65,l),
(506,382,l),
(394,311,l),
(268,28,l)
);
},
{
closed = 1;
nodes = (
(506,382,l),
(424,446,l),
(45,370,l),
(42,306,l),
(386,271,l)
);
},
{
closed = 1;
nodes = (
(481,515,l),
(522,611,l),
(506,700,l),
(342,700,l),
(136,700,l),
(121,650,l),
(185,589,l),
(341,590,l),
(377,478,l)
);
},
{
closed = 1;
nodes = (
(200,-122,l),
(286,-137,l),
(324,-107,l),
(334,36,l),
(293,51,l),
(210,62,l)
);
},
{
closed = 1;
nodes = (
(370,774,l),
(284,789,l),
(246,759,l),
(246,614,l),
(291,606,l),
(360,590,l)
);
}
);
width = 538;
},
{
layerId = m002;
shapes = (
{
closed = 1;
nodes = (
(208,695,l),
(171,684,l),
(69,653,l),
(43,349,l),
(155,320,l),
(218,349,l)
);
},
{
closed = 1;
nodes = (
(487,65,l),
(204,126,l),
(193,224,l),
(149,237,l),
(41,193,l),
(45,-1,l),
(394,0,l)
);
},
{
closed = 1;
nodes = (
(487,65,l),
(506,382,l),
(394,311,l),
(268,28,l)
);
},
{
closed = 1;
nodes = (
(506,382,l),
(424,446,l),
(45,370,l),
(42,306,l),
(386,271,l)
);
},
{
closed = 1;
nodes = (
(481,515,l),
(522,611,l),
(506,700,l),
(342,700,l),
(136,700,l),
(121,650,l),
(185,589,l),
(341,590,l),
(377,478,l)
);
},
{
closed = 1;
nodes = (
(200,-122,l),
(286,-137,l),
(324,-107,l),
(334,36,l),
(293,51,l),
(210,62,l)
);
},
{
closed = 1;
nodes = (
(370,774,l),
(284,789,l),
(246,759,l),
(246,614,l),
(291,606,l),
(360,590,l)
);
}
);
width = 538;
}
);
unicode = 36;
},
{
glyphname = euro;
lastChange = "2024-05-20 13:11:06 +0000";
layers = (
{
layerId = m01;
shapes = (
{
closed = 1;
nodes = (
(74,441,l),
(138,55,l),
(353,79,l),
(242,163,l),
(225,257,l),
(270,502,l),
(306,538,l),
(409,662,l),
(323,694,l),
(138,596,l)
);
},
{
closed = 1;
nodes = (
(593,94,l),
(629,183,l),
(560,213,l),
(452,114,l),
(260,80,l),
(138,55,l),
(187,0,l),
(293,-24,l),
(536,0,l)
);
},
{
closed = 1;
nodes = (
(376,564,l),
(507,494,l),
(593,538,l),
(593,626,l),
(490,630,l)
);
},
{
closed = 1;
nodes = (
(452,702,l),
(200,603,l),
(124,498,l),
(174,460,l),
(593,626,l),
(496,679,l)
);
},
{
closed = 1;
nodes = (
(16,338,l),
(38,301,l),
(424,329,l),
(450,378,l),
(452,450,l),
(28,397,l)
);
},
{
closed = 1;
nodes = (
(37,201,l),
(59,163,l),
(390,178,l),
(427,241,l),
(427,290,l),
(49,259,l)
);
}
);
width = 645;
},
{
layerId = m002;
shapes = (
{
closed = 1;
nodes = (
(74,441,l),
(138,55,l),
(353,79,l),
(242,163,l),
(225,257,l),
(270,502,l),
(306,538,l),
(409,662,l),
(323,694,l),
(138,596,l)
);
},
{
closed = 1;
nodes = (
(593,94,l),
(629,183,l),
(560,213,l),
(452,114,l),
(260,80,l),
(138,55,l),
(187,0,l),
(293,-24,l),
(536,0,l)
);
},
{
closed = 1;
nodes = (
(376,564,l),
(507,494,l),
(593,538,l),
(593,626,l),
(490,630,l)
);
},
{
closed = 1;
nodes = (
(452,702,l),
(200,603,l),
(124,498,l),
(174,460,l),
(593,626,l),
(496,679,l)
);
},
{
closed = 1;
nodes = (
(16,338,l),
(38,301,l),
(424,329,l),
(450,378,l),
(452,450,l),
(28,397,l)
);
},
{
closed = 1;
nodes = (
(37,201,l),
(59,163,l),
(390,178,l),
(427,241,l),
(427,290,l),
(49,259,l)
);
}
);
width = 645;
}
);
unicode = 8364;
},
{
glyphname = plus;
lastChange = "2024-05-20 13:11:06 +0000";
layers = (
{
layerId = m01;
shapes = (
{
closed = 1;
nodes = (
(107,272,l),
(102,195,l),
(140,188,l),
(397,193,l),
(414,234,l),
(419,286,l),
(380,322,l),
(132,305,l)
);
},
{
closed = 1;
nodes = (
(278,409,l),
(201,414,l),
(194,376,l),
(198,119,l),
(239,102,l),
(292,97,l),
(328,136,l),
(310,384,l)
);
}
);
width = 480;
},
{
layerId = m002;
shapes = (
{
closed = 1;
nodes = (
(107,272,l),
(102,195,l),
(140,188,l),
(397,193,l),
(414,234,l),
(419,286,l),
(380,322,l),
(132,305,l)
);
},
{
closed = 1;
nodes = (
(278,409,l),
(201,414,l),
(194,376,l),
(198,119,l),
(239,102,l),
(292,97,l),
(328,136,l),
(310,384,l)
);
}
);
width = 480;
}
);
unicode = 43;
},
{
glyphname = equal;
lastChange = "2024-05-20 13:11:06 +0000";
layers = (
{
layerId = m01;
shapes = (
{
closed = 1;
nodes = (
(107,404,l),
(102,327,l),
(140,320,l),
(397,325,l),
(414,366,l),
(419,418,l),
(380,454,l),
(132,437,l)
);
},
{
closed = 1;
nodes = (
(414,158,l),
(419,234,l),
(382,242,l),
(125,237,l),
(108,196,l),
(102,143,l),
(142,107,l),
(390,125,l)
);
}
);
width = 480;
},
{
layerId = m002;
shapes = (
{
closed = 1;
nodes = (
(107,404,l),
(102,327,l),
(140,320,l),
(397,325,l),
(414,366,l),
(419,418,l),
(380,454,l),
(132,437,l)
);
},
{
closed = 1;
nodes = (
(414,158,l),
(419,234,l),
(382,242,l),
(125,237,l),
(108,196,l),
(102,143,l),
(142,107,l),
(390,125,l)
);
}
);
width = 480;
}
);
unicode = 61;
},
{
glyphname = greater;
lastChange = "2024-05-20 13:11:06 +0000";
layers = (
{
layerId = m01;
shapes = (
{
closed = 1;
nodes = (
(21,398,l),
(52,366,l),
(303,229,l),
(55,120,l),
(24,43,l),
(51,6,l),
(97,-5,l),
(534,173,l),
(560,220,l),
(130,490,l),
(50,448,l)
);
}
);
width = 560;
},
{
layerId = m002;
shapes = (
{
closed = 1;
nodes = (
(21,398,l),
(52,366,l),
(303,229,l),
(55,120,l),
(24,43,l),
(51,6,l),
(97,-5,l),
(534,173,l),
(560,220,l),
(130,490,l),
(50,448,l)
);
}
);
width = 560;
}
);
unicode = 62;
},
{
glyphname = less;
lastChange = "2024-05-20 13:11:06 +0000";
layers = (
{
layerId = m01;
shapes = (
{
closed = 1;
nodes = (
(560,86,l),
(529,119,l),
(278,256,l),
(526,365,l),
(557,442,l),
(530,478,l),
(484,490,l),
(47,312,l),
(21,265,l),
(451,-5,l),
(531,37,l)
);
}
);
width = 560;
},
{
layerId = m002;
shapes = (
{
closed = 1;
nodes = (
(560,86,l),
(529,119,l),
(278,256,l),
(526,365,l),
(557,442,l),
(530,478,l),
(484,490,l),
(47,312,l),
(21,265,l),
(451,-5,l),
(531,37,l)
);
}
);
width = 560;
}
);
unicode = 60;
},
{
glyphname = percent;
lastChange = "2024-05-20 13:11:06 +0000";
layers = (
{
layerId = m01;
shapes = (
{
closed = 1;
nodes = (
(325,-172,l),
(657,586,l),
(672,637,l),
(672,688,l),
(561,708,l),
(508,614,l),
(170,-143,l),
(205,-198,l)
);
},
{
closed = 1;
nodes = (
(324,306,l),
(338,362,l),
(313,418,l),
(50,364,l),
(94,341,l),
(258,274,l)
);
},
{
closed = 1;
nodes = (
(131,282,l),
(200,346,l),
(158,632,l),
(112,643,l),
(62,626,l),
(0,528,l),
(21,270,l)
);
},
{
closed = 1;
nodes = (
(811,-111,l),
(864,-24,l),
(742,-4,l),
(491,8,l),
(491,-93,l),
(709,-131,l)
);
},
{
closed = 1;
nodes = (
(576,-79,l),
(651,102,l),
(671,235,l),
(532,232,l),
(442,-68,l),
(491,-93,l)
);
},
{
closed = 1;
nodes = (
(364,602,l),
(364,703,l),
(156,698,l),
(54,678,l),
(1,591,l),
(122,571,l)
);
},
{
closed = 1;
nodes = (
(360,332,l),
(414,678,l),
(364,703,l),
(279,690,l),
(235,533,l),
(221,329,l)
);
},
{
closed = 1;
nodes = (
(802,-59,l),
(865,39,l),
(886,296,l),
(775,284,l),
(706,219,l),
(706,-65,l),
(753,-76,l)
);
},
{
closed = 1;
nodes = (
(857,202,l),
(812,322,l),
(634,290,l),
(568,258,l),
(554,202,l),
(579,146,l)
);
}
);
width = 886;
},
{
layerId = m002;
shapes = (
{
closed = 1;
nodes = (
(325,-172,l),
(657,586,l),
(672,637,l),
(672,688,l),
(561,708,l),
(508,614,l),
(170,-143,l),
(205,-198,l)
);
},
{
closed = 1;
nodes = (
(324,306,l),
(338,362,l),
(313,418,l),
(50,364,l),
(94,341,l),
(258,274,l)
);
},
{
closed = 1;
nodes = (
(131,282,l),
(200,346,l),
(158,632,l),
(112,643,l),
(62,626,l),
(0,528,l),
(21,270,l)
);
},
{
closed = 1;
nodes = (
(811,-111,l),
(864,-24,l),
(742,-4,l),
(491,8,l),
(491,-93,l),
(709,-131,l)
);
},
{
closed = 1;
nodes = (
(576,-79,l),
(651,102,l),
(671,235,l),
(532,232,l),
(442,-68,l),
(491,-93,l)
);
},
{
closed = 1;
nodes = (
(364,602,l),
(364,703,l),
(156,698,l),
(54,678,l),
(1,591,l),
(122,571,l)
);
},
{
closed = 1;
nodes = (
(360,332,l),
(414,678,l),
(364,703,l),
(279,690,l),
(235,533,l),
(221,329,l)
);
},
{
closed = 1;
nodes = (
(802,-59,l),
(865,39,l),
(886,296,l),
(775,284,l),
(706,219,l),
(706,-65,l),
(753,-76,l)
);
},
{
closed = 1;
nodes = (
(857,202,l),
(812,322,l),
(634,290,l),
(568,258,l),
(554,202,l),
(579,146,l)
);
}
);
width = 886;
}
);
unicode = 37;
},
{
glyphname = upArrow;
lastChange = "2024-05-20 13:11:06 +0000";
layers = (
{
layerId = m01;
shapes = (
{
closed = 1;
nodes = (
(295,569,l),
(106,310,l),
(50,227,l),
(74,153,l),
(166,136,l),
(452,525,l),
(392,614,l)
);
},
{
closed = 1;
nodes = (
(300,478,l),
(404,307,l),
(576,134,l),
(663,168,l),
(678,237,l),
(452,525,l),
(387,558,l),
(276,525,l)
);
},
{
closed = 1;
nodes = (
(274,-71,l),
(356,-62,l),
(452,22,l),
(388,372,l),
(423,489,l),
(364,446,l),
(268,366,l),
(305,354,l),
(252,-28,l)
);
}
);
width = 728;
},
{
layerId = m002;
shapes = (
{
closed = 1;
nodes = (
(295,569,l),
(106,310,l),
(50,227,l),
(74,153,l),
(166,136,l),
(452,525,l),
(392,614,l)
);
},
{
closed = 1;
nodes = (
(300,478,l),
(404,307,l),
(576,134,l),
(663,168,l),
(678,237,l),
(452,525,l),
(387,558,l),
(276,525,l)
);
},
{
closed = 1;
nodes = (
(274,-71,l),
(356,-62,l),
(452,22,l),
(388,372,l),
(423,489,l),
(364,446,l),
(268,366,l),
(305,354,l),
(252,-28,l)
);
}
);
width = 728;
}
);
unicode = 8593;
},
{
glyphname = northEastArrow;
lastChange = "2024-05-20 13:11:06 +0000";
layers = (
{
layerId = m01;
shapes = (
{
closed = 1;
nodes = (
(558,494,l),
(238,470,l),
(138,460,l),
(97,394,l),
(143,312,l),
(625,346,l),
(655,448,l)
);
},
{
closed = 1;
nodes = (
(491,430,l),
(428,241,l),
(406,-2,l),
(489,-46,l),
(551,-14,l),
(625,346,l),
(608,416,l),
(511,479,l)
);
},
{
closed = 1;
nodes = (
(55,96,l),
(114,39,l),
(241,20,l),
(467,295,l),
(578,344,l),
(507,362,l),
(385,383,l),
(400,347,l),
(74,141,l)
);
}
);
width = 705;
},
{
layerId = m002;
shapes = (
{
closed = 1;
nodes = (
(558,494,l),
(238,470,l),
(138,460,l),
(97,394,l),
(143,312,l),
(625,346,l),
(655,448,l)
);
},
{
closed = 1;
nodes = (
(491,430,l),
(428,241,l),
(406,-2,l),
(489,-46,l),
(551,-14,l),
(625,346,l),
(608,416,l),
(511,479,l)
);
},
{
closed = 1;
nodes = (
(55,96,l),
(114,39,l),
(241,20,l),
(467,295,l),
(578,344,l),
(507,362,l),
(385,383,l),
(400,347,l),
(74,141,l)
);
}
);
width = 705;
}
);
unicode = 8599;
},
{
glyphname = rightArrow;
lastChange = "2024-05-20 13:11:06 +0000";
layers = (
{
layerId = m01;
shapes = (
{
closed = 1;
nodes = (
(690,341,l),
(431,530,l),
(349,586,l),
(274,562,l),
(257,470,l),
(646,184,l),
(736,243,l)
);
},
{
closed = 1;
nodes = (
(599,335,l),
(429,231,l),
(255,60,l),
(289,-27,l),
(358,-42,l),
(646,184,l),
(679,249,l),
(646,360,l)
);
},
{
closed = 1;
nodes = (
(50,362,l),
(59,280,l),
(143,184,l),
(493,248,l),
(610,213,l),
(567,272,l),
(487,368,l),
(476,330,l),
(93,384,l)
);
}
);
width = 786;
},
{
layerId = m002;
shapes = (
{
closed = 1;
nodes = (
(690,341,l),
(431,530,l),
(349,586,l),
(274,562,l),
(257,470,l),
(646,184,l),
(736,243,l)
);
},
{
closed = 1;
nodes = (
(599,335,l),
(429,231,l),
(255,60,l),
(289,-27,l),
(358,-42,l),
(646,184,l),
(679,249,l),
(646,360,l)
);
},
{
closed = 1;
nodes = (
(50,362,l),
(59,280,l),
(143,184,l),
(493,248,l),
(610,213,l),
(567,272,l),
(487,368,l),
(476,330,l),
(93,384,l)
);
}
);
width = 786;
}
);
unicode = 8594;
},
{
glyphname = southEastArrow;
lastChange = "2024-05-20 13:11:06 +0000";
layers = (
{
layerId = m01;
shapes = (
{
closed = 1;
nodes = (
(620,102,l),
(138,135,l),
(92,54,l),
(133,-13,l),
(233,-23,l),
(553,-46,l),
(650,-1,l)
);
},
{
closed = 1;
nodes = (
(603,31,l),
(620,102,l),
(546,461,l),
(484,494,l),
(401,450,l),
(423,206,l),
(486,17,l),
(506,-32,l)
);
},
{
closed = 1;
nodes = (
(395,100,l),
(380,64,l),
(502,86,l),
(573,103,l),
(462,152,l),
(236,427,l),
(109,408,l),
(50,351,l),
(69,306,l)
);
}
);
width = 700;
},
{
layerId = m002;
shapes = (
{
closed = 1;
nodes = (
(620,102,l),
(138,135,l),
(92,54,l),
(133,-13,l),
(233,-23,l),
(553,-46,l),
(650,-1,l)
);
},
{
closed = 1;
nodes = (
(603,31,l),
(620,102,l),
(546,461,l),
(484,494,l),
(401,450,l),
(423,206,l),
(486,17,l),
(506,-32,l)
);
},
{
closed = 1;
nodes = (
(395,100,l),
(380,64,l),
(502,86,l),
(573,103,l),
(462,152,l),
(236,427,l),
(109,408,l),
(50,351,l),
(69,306,l)
);
}
);
width = 700;
}
);
unicode = 8600;
},
{
glyphname = downArrow;
lastChange = "2024-05-20 13:11:06 +0000";
layers = (
{
layerId = m01;
shapes = (
{
closed = 1;
nodes = (
(435,-26,l),
(624,234,l),
(680,316,l),
(656,390,l),
(564,407,l),
(278,18,l),
(338,-71,l)
);
},
{
closed = 1;
nodes = (
(430,66,l),
(326,236,l),
(154,410,l),
(67,375,l),
(52,306,l),
(278,18,l),
(343,-14,l),
(454,18,l)
);
},
{
closed = 1;
nodes = (
(456,614,l),
(374,606,l),
(278,522,l),
(342,171,l),
(307,54,l),
(366,98,l),
(462,178,l),
(425,189,l),
(478,571,l)
);
}
);
width = 730;
},
{
layerId = m002;
shapes = (
{
closed = 1;
nodes = (
(435,-26,l),
(624,234,l),
(680,316,l),
(656,390,l),
(564,407,l),
(278,18,l),
(338,-71,l)
);
},
{
closed = 1;
nodes = (
(430,66,l),
(326,236,l),
(154,410,l),
(67,375,l),
(52,306,l),
(278,18,l),
(343,-14,l),
(454,18,l)
);
},
{
closed = 1;
nodes = (
(456,614,l),
(374,606,l),
(278,522,l),
(342,171,l),
(307,54,l),
(366,98,l),
(462,178,l),
(425,189,l),
(478,571,l)
);
}
);
width = 730;
}
);
unicode = 8595;
},
{
glyphname = southWestArrow;
lastChange = "2024-05-20 13:11:06 +0000";
layers = (
{
layerId = m01;
shapes = (
{
closed = 1;
nodes = (
(153,-46,l),
(473,-23,l),
(572,-13,l),
(614,54,l),
(567,135,l),
(86,102,l),
(55,-1,l)
);
},
{
closed = 1;
nodes = (
(219,17,l),
(282,206,l),
(304,450,l),
(222,494,l),
(159,461,l),
(86,102,l),
(102,31,l),
(199,-32,l)
);
},
{
closed = 1;
nodes = (
(655,351,l),
(596,408,l),
(470,427,l),
(243,152,l),
(132,103,l),
(203,86,l),
(326,64,l),
(310,100,l),
(637,306,l)
);
}
);
width = 705;
},
{
layerId = m002;
shapes = (
{
closed = 1;
nodes = (
(153,-46,l),
(473,-23,l),
(572,-13,l),
(614,54,l),
(567,135,l),
(86,102,l),
(55,-1,l)
);
},
{
closed = 1;
nodes = (
(219,17,l),
(282,206,l),
(304,450,l),
(222,494,l),
(159,461,l),
(86,102,l),
(102,31,l),
(199,-32,l)
);
},
{
closed = 1;
nodes = (
(655,351,l),
(596,408,l),
(470,427,l),
(243,152,l),
(132,103,l),
(203,86,l),
(326,64,l),
(310,100,l),
(637,306,l)
);
}
);
width = 705;
}
);
unicode = 8601;
},
{
glyphname = leftArrow;
lastChange = "2024-05-20 13:11:06 +0000";
layers = (
{
layerId = m01;
shapes = (
{
closed = 1;
nodes = (
(140,184,l),
(529,470,l),
(512,562,l),
(437,586,l),
(355,530,l),
(96,341,l),
(50,243,l)
);
},
{
closed = 1;
nodes = (
(107,249,l),
(140,184,l),
(428,-42,l),
(497,-27,l),
(531,60,l),
(357,231,l),
(187,335,l),
(140,360,l)
);
},
{
closed = 1;
nodes = (
(310,330,l),
(299,368,l),
(219,272,l),
(176,213,l),
(293,248,l),
(643,184,l),
(727,280,l),
(736,362,l),
(693,384,l)
);
}
);
width = 786;
},
{
layerId = m002;
shapes = (
{
closed = 1;
nodes = (
(140,184,l),
(529,470,l),
(512,562,l),
(437,586,l),
(355,530,l),
(96,341,l),
(50,243,l)
);
},
{
closed = 1;
nodes = (
(107,249,l),
(140,184,l),
(428,-42,l),
(497,-27,l),
(531,60,l),
(357,231,l),
(187,335,l),
(140,360,l)
);
},
{
closed = 1;
nodes = (
(310,330,l),
(299,368,l),
(219,272,l),
(176,213,l),
(293,248,l),
(643,184,l),
(727,280,l),
(736,362,l),
(693,384,l)
);
}
);
width = 786;
}
);
unicode = 8592;
},
{
glyphname = northWestArrow;
lastChange = "2024-05-20 13:11:06 +0000";
layers = (
{
layerId = m01;
shapes = (
{
closed = 1;
nodes = (
(86,346,l),
(567,312,l),
(614,394,l),
(572,460,l),
(473,470,l),
(153,494,l),
(55,448,l)
);
},
{
closed = 1;
nodes = (
(102,416,l),
(86,346,l),
(159,-14,l),
(222,-46,l),
(304,-2,l),
(282,241,l),
(219,430,l),
(199,479,l)
);
},
{
closed = 1;
nodes = (
(310,347,l),
(326,383,l),
(203,362,l),
(132,344,l),
(243,295,l),
(470,20,l),
(596,39,l),
(655,96,l),
(637,141,l)
);
}
);
width = 705;
},
{
layerId = m002;
shapes = (
{
closed = 1;
nodes = (
(86,346,l),
(567,312,l),
(614,394,l),
(572,460,l),
(473,470,l),
(153,494,l),
(55,448,l)
);
},
{
closed = 1;
nodes = (
(102,416,l),
(86,346,l),
(159,-14,l),
(222,-46,l),
(304,-2,l),
(282,241,l),
(219,430,l),
(199,479,l)
);
},
{
closed = 1;
nodes = (
(310,347,l),
(326,383,l),
(203,362,l),
(132,344,l),
(243,295,l),
(470,20,l),
(596,39,l),
(655,96,l),
(637,141,l)
);
}
);
width = 705;
}
);
unicode = 8598;
},
{
glyphname = leftRightArrow;
lastChange = "2024-05-20 13:11:06 +0000";
layers = (
{
layerId = m01;
shapes = (
{
closed = 1;
nodes = (
(96,202,l),
(355,14,l),
(437,-42,l),
(512,-18,l),
(529,74,l),
(140,359,l),
(50,300,l)
);
},
{
closed = 1;
nodes = (
(187,208,l),
(357,312,l),
(531,483,l),
(497,570,l),
(428,586,l),
(140,359,l),
(107,294,l),
(140,183,l)
);
},
{
closed = 1;
nodes = (
(581,161,l),
(739,263,l),
(577,359,l),
(293,295,l),
(176,330,l),
(219,271,l),
(299,175,l),
(310,213,l),
(489,184,l)
);
},
{
closed = 1;
nodes = (
(1066,359,l),
(677,74,l),
(694,-18,l),
(769,-42,l),
(851,14,l),
(1110,202,l),
(1156,300,l)
);
},
{
closed = 1;
nodes = (
(1099,294,l),
(1066,359,l),
(778,586,l),
(709,570,l),
(675,483,l),
(849,312,l),
(1019,208,l),
(1066,183,l)
);
},
{
closed = 1;
nodes = (
(981,215,l),
(993,178,l),
(1073,274,l),
(1116,333,l),
(999,298,l),
(586,359,l),
(498,266,l),
(489,184,l),
(681,186,l)
);
}
);
width = 1206;
},
{
layerId = m002;
shapes = (
{
closed = 1;
nodes = (
(96,202,l),
(355,14,l),
(437,-42,l),
(512,-18,l),
(529,74,l),
(140,359,l),
(50,300,l)
);
},
{
closed = 1;
nodes = (
(187,208,l),
(357,312,l),
(531,483,l),
(497,570,l),
(428,586,l),
(140,359,l),
(107,294,l),
(140,183,l)
);
},
{
closed = 1;
nodes = (
(581,161,l),
(739,263,l),
(577,359,l),
(293,295,l),
(176,330,l),
(219,271,l),
(299,175,l),
(310,213,l),
(489,184,l)
);
},
{
closed = 1;
nodes = (
(1066,359,l),
(677,74,l),
(694,-18,l),
(769,-42,l),
(851,14,l),
(1110,202,l),
(1156,300,l)
);
},
{
closed = 1;
nodes = (
(1099,294,l),
(1066,359,l),
(778,586,l),
(709,570,l),
(675,483,l),
(849,312,l),
(1019,208,l),
(1066,183,l)
);
},
{
closed = 1;
nodes = (
(981,215,l),
(993,178,l),
(1073,274,l),
(1116,333,l),
(999,298,l),
(586,359,l),
(498,266,l),
(489,184,l),
(681,186,l)
);
}
);
width = 1206;
}
);
unicode = 8596;
},
{
glyphname = upDownArrow;
lastChange = "2024-05-20 13:11:06 +0000";
layers = (
{
layerId = m01;
shapes = (
{
closed = 1;
nodes = (
(433,-235,l),
(622,24,l),
(678,106,l),
(654,181,l),
(562,198,l),
(276,-191,l),
(336,-281,l)
);
},
{
closed = 1;
nodes = (
(428,-144,l),
(324,26,l),
(152,200,l),
(65,166,l),
(50,97,l),
(276,-191,l),
(341,-224,l),
(452,-191,l)
);
},
{
closed = 1;
nodes = (
(440,256,l),
(372,408,l),
(291,181,l),
(340,-38,l),
(305,-155,l),
(364,-112,l),
(460,-32,l),
(423,-21,l),
(452,158,l)
);
},
{
closed = 1;
nodes = (
(276,634,l),
(562,245,l),
(654,262,l),
(678,336,l),
(622,418,l),
(433,678,l),
(336,723,l)
);
},
{
closed = 1;
nodes = (
(341,666,l),
(276,634,l),
(50,346,l),
(65,277,l),
(152,242,l),
(324,416,l),
(428,586,l),
(452,634,l)
);
},
{
closed = 1;
nodes = (
(420,549,l),
(458,560,l),
(362,640,l),
(303,683,l),
(338,566,l),
(291,181,l),
(370,66,l),
(452,158,l),
(450,248,l)
);
}
);
width = 728;
},
{
layerId = m002;
shapes = (
{
closed = 1;
nodes = (
(433,-235,l),
(622,24,l),
(678,106,l),
(654,181,l),
(562,198,l),
(276,-191,l),
(336,-281,l)
);
},
{
closed = 1;
nodes = (
(428,-144,l),
(324,26,l),
(152,200,l),
(65,166,l),
(50,97,l),
(276,-191,l),
(341,-224,l),
(452,-191,l)
);
},
{
closed = 1;
nodes = (
(440,256,l),
(372,408,l),
(291,181,l),
(340,-38,l),
(305,-155,l),
(364,-112,l),
(460,-32,l),
(423,-21,l),
(452,158,l)
);
},
{
closed = 1;
nodes = (
(276,634,l),
(562,245,l),
(654,262,l),
(678,336,l),
(622,418,l),
(433,678,l),
(336,723,l)
);
},
{
closed = 1;
nodes = (
(341,666,l),
(276,634,l),
(50,346,l),
(65,277,l),
(152,242,l),
(324,416,l),
(428,586,l),
(452,634,l)
);
},
{
closed = 1;
nodes = (
(420,549,l),
(458,560,l),
(362,640,l),
(303,683,l),
(338,566,l),
(291,181,l),
(370,66,l),
(452,158,l),
(450,248,l)
);
}
);
width = 728;
}
);
unicode = 8597;
},
{
glyphname = commaaccentcomb;
lastChange = "2024-05-20 13:11:06 +0000";
layers = (
{
anchors = (
{
name = _bottom;
pos = (202,103);
}
);
layerId = m01;
shapes = (
{
closed = 1;
nodes = (
(54,-65,l),
(105,-128,l),
(154,-137,l),
(202,-77,l),
(244,9,l),
(194,38,l),
(106,6,l)
);
}
);
width = 240;
},
{
anchors = (
{
name = _bottom;
pos = (202,103);
}
);
layerId = m002;
shapes = (
{
closed = 1;
nodes = (
(54,-65,l),
(105,-128,l),
(154,-137,l),
(202,-77,l),
(244,9,l),
(194,38,l),
(106,6,l)
);
}
);
width = 240;
}
);
unicode = 806;
},
{
glyphname = dieresis;
lastChange = "2024-05-20 13:11:06 +0000";
layers = (
{
anchors = (
{
name = _top;
pos = (177,466);
}
);
layerId = m01;
shapes = (
{
closed = 1;
nodes = (
(319,502,l),
(371,566,l),
(349,678,l),
(281,672,l),
(189,605,l),
(224,501,l)
);
},
{
closed = 1;
nodes = (
(90,492,l),
(182,558,l),
(147,663,l),
(54,662,l),
(0,598,l),
(23,486,l)
);
}
);
width = 371;
},
{
anchors = (
{
name = _top;
pos = (177,466);
}
);
layerId = m002;
shapes = (
{
closed = 1;
nodes = (
(319,502,l),
(371,566,l),
(349,678,l),
(281,672,l),
(189,605,l),
(224,501,l)
);
},
{
closed = 1;
nodes = (
(90,492,l),
(182,558,l),
(147,663,l),
(54,662,l),
(0,598,l),
(23,486,l)
);
}
);
width = 371;
}
);
unicode = 168;
},
{
glyphname = dotaccent;
lastChange = "2024-05-20 13:11:06 +0000";
layers = (
{
anchors = (
{
name = _top;
pos = (120,481);
}
);
layerId = m01;
shapes = (
{
closed = 1;
nodes = (
(218,542,l),
(210,609,l),
(140,699,l),
(38,661,l),
(42,566,l),
(106,516,l)
);
}
);
width = 240;
},
{
anchors = (
{
name = _top;
pos = (120,481);
}
);
layerId = m002;
shapes = (
{
closed = 1;
nodes = (
(218,542,l),
(210,609,l),
(140,699,l),
(38,661,l),
(42,566,l),
(106,516,l)
);
}
);
width = 240;
}
);
unicode = 729;
},
{
glyphname = grave;
lastChange = "2024-05-20 13:11:06 +0000";
layers = (
{
anchors = (
{
name = _top;
pos = (129,448);
}
);
layerId = m01;
shapes = (
{
closed = 1;
nodes = (
(232,539,l),
(175,631,l),
(39,681,l),
(-15,591,l),
(129,475,l),
(225,482,l)
);
}
);
width = 240;
},
{
anchors = (
{
name = _top;
pos = (129,448);
}
);
layerId = m002;
shapes = (
{
closed = 1;
nodes = (
(232,539,l),
(175,631,l),
(39,681,l),
(-15,591,l),
(129,475,l),
(225,482,l)
);
}
);
width = 240;
}
);
unicode = 96;
},
{
glyphname = acute;
lastChange = "2024-05-20 13:11:06 +0000";
layers = (
{
anchors = (
{
name = _top;
pos = (117,448);
}
);
layerId = m01;
shapes = (
{
closed = 1;
nodes = (
(129,490,l),
(251,603,l),
(213,678,l),
(92,675,l),
(17,562,l),
(49,482,l)
);
}
);
width = 240;
},
{
anchors = (
{
name = _top;
pos = (117,448);
}
);
layerId = m002;
shapes = (
{
closed = 1;
nodes = (
(129,490,l),
(251,603,l),
(213,678,l),
(92,675,l),
(17,562,l),
(49,482,l)
);
}
);
width = 240;
}
);
unicode = 180;
},
